<?xml version="1.0" encoding="utf-8"?>
<!-- Generator: Adobe Illustrator 21.0.0, SVG Export Plug-In . SVG Version: 6.00 Build 0)  -->
<svg version="1.1" id="flat" xmlns="http://www.w3.org/2000/svg" xmlns:xlink="http://www.w3.org/1999/xlink" x="0px" y="0px"
	 viewBox="0 0 32 32" enable-background="new 0 0 32 32" xml:space="preserve">
<path fill="#E4E5ED" d="M31.5,8h-31C0.224,8,0,8.224,0,8.5v19C0,28.878,1.122,30,2.5,30h17.656c0.063,0,0.126-0.012,0.185-0.035
	l11.344-4.5C31.875,25.389,32,25.205,32,25V8.5C32,8.224,31.776,8,31.5,8z"/>
<path fill="#ED412F" d="M29.5,2h-27C1.122,2,0,3.122,0,4.5v4C0,8.776,0.224,9,0.5,9h31C31.776,9,32,8.776,32,8.5v-4
	C32,3.122,30.879,2,29.5,2z"/>
<path fill="#E4E5ED" d="M8,0C6.897,0,6,0.897,6,2v3.5C6,5.776,6.224,6,6.5,6S7,5.776,7,5.5V2c0-0.551,0.449-1,1-1s1,0.449,1,1h1
	C10,0.897,9.103,0,8,0z"/>
<path fill="#E4E5ED" d="M27,0c-1.103,0-2,0.897-2,2v3.5C25,5.776,25.224,6,25.5,6S26,5.776,26,5.5V2c0-0.551,0.448-1,1-1
	s1,0.449,1,1h1C29,0.897,28.103,0,27,0z"/>
<g>
	<path fill="#767684" d="M13.5,11h-1c-0.827,0-1.5,0.673-1.5,1.5v1c0,0.827,0.673,1.5,1.5,1.5h1c0.827,0,1.5-0.673,1.5-1.5v-1
		C15,11.673,14.327,11,13.5,11z"/>
	<path fill="#767684" d="M19.5,11h-1c-0.827,0-1.5,0.673-1.5,1.5v1c0,0.827,0.673,1.5,1.5,1.5h1c0.827,0,1.5-0.673,1.5-1.5v-1
		C21,11.673,20.327,11,19.5,11z"/>
	<path fill="#767684" d="M25.5,11h-1c-0.827,0-1.5,0.673-1.5,1.5v1c0,0.827,0.673,1.5,1.5,1.5h1c0.827,0,1.5-0.673,1.5-1.5v-1
		C27,11.673,26.327,11,25.5,11z"/>
	<path fill="#767684" d="M7.5,17h-1C5.673,17,5,17.673,5,18.5v1C5,20.327,5.673,21,6.5,21h1C8.327,21,9,20.327,9,19.5v-1
		C9,17.673,8.327,17,7.5,17z"/>
	<path fill="#767684" d="M13.5,17h-1c-0.827,0-1.5,0.673-1.5,1.5v1c0,0.827,0.673,1.5,1.5,1.5h1c0.827,0,1.5-0.673,1.5-1.5v-1
		C15,17.673,14.327,17,13.5,17z"/>
	<path fill="#767684" d="M7.5,23h-1C5.673,23,5,23.673,5,24.5v1C5,26.327,5.673,27,6.5,27h1C8.327,27,9,26.327,9,25.5v-1
		C9,23.673,8.327,23,7.5,23z"/>
	<path fill="#767684" d="M13.5,23h-1c-0.827,0-1.5,0.673-1.5,1.5v1c0,0.827,0.673,1.5,1.5,1.5h1c0.827,0,1.5-0.673,1.5-1.5v-1
		C15,23.673,14.327,23,13.5,23z"/>
	<path fill="#767684" d="M19.5,17h-1c-0.827,0-1.5,0.673-1.5,1.5v1c0,0.827,0.673,1.5,1.5,1.5h1c0.827,0,1.5-0.673,1.5-1.5v-1
		C21,17.673,20.327,17,19.5,17z"/>
</g>
<circle fill="#009BE0" cx="25" cy="25" r="7"/>
<g>
	<path fill="#FFFFFF" d="M23.5,28c-0.128,0-0.256-0.049-0.354-0.146l-2-2c-0.195-0.195-0.195-0.512,0-0.707s0.512-0.195,0.707,0
		l1.646,1.646l4.646-4.646c0.195-0.195,0.512-0.195,0.707,0s0.195,0.512,0,0.707l-5,5C23.756,27.951,23.628,28,23.5,28z"/>
</g>
</svg>
