<?xml version="1.0" encoding="utf-8"?>
<!-- Generator: Adobe Illustrator 21.0.0, SVG Export Plug-In . SVG Version: 6.00 Build 0)  -->
<svg version="1.1" id="flat" xmlns="http://www.w3.org/2000/svg" xmlns:xlink="http://www.w3.org/1999/xlink" x="0px" y="0px"
	 viewBox="0 0 32 32" enable-background="new 0 0 32 32" xml:space="preserve">
<g>
	<path fill="#E4E5ED" d="M23.854,25.146l-3-3C20.76,22.053,20.633,22,20.5,22h-3c-0.827,0-1.5,0.673-1.5,1.5v7
		c0,0.827,0.673,1.5,1.5,1.5h5c0.827,0,1.5-0.673,1.5-1.5v-5C24,25.367,23.947,25.24,23.854,25.146z"/>
	<path fill="#E4E5ED" d="M11.854,0.146C11.76,0.053,11.633,0,11.5,0h-3C7.673,0,7,0.673,7,1.5v7C7,9.327,7.673,10,8.5,10h5
		c0.827,0,1.5-0.673,1.5-1.5v-5c0-0.133-0.053-0.26-0.146-0.354L11.854,0.146z"/>
</g>
<g>
	<g>
		<path fill="#767684" d="M21.5,28h-3c-0.276,0-0.5-0.224-0.5-0.5s0.224-0.5,0.5-0.5h3c0.276,0,0.5,0.224,0.5,0.5S21.776,28,21.5,28
			z"/>
	</g>
	<g>
		<path fill="#767684" d="M21.5,30h-3c-0.276,0-0.5-0.224-0.5-0.5s0.224-0.5,0.5-0.5h3c0.276,0,0.5,0.224,0.5,0.5S21.776,30,21.5,30
			z"/>
	</g>
</g>
<g>
	<g>
		<path fill="#767684" d="M12.5,6h-3C9.224,6,9,5.776,9,5.5S9.224,5,9.5,5h3C12.776,5,13,5.224,13,5.5S12.776,6,12.5,6z"/>
	</g>
	<g>
		<path fill="#767684" d="M12.5,8h-3C9.224,8,9,7.776,9,7.5S9.224,7,9.5,7h3C12.776,7,13,7.224,13,7.5S12.776,8,12.5,8z"/>
	</g>
	<g>
		<path fill="#C3CCDB" d="M23.854,25.146l-3-3c-0.143-0.143-0.357-0.186-0.545-0.108C20.122,22.115,20,22.298,20,22.5v2
			c0,0.827,0.673,1.5,1.5,1.5h2c0.202,0,0.385-0.122,0.462-0.309C24.04,25.504,23.997,25.29,23.854,25.146z"/>
		<path fill="#C3CCDB" d="M11.854,0.146c-0.143-0.143-0.356-0.186-0.545-0.108C11.122,0.115,11,0.298,11,0.5v2
			C11,3.327,11.673,4,12.5,4h2c0.202,0,0.385-0.122,0.462-0.309c0.078-0.187,0.035-0.402-0.108-0.545L11.854,0.146z"/>
	</g>
</g>
<g>
	<path fill="#FFB000" d="M29.5,20c-0.276,0-0.5,0.224-0.5,0.5v6c0,0.276-0.224,0.5-0.5,0.5h-0.793l0.146-0.146
		c0.195-0.195,0.195-0.512,0-0.707s-0.512-0.195-0.707,0l-0.999,0.999c-0.046,0.046-0.083,0.102-0.109,0.163
		c-0.051,0.122-0.051,0.26,0,0.382c0.025,0.062,0.062,0.117,0.109,0.163l0.999,0.999C27.244,28.951,27.372,29,27.5,29
		s0.256-0.049,0.354-0.146c0.195-0.195,0.195-0.512,0-0.707L27.707,28H28.5c0.827,0,1.5-0.673,1.5-1.5v-6
		C30,20.224,29.776,20,29.5,20z"/>
	<path fill="#FFB000" d="M5.962,4.309C5.936,4.248,5.899,4.192,5.853,4.146L4.854,3.146c-0.195-0.195-0.512-0.195-0.707,0
		s-0.195,0.512,0,0.707L4.293,4H3.5C2.673,4,2,4.673,2,5.5v6C2,11.776,2.224,12,2.5,12S3,11.776,3,11.5v-6C3,5.224,3.224,5,3.5,5
		h0.793L4.146,5.146c-0.195,0.195-0.195,0.512,0,0.707C4.244,5.951,4.372,6,4.5,6s0.256-0.049,0.354-0.146l0.999-0.999
		c0.046-0.046,0.083-0.102,0.109-0.163C6.012,4.569,6.012,4.431,5.962,4.309z"/>
</g>
<g>
	<path fill="#333338" d="M12.5,16c-0.276,0-0.5,0.224-0.5,0.5c0,0.827-0.673,1.5-1.5,1.5c-0.276,0-0.5,0.224-0.5,0.5v3
		c0,0.175,0.091,0.337,0.241,0.428C10.32,21.976,10.41,22,10.5,22c0.08,0,0.159-0.019,0.232-0.057l0.198-0.104
		C12.207,21.212,13,19.933,13,18.5v-2C13,16.224,12.776,16,12.5,16z"/>
	<path fill="#009BE0" d="M13.985,31.379l-0.709-2.836c0,0,0,0,0,0c-0.224-0.897-0.921-1.594-1.819-1.818l-2.836-0.709
		C8.582,26.005,8.541,26,8.5,26h-3c-0.041,0-0.082,0.005-0.121,0.015l-2.836,0.709c-0.897,0.224-1.594,0.921-1.818,1.819
		l-0.709,2.836c-0.038,0.149-0.004,0.308,0.091,0.429C0.201,31.929,0.346,32,0.5,32h13c0.154,0,0.299-0.071,0.394-0.192
		C13.989,31.687,14.022,31.528,13.985,31.379z"/>
	<g>
		<g>
			<path fill="#F2A057" d="M8.518,24.766l-3-0.105c-0.134-0.008-0.267,0.046-0.365,0.14C5.055,24.895,5,25.024,5,25.16V26
				c0,1.103,0.897,2,2,2s2-0.897,2-2v-0.734C9,24.996,8.787,24.775,8.518,24.766z"/>
		</g>
		<g>
			<g>
				<path fill="#444449" d="M12.5,14h-7c-0.675,0-1.303,0.263-1.759,0.731c-0.368,0.358-0.608,0.812-0.7,1.31
					c-0.498,0.091-0.95,0.33-1.3,0.69C1.263,17.197,1,17.825,1,18.5c0,1.433,0.793,2.712,2.058,3.333l0.21,0.11
					C3.341,21.981,3.42,22,3.5,22c0.09,0,0.18-0.024,0.259-0.072C3.909,21.837,4,21.675,4,21.5v-2C4,19.224,4.224,19,4.5,19h6
					c1.378,0,2.5-1.122,2.5-2.5v-2C13,14.224,12.776,14,12.5,14z"/>
			</g>
		</g>
	</g>
	<path fill="#FFBE7D" d="M10.5,18h-6C3.673,18,3,18.673,3,19.5V22c0,2.206,1.794,4,4,4c1.074,0,2.078-0.419,2.82-1.174
		C10.581,24.078,11,23.074,11,22v-3.5C11,18.224,10.776,18,10.5,18z"/>
</g>
<g>
	<path fill="#333338" d="M30.5,2C30.224,2,30,2.224,30,2.5C30,3.327,29.327,4,28.5,4C28.224,4,28,4.224,28,4.5v3
		c0,0.175,0.091,0.337,0.241,0.428C28.32,7.976,28.41,8,28.5,8c0.08,0,0.159-0.019,0.232-0.057l0.198-0.104
		C30.207,7.212,31,5.933,31,4.5v-2C31,2.224,30.776,2,30.5,2z"/>
	<path fill="#009BE0" d="M31.985,17.379l-0.709-2.836c0,0,0,0,0,0c-0.224-0.897-0.921-1.594-1.819-1.818l-2.836-0.709
		C26.582,12.005,26.541,12,26.5,12h-3c-0.041,0-0.082,0.005-0.121,0.015l-2.836,0.709c-0.897,0.224-1.594,0.921-1.818,1.819
		l-0.709,2.836c-0.038,0.149-0.004,0.308,0.091,0.429C18.201,17.929,18.346,18,18.5,18h13c0.154,0,0.299-0.071,0.394-0.192
		C31.989,17.687,32.022,17.528,31.985,17.379z"/>
	<g>
		<g>
			<path fill="#F2A057" d="M26.518,10.766l-3-0.105c-0.134-0.008-0.267,0.046-0.365,0.14C23.055,10.895,23,11.024,23,11.16V12
				c0,1.103,0.897,2,2,2s2-0.897,2-2v-0.734C27,10.996,26.787,10.775,26.518,10.766z"/>
		</g>
		<g>
			<g>
				<path fill="#444449" d="M30.5,0h-7c-0.675,0-1.303,0.263-1.759,0.731c-0.368,0.358-0.608,0.812-0.7,1.31
					c-0.498,0.091-0.95,0.33-1.3,0.69C19.263,3.197,19,3.825,19,4.5c0,1.433,0.793,2.712,2.058,3.333l0.21,0.11
					C21.341,7.981,21.42,8,21.5,8c0.09,0,0.18-0.024,0.259-0.072C21.909,7.837,22,7.675,22,7.5v-2C22,5.224,22.224,5,22.5,5h6
					C29.878,5,31,3.878,31,2.5v-2C31,0.224,30.776,0,30.5,0z"/>
			</g>
		</g>
	</g>
	<path fill="#FFBE7D" d="M28.5,4h-6C21.673,4,21,4.673,21,5.5V8c0,2.206,1.794,4,4,4c1.074,0,2.078-0.419,2.82-1.174
		C28.581,10.078,29,9.074,29,8V4.5C29,4.224,28.776,4,28.5,4z"/>
</g>
</svg>
