<?xml version="1.0" encoding="utf-8"?>
<!-- Generator: Adobe Illustrator 21.0.0, SVG Export Plug-In . SVG Version: 6.00 Build 0)  -->
<svg version="1.1" id="flat" xmlns="http://www.w3.org/2000/svg" xmlns:xlink="http://www.w3.org/1999/xlink" x="0px" y="0px"
	 viewBox="0 0 32 32" enable-background="new 0 0 32 32" xml:space="preserve">
<path fill="#333338" d="M31.5,27h-31C0.224,27,0,27.224,0,27.5v3C0,31.327,0.673,32,1.5,32h29c0.827,0,1.5-0.673,1.5-1.5v-3
	C32,27.224,31.776,27,31.5,27z"/>
<g>
	<path fill="#009BE0" d="M23.456,6.693l-1.195-0.598c-0.124-0.405-0.287-0.798-0.487-1.174l0.422-1.268
		c0.12-0.355,0.029-0.741-0.236-1.008l-0.604-0.604c-0.265-0.264-0.648-0.358-1.006-0.238c0,0-0.001,0-0.001,0l-1.27,0.423
		c-0.377-0.202-0.771-0.365-1.175-0.487l-0.598-1.196C17.139,0.208,16.802,0,16.427,0h-0.854c-0.375,0-0.712,0.208-0.88,0.544
		L14.096,1.74c-0.404,0.123-0.798,0.286-1.175,0.487L11.65,1.803c-0.357-0.12-0.741-0.026-1.006,0.238L10.04,2.646
		C9.775,2.912,9.685,3.298,9.804,3.651l0.423,1.27c-0.2,0.376-0.363,0.77-0.487,1.174L8.545,6.693C8.209,6.86,8,7.197,8,7.573v0.854
		c0,0.375,0.208,0.712,0.544,0.88l1.195,0.598c0.124,0.405,0.287,0.798,0.487,1.174l-0.422,1.268
		c-0.12,0.355-0.029,0.741,0.236,1.008l0.604,0.604c0.266,0.265,0.65,0.356,1.007,0.238l1.27-0.423
		c0.377,0.202,0.771,0.365,1.175,0.487l0.598,1.196C14.861,15.792,15.198,16,15.573,16h0.854c0.375,0,0.712-0.208,0.88-0.544
		l0.598-1.196c0.404-0.123,0.798-0.286,1.175-0.487l1.271,0.424c0.357,0.12,0.741,0.026,1.006-0.238l0.604-0.604
		c0.265-0.267,0.355-0.652,0.236-1.006l-0.423-1.27c0.2-0.376,0.363-0.77,0.487-1.174l1.194-0.597C23.791,9.14,24,8.803,24,8.427
		V7.573C24,7.198,23.792,6.861,23.456,6.693z"/>
	<circle fill="#E4E5ED" cx="16" cy="8" r="4"/>
	<circle fill="#444449" cx="16" cy="8" r="1"/>
</g>
<path fill="#444449" d="M31.5,24h-31C0.224,24,0,24.224,0,24.5v3C0,28.327,0.673,29,1.5,29h29c0.827,0,1.5-0.673,1.5-1.5v-3
	C32,24.224,31.776,24,31.5,24z"/>
<path fill="#009BE0" d="M30.5,17h-7.197c-1.296,0-2.499,0.644-3.219,1.723C19.551,19.522,18.658,20,17.697,20h-3.395
	c-0.961,0-1.854-0.478-2.387-1.277C11.196,17.644,9.993,17,8.697,17H1.5C0.673,17,0,17.673,0,18.5v6C0,25.327,0.673,26,1.5,26h29
	c0.827,0,1.5-0.673,1.5-1.5v-6C32,17.673,31.327,17,30.5,17z"/>
</svg>
