<?xml version="1.0" encoding="utf-8"?>
<!-- Generator: Adobe Illustrator 21.0.0, SVG Export Plug-In . SVG Version: 6.00 Build 0)  -->
<svg version="1.1" id="flat" xmlns="http://www.w3.org/2000/svg" xmlns:xlink="http://www.w3.org/1999/xlink" x="0px" y="0px"
	 viewBox="0 0 32 32" enable-background="new 0 0 32 32" xml:space="preserve">
<g>
	<path fill="#E4E5ED" d="M18.985,0.009C15.551-0.123,12.3,1.117,9.831,3.494c-2.432,2.341-3.788,5.477-3.83,8.844l-4.908,6.871
		c-0.092,0.129-0.118,0.294-0.069,0.445c0.049,0.151,0.167,0.27,0.317,0.319L4,20.86v4.64C4,26.878,5.122,28,6.5,28H10v3.5
		c0,0.276,0.224,0.5,0.5,0.5h15c0.276,0,0.5-0.224,0.5-0.5v-9.014c3.101-2.334,4.965-6.005,4.999-9.873
		C31.06,5.917,25.67,0.263,18.985,0.009z"/>
</g>
<path fill="#FFB000" d="M22.152,8.119c-1.175-0.955-2.71-1.324-4.224-1.007c-1.976,0.412-3.526,2.034-3.857,4.036
	c-0.26,1.564,0.204,3.118,1.274,4.262C15.768,15.862,16,16.516,16,17.251V17.5c0,0.276,0.224,0.5,0.5,0.5h5
	c0.276,0,0.5-0.224,0.5-0.5v-0.399c0-0.653,0.212-1.232,0.598-1.632C23.502,14.533,24,13.301,24,12
	C24,10.488,23.326,9.073,22.152,8.119z"/>
<g>
	<path fill="#767684" d="M21.5,20h-5c-0.276,0-0.5,0.224-0.5,0.5v1c0,0.827,0.673,1.5,1.5,1.5h3c0.827,0,1.5-0.673,1.5-1.5v-1
		C22,20.224,21.776,20,21.5,20z"/>
	<g>
		<path fill="#444449" d="M21.5,17h-5c-0.827,0-1.5,0.673-1.5,1.5v1c0,0.827,0.673,1.5,1.5,1.5h5c0.827,0,1.5-0.673,1.5-1.5v-1
			C23,17.673,22.327,17,21.5,17z"/>
	</g>
	<g>
		<g>
			<g>
				<path fill="#767684" d="M22.25,6.871c-0.085,0-0.171-0.021-0.25-0.067c-0.239-0.138-0.321-0.444-0.183-0.683l0.5-0.866
					c0.137-0.24,0.443-0.32,0.683-0.183c0.239,0.138,0.321,0.444,0.183,0.683l-0.5,0.866C22.591,6.781,22.422,6.871,22.25,6.871z"/>
			</g>
		</g>
		<g>
			<g>
				<path fill="#767684" d="M12.505,16.25c-0.172,0-0.341-0.09-0.433-0.25c-0.139-0.239-0.057-0.545,0.183-0.683l0.866-0.5
					c0.239-0.139,0.545-0.057,0.683,0.183c0.139,0.239,0.057,0.545-0.183,0.683l-0.866,0.5C12.676,16.229,12.59,16.25,12.505,16.25z
					"/>
			</g>
			<g>
				<path fill="#767684" d="M24.629,9.25c-0.172,0-0.341-0.09-0.433-0.25c-0.139-0.239-0.057-0.545,0.183-0.683l0.866-0.5
					C25.483,7.679,25.79,7.76,25.928,8c0.139,0.239,0.057,0.545-0.183,0.683l-0.866,0.5C24.8,9.229,24.714,9.25,24.629,9.25z"/>
			</g>
		</g>
		<g>
			<g>
				<path fill="#767684" d="M12.5,12.5h-1c-0.276,0-0.5-0.224-0.5-0.5s0.224-0.5,0.5-0.5h1c0.276,0,0.5,0.224,0.5,0.5
					S12.776,12.5,12.5,12.5z"/>
			</g>
			<g>
				<path fill="#767684" d="M26.5,12.5h-1c-0.276,0-0.5-0.224-0.5-0.5s0.224-0.5,0.5-0.5h1c0.276,0,0.5,0.224,0.5,0.5
					S26.776,12.5,26.5,12.5z"/>
			</g>
		</g>
		<g>
			<g>
				<path fill="#767684" d="M13.371,9.25c-0.085,0-0.171-0.021-0.25-0.067l-0.866-0.5C12.016,8.545,11.934,8.239,12.072,8
					c0.138-0.239,0.443-0.32,0.683-0.183l0.866,0.5C13.86,8.455,13.942,8.761,13.804,9C13.712,9.16,13.543,9.25,13.371,9.25z"/>
			</g>
			<g>
				<path fill="#767684" d="M25.495,16.25c-0.085,0-0.171-0.021-0.25-0.067l-0.866-0.5c-0.239-0.138-0.321-0.444-0.183-0.683
					c0.138-0.239,0.444-0.32,0.683-0.183l0.866,0.5c0.239,0.138,0.321,0.444,0.183,0.683C25.836,16.16,25.667,16.25,25.495,16.25z"
					/>
			</g>
		</g>
		<g>
			<g>
				<path fill="#767684" d="M15.75,6.871c-0.172,0-0.341-0.089-0.433-0.25l-0.5-0.866C14.679,5.516,14.761,5.21,15,5.072
					c0.237-0.138,0.545-0.058,0.683,0.183l0.5,0.866C16.321,6.36,16.239,6.666,16,6.804C15.921,6.849,15.835,6.871,15.75,6.871z"/>
			</g>
		</g>
		<g>
			<g>
				<path fill="#767684" d="M19,6c-0.276,0-0.5-0.224-0.5-0.5v-1C18.5,4.224,18.724,4,19,4s0.5,0.224,0.5,0.5v1
					C19.5,5.776,19.276,6,19,6z"/>
			</g>
		</g>
	</g>
</g>
</svg>
