<?xml version="1.0" encoding="utf-8"?>
<!-- Generator: Adobe Illustrator 21.0.0, SVG Export Plug-In . SVG Version: 6.00 Build 0)  -->
<svg version="1.1" id="flat" xmlns="http://www.w3.org/2000/svg" xmlns:xlink="http://www.w3.org/1999/xlink" x="0px" y="0px"
	 viewBox="0 0 32 32" enable-background="new 0 0 32 32" xml:space="preserve">
<path fill="#E4E5ED" d="M31.5,5h-31C0.224,5,0,5.224,0,5.5v24C0,30.878,1.122,32,2.5,32h27c1.378,0,2.5-1.122,2.5-2.5v-24
	C32,5.224,31.776,5,31.5,5z"/>
<g>
	<circle fill="#009BE0" cx="6" cy="11" r="2"/>
	<path fill="#009BE0" d="M8.947,16.276l-0.724-1.447C7.968,14.318,7.454,14,6.882,14H5.118c-0.572,0-1.086,0.318-1.342,0.829
		l-0.724,1.447c-0.094,0.188-0.06,0.416,0.084,0.568C3.825,17.568,4.895,18,6,18s2.175-0.432,2.863-1.156
		C9.007,16.692,9.042,16.465,8.947,16.276z"/>
</g>
<g>
	<path fill="#444449" d="M29.5,0h-27C1.122,0,0,1.122,0,2.5v3C0,5.776,0.224,6,0.5,6h31C31.776,6,32,5.776,32,5.5v-3
		C32,1.122,30.878,0,29.5,0z"/>
	<g>
		<circle fill="#FFFFFF" cx="4" cy="3" r="1"/>
	</g>
	<g>
		<circle fill="#FFFFFF" cx="7" cy="3" r="1"/>
	</g>
	<g>
		<circle fill="#FFFFFF" cx="10" cy="3" r="1"/>
	</g>
</g>
<path fill="#009BE0" d="M27.5,8h-14C12.673,8,12,8.673,12,9.5v7c0,0.827,0.673,1.5,1.5,1.5h2.732l1.852,2.777
	C18.177,20.917,18.333,21,18.5,21s0.323-0.083,0.416-0.223L20.768,18H27.5c0.827,0,1.5-0.673,1.5-1.5v-7C29,8.673,28.327,8,27.5,8z"
	/>
<g>
	<path fill="#FFFFFF" d="M25.5,12h-7c-0.276,0-0.5-0.224-0.5-0.5s0.224-0.5,0.5-0.5h7c0.276,0,0.5,0.224,0.5,0.5S25.776,12,25.5,12z
		"/>
</g>
<g>
	<path fill="#FFFFFF" d="M16.5,12h-1c-0.276,0-0.5-0.224-0.5-0.5s0.224-0.5,0.5-0.5h1c0.276,0,0.5,0.224,0.5,0.5S16.776,12,16.5,12z
		"/>
</g>
<g>
	<path fill="#FFFFFF" d="M25.5,15h-10c-0.276,0-0.5-0.224-0.5-0.5s0.224-0.5,0.5-0.5h10c0.276,0,0.5,0.224,0.5,0.5
		S25.776,15,25.5,15z"/>
</g>
<g>
	<path fill="#444449" d="M8.5,22h-3C5.224,22,5,22.224,5,22.5v3C5,25.776,5.224,26,5.5,26h3C8.776,26,9,25.776,9,25.5v-3
		C9,22.224,8.776,22,8.5,22z"/>
	<path fill="#444449" d="M14.5,22h-3c-0.276,0-0.5,0.224-0.5,0.5v3c0,0.276,0.224,0.5,0.5,0.5h3c0.276,0,0.5-0.224,0.5-0.5v-3
		C15,22.224,14.776,22,14.5,22z"/>
	<path fill="#444449" d="M20.5,22h-3c-0.276,0-0.5,0.224-0.5,0.5v3c0,0.276,0.224,0.5,0.5,0.5h3c0.276,0,0.5-0.224,0.5-0.5v-3
		C21,22.224,20.776,22,20.5,22z"/>
	<path fill="#444449" d="M26.5,22h-3c-0.276,0-0.5,0.224-0.5,0.5v3c0,0.276,0.224,0.5,0.5,0.5h3c0.276,0,0.5-0.224,0.5-0.5v-3
		C27,22.224,26.776,22,26.5,22z"/>
</g>
<g>
	<path fill="#767684" d="M8.5,29h-3C5.224,29,5,28.776,5,28.5S5.224,28,5.5,28h3C8.776,28,9,28.224,9,28.5S8.776,29,8.5,29z"/>
</g>
<g>
	<path fill="#767684" d="M14.5,29h-3c-0.276,0-0.5-0.224-0.5-0.5s0.224-0.5,0.5-0.5h3c0.276,0,0.5,0.224,0.5,0.5S14.776,29,14.5,29z
		"/>
</g>
<g>
	<path fill="#767684" d="M20.5,29h-3c-0.276,0-0.5-0.224-0.5-0.5s0.224-0.5,0.5-0.5h3c0.276,0,0.5,0.224,0.5,0.5S20.776,29,20.5,29z
		"/>
</g>
<g>
	<path fill="#767684" d="M26.5,29h-3c-0.276,0-0.5-0.224-0.5-0.5s0.224-0.5,0.5-0.5h3c0.276,0,0.5,0.224,0.5,0.5S26.776,29,26.5,29z
		"/>
</g>
</svg>
