<?xml version="1.0" encoding="utf-8"?>
<!-- Generator: Adobe Illustrator 21.0.0, SVG Export Plug-In . SVG Version: 6.00 Build 0)  -->
<svg version="1.1" id="flat" xmlns="http://www.w3.org/2000/svg" xmlns:xlink="http://www.w3.org/1999/xlink" x="0px" y="0px"
	 viewBox="0 0 32 32" enable-background="new 0 0 32 32" xml:space="preserve">
<path fill="#E4E5ED" d="M16,6c0.276,0,0.5-0.224,0.5-0.5v-5C16.5,0.224,16.276,0,16,0H2.5C1.122,0,0,1.122,0,2.5V16
	c0,0.276,0.224,0.5,0.5,0.5h4.542C5.28,17.917,6.516,19,8,19s2.72-1.083,2.958-2.5H16c0.276,0,0.5-0.224,0.5-0.5v-5.5
	c0-0.276-0.224-0.5-0.5-0.5c-1.103,0-2-0.897-2-2S14.897,6,16,6z"/>
<path fill="#E4E5ED" d="M31.5,15.5h-4.542C26.72,14.083,25.483,13,24,13s-2.72,1.083-2.958,2.5H16c-0.276,0-0.5,0.224-0.5,0.5v5.5
	c0,0.276,0.224,0.5,0.5,0.5c1.103,0,2,0.897,2,2s-0.897,2-2,2c-0.276,0-0.5,0.224-0.5,0.5v5c0,0.276,0.224,0.5,0.5,0.5h13.5
	c1.379,0,2.5-1.122,2.5-2.5V16C32,15.724,31.776,15.5,31.5,15.5z"/>
<g>
	<path fill="#FFB000" d="M23.5,8C23.224,8,23,7.776,23,7.5v-1C23,6.224,23.224,6,23.5,6H24c0.552,0,1-0.449,1-1s-0.448-1-1-1h-1
		c-0.552,0-1,0.449-1,1c0,0.276-0.224,0.5-0.5,0.5S21,5.276,21,5c0-1.103,0.897-2,2-2h1c1.103,0,2,0.897,2,2s-0.897,2-2,2v0.5
		C24,7.776,23.776,8,23.5,8z"/>
</g>
<g>
	<circle fill="#FFB000" cx="23.5" cy="9.5" r="0.5"/>
</g>
<path fill="#009BE0" d="M16.5,21.042V16c0-0.276-0.224-0.5-0.5-0.5h-5.5c-0.276,0-0.5,0.224-0.5,0.5c0,1.103-0.897,2-2,2
	s-2-0.897-2-2c0-0.276-0.224-0.5-0.5-0.5h-5C0.224,15.5,0,15.724,0,16v13.5C0,30.878,1.122,32,2.5,32H16c0.276,0,0.5-0.224,0.5-0.5
	v-4.542C17.917,26.72,19,25.484,19,24S17.917,21.28,16.5,21.042z"/>
</svg>
