<?xml version="1.0" encoding="utf-8"?>
<!-- Generator: Adobe Illustrator 21.0.0, SVG Export Plug-In . SVG Version: 6.00 Build 0)  -->
<svg version="1.1" id="flat" xmlns="http://www.w3.org/2000/svg" xmlns:xlink="http://www.w3.org/1999/xlink" x="0px" y="0px"
	 viewBox="0 0 32 32" enable-background="new 0 0 32 32" xml:space="preserve">
<g>
	<path fill="#E4E5ED" d="M27.5,0h-23C3.122,0,2,1.122,2,2.5v17C2,19.776,2.224,20,2.5,20h27c0.276,0,0.5-0.224,0.5-0.5v-17
		C30,1.122,28.879,0,27.5,0z"/>
</g>
<g>
	<g>
		<g>
			<path fill="#333338" d="M16.5,6C16.224,6,16,6.224,16,6.5C16,7.327,15.327,8,14.5,8C14.224,8,14,8.224,14,8.5v3
				c0,0.175,0.091,0.337,0.241,0.428C14.32,11.976,14.41,12,14.5,12c0.08,0,0.159-0.019,0.232-0.057l0.198-0.104
				C16.207,11.212,17,9.933,17,8.5v-2C17,6.224,16.776,6,16.5,6z"/>
		</g>
	</g>
	<g>
		<g>
			<path fill="#009BE0" d="M17.463,19.292l-0.187-0.749c0,0,0,0,0,0c-0.224-0.897-0.921-1.594-1.819-1.818l-2.836-0.709
				C12.582,16.005,12.541,16,12.5,16h-3c-0.041,0-0.082,0.005-0.121,0.015l-2.836,0.709c-0.897,0.224-1.594,0.921-1.818,1.819
				l-0.187,0.749H17.463z"/>
		</g>
	</g>
	<g>
		<g>
			<g>
				<g>
					<path fill="#F2A057" d="M12.518,14.766l-3-0.105c-0.134-0.008-0.267,0.046-0.365,0.14C9.055,14.895,9,15.024,9,15.16V16
						c0,1.103,0.897,2,2,2s2-0.897,2-2v-0.734C13,14.996,12.787,14.775,12.518,14.766z"/>
				</g>
			</g>
		</g>
		<g>
			<g>
				<g>
					<g>
						<path fill="#444449" d="M16.5,4h-7C8.825,4,8.197,4.263,7.741,4.731c-0.368,0.358-0.608,0.812-0.7,1.31
							c-0.498,0.091-0.95,0.33-1.3,0.69C5.263,7.197,5,7.825,5,8.5c0,1.433,0.793,2.712,2.058,3.333l0.21,0.11
							C7.341,11.981,7.42,12,7.5,12c0.09,0,0.18-0.024,0.259-0.072C7.909,11.837,8,11.675,8,11.5v-2C8,9.224,8.224,9,8.5,9h6
							C15.878,9,17,7.878,17,6.5v-2C17,4.224,16.776,4,16.5,4z"/>
					</g>
				</g>
			</g>
		</g>
	</g>
	<g>
		<g>
			<path fill="#FFBE7D" d="M14.5,8h-6C7.673,8,7,8.673,7,9.5V12c0,2.206,1.794,4,4,4c1.074,0,2.078-0.419,2.82-1.174
				C14.581,14.078,15,13.074,15,12V8.5C15,8.224,14.776,8,14.5,8z"/>
		</g>
	</g>
</g>
<g>
	<path fill="#444449" d="M30.5,19h-29C0.673,19,0,19.673,0,20.5C0,22.43,1.57,24,3.5,24h25c0.934,0,1.812-0.364,2.474-1.026
		S32,21.434,32,20.5C32,19.673,31.327,19,30.5,19z"/>
</g>
<g>
	<path fill="#767684" d="M9.293,19l2.854,2.854C12.24,21.947,12.367,22,12.5,22h7c0.133,0,0.26-0.053,0.354-0.146L22.707,19
		C19.724,19,12.139,19,9.293,19z"/>
</g>
<g>
	<path fill="#767684" d="M24.5,6h-5C19.224,6,19,5.776,19,5.5S19.224,5,19.5,5h5C24.776,5,25,5.224,25,5.5S24.776,6,24.5,6z"/>
</g>
<g>
	<path fill="#767684" d="M26.5,9h-7C19.224,9,19,8.776,19,8.5S19.224,8,19.5,8h7C26.776,8,27,8.224,27,8.5S26.776,9,26.5,9z"/>
</g>
<g>
	<path fill="#767684" d="M26.5,12h-7c-0.276,0-0.5-0.224-0.5-0.5s0.224-0.5,0.5-0.5h7c0.276,0,0.5,0.224,0.5,0.5S26.776,12,26.5,12z
		"/>
</g>
<g>
	<g>
		<g>
			<path fill="#333338" d="M30.5,16c-0.276,0-0.5,0.224-0.5,0.5c0,0.827-0.673,1.5-1.5,1.5c-0.276,0-0.5,0.224-0.5,0.5v3
				c0,0.175,0.091,0.337,0.241,0.428C28.32,21.976,28.41,22,28.5,22c0.08,0,0.159-0.019,0.232-0.057l0.198-0.104
				C30.207,21.212,31,19.933,31,18.5v-2C31,16.224,30.776,16,30.5,16z"/>
		</g>
	</g>
	<g>
		<g>
			<path fill="#009BE0" d="M31.985,31.379l-0.709-2.836c0,0,0,0,0,0c-0.224-0.897-0.921-1.594-1.819-1.818l-2.836-0.709
				C26.582,26.005,26.541,26,26.5,26h-3c-0.041,0-0.082,0.005-0.121,0.015l-2.836,0.709c-0.897,0.224-1.594,0.921-1.818,1.819
				l-0.709,2.836c-0.038,0.149-0.004,0.308,0.091,0.429C18.201,31.929,18.346,32,18.5,32h13c0.154,0,0.299-0.071,0.394-0.192
				C31.989,31.687,32.022,31.528,31.985,31.379z"/>
		</g>
	</g>
	<g>
		<g>
			<g>
				<g>
					<path fill="#F2A057" d="M26.518,24.766l-3-0.105c-0.134-0.008-0.267,0.046-0.365,0.14C23.055,24.895,23,25.024,23,25.16V26
						c0,1.103,0.897,2,2,2s2-0.897,2-2v-0.734C27,24.996,26.787,24.775,26.518,24.766z"/>
				</g>
			</g>
		</g>
		<g>
			<g>
				<g>
					<g>
						<path fill="#444449" d="M30.5,14h-7c-0.675,0-1.303,0.263-1.759,0.731c-0.368,0.358-0.608,0.812-0.7,1.31
							c-0.498,0.091-0.95,0.33-1.3,0.69C19.263,17.197,19,17.825,19,18.5c0,1.433,0.793,2.712,2.058,3.333l0.21,0.11
							C21.341,21.981,21.42,22,21.5,22c0.09,0,0.18-0.024,0.259-0.072C21.909,21.837,22,21.675,22,21.5v-2
							c0-0.276,0.224-0.5,0.5-0.5h6c1.378,0,2.5-1.122,2.5-2.5v-2C31,14.224,30.776,14,30.5,14z"/>
					</g>
				</g>
			</g>
		</g>
	</g>
	<g>
		<g>
			<path fill="#FFBE7D" d="M28.5,18h-6c-0.827,0-1.5,0.673-1.5,1.5V22c0,2.206,1.794,4,4,4c1.074,0,2.078-0.419,2.82-1.174
				C28.581,24.078,29,23.074,29,22v-3.5C29,18.224,28.776,18,28.5,18z"/>
		</g>
	</g>
</g>
</svg>
