<?xml version="1.0" encoding="utf-8"?>
<!-- Generator: Adobe Illustrator 28.1.0, SVG Export Plug-In . SVG Version: 6.00 Build 0)  -->
<svg version="1.1" id="monochrome" xmlns="http://www.w3.org/2000/svg" xmlns:xlink="http://www.w3.org/1999/xlink" x="0px" y="0px"
	 viewBox="0 0 32 32" style="enable-background:new 0 0 32 32;" xml:space="preserve">
<style type="text/css">
	.st0{fill:#14ACD4;}
	.st1{fill:#09566D;}
	.st2{fill:#DFE8F5;}
	.st3{fill:#3CB4C9;}
</style>
<path class="st0" d="M27.9,14.4C27.4,9.6,23.4,6,18.5,6c-5.2,0-9.4,4.2-9.5,9.3l-3.9,5.9C5,21.4,5,21.5,5,21.7S5.2,22,5.3,22L8,22.9
	v3.6c0,1.4,1.1,2.5,2.5,2.5H12v2.5c0,0.3,0.2,0.5,0.5,0.5h12c0.3,0,0.5-0.2,0.5-0.5v-9.1C27.1,20.4,28.3,17.3,27.9,14.4z"/>
<g>
	<g>
		<g>
			<g>
				<path class="st1" d="M27.2,2.9c-0.1,0-0.2,0-0.2-0.1c-0.2-0.1-0.3-0.4-0.2-0.7l0.5-0.9C27.5,1,27.8,0.9,28,1.1
					c0.2,0.1,0.3,0.4,0.2,0.7l-0.5,0.9C27.6,2.8,27.4,2.9,27.2,2.9z"/>
			</g>
		</g>
		<g>
			<g>
				<path class="st1" d="M17.5,12.2c-0.2,0-0.3-0.1-0.4-0.2c-0.1-0.2-0.1-0.5,0.2-0.7l0.9-0.5c0.2-0.1,0.5-0.1,0.7,0.2
					c0.1,0.2,0.1,0.5-0.2,0.7l-0.9,0.5C17.7,12.2,17.6,12.2,17.5,12.2z"/>
			</g>
			<g>
				<path class="st1" d="M29.6,5.2c-0.2,0-0.3-0.1-0.4-0.2c-0.1-0.2-0.1-0.5,0.2-0.7l0.9-0.5C30.5,3.7,30.8,3.7,31,4
					c0.1,0.2,0.1,0.5-0.2,0.7l-0.9,0.5C29.8,5.2,29.7,5.2,29.6,5.2z"/>
			</g>
		</g>
		<g>
			<g>
				<path class="st1" d="M17.5,8.5h-1C16.2,8.5,16,8.3,16,8s0.2-0.5,0.5-0.5h1C17.8,7.5,18,7.7,18,8S17.8,8.5,17.5,8.5z"/>
			</g>
			<g>
				<path class="st1" d="M31.5,8.5h-1C30.2,8.5,30,8.3,30,8s0.2-0.5,0.5-0.5h1C31.8,7.5,32,7.7,32,8S31.8,8.5,31.5,8.5z"/>
			</g>
		</g>
		<g>
			<g>
				<path class="st1" d="M18.4,5.2c-0.1,0-0.2,0-0.2-0.1l-0.9-0.5C17,4.5,16.9,4.2,17.1,4s0.4-0.3,0.7-0.2l0.9,0.5
					C18.9,4.4,19,4.7,18.9,5C18.7,5.2,18.5,5.2,18.4,5.2z"/>
			</g>
			<g>
				<path class="st1" d="M30.5,12.2c-0.1,0-0.2,0-0.2-0.1l-0.9-0.5c-0.2-0.1-0.3-0.4-0.2-0.7c0.1-0.2,0.4-0.3,0.7-0.2l0.9,0.5
					c0.2,0.1,0.3,0.4,0.2,0.7C30.8,12.2,30.7,12.2,30.5,12.2z"/>
			</g>
		</g>
		<g>
			<g>
				<path class="st1" d="M20.8,2.9c-0.2,0-0.3-0.1-0.4-0.2l-0.5-0.9c-0.1-0.2-0.1-0.5,0.2-0.7C20.3,1,20.6,1,20.8,1.3l0.5,0.9
					c0.1,0.2,0.1,0.5-0.2,0.7C20.9,2.8,20.8,2.9,20.8,2.9z"/>
			</g>
		</g>
		<g>
			<g>
				<path class="st1" d="M24,2c-0.3,0-0.5-0.2-0.5-0.5v-1C23.5,0.2,23.7,0,24,0s0.5,0.2,0.5,0.5v1C24.5,1.8,24.3,2,24,2z"/>
			</g>
		</g>
	</g>
</g>
<g>
	<path class="st0" d="M8.5,1H4.7l0.1-0.1C5,0.7,5,0.3,4.9,0.1S4.3,0,4.1,0.1l-1,1c0,0-0.1,0.1-0.1,0.2c0,0.1,0,0.3,0,0.4
		s0.1,0.1,0.1,0.2l1,1C4.2,3,4.4,3,4.5,3s0.3,0,0.4-0.1C5,2.7,5,2.3,4.9,2.1L4.7,2h3.8C8.8,2,9,1.8,9,1.5S8.8,1,8.5,1z"/>
	<path class="st0" d="M10.5,2h1C11.8,2,12,1.8,12,1.5S11.8,1,11.5,1h-1C10.2,1,10,1.2,10,1.5S10.2,2,10.5,2z"/>
	<path class="st0" d="M1.7,5h3.8C5.8,5,6,4.8,6,4.5S5.8,4,5.5,4H1.7l0.1-0.1C2,3.7,2,3.3,1.9,3.1S1.3,3,1.1,3.1l-1,1
		c0,0-0.1,0.1-0.1,0.2c0,0.1,0,0.3,0,0.4s0.1,0.1,0.1,0.2l1,1C1.2,6,1.4,6,1.5,6s0.3,0,0.4-0.1C2,5.7,2,5.3,1.9,5.1L1.7,5z"/>
	<path class="st0" d="M8.5,4h-1C7.2,4,7,4.2,7,4.5S7.2,5,7.5,5h1C8.8,5,9,4.8,9,4.5S8.8,4,8.5,4z"/>
	<path class="st0" d="M8.5,7H4.7l0.1-0.1C5,6.7,5,6.3,4.9,6.1S4.3,6,4.1,6.1l-1,1c0,0-0.1,0.1-0.1,0.2c0,0.1,0,0.3,0,0.4
		s0.1,0.1,0.1,0.2l1,1C4.2,9,4.4,9,4.5,9s0.3,0,0.4-0.1C5,8.7,5,8.3,4.9,8.1L4.7,8h3.8C8.8,8,9,7.8,9,7.5S8.8,7,8.5,7z"/>
	<path class="st0" d="M11.5,7h-1C10.2,7,10,7.2,10,7.5S10.2,8,10.5,8h1C11.8,8,12,7.8,12,7.5S11.8,7,11.5,7z"/>
</g>
<g>
	<g>
		<g>
			<g>
				<path class="st1" d="M26.5,16h-5c-0.3,0-0.5,0.2-0.5,0.5v1c0,0.8,0.7,1.5,1.5,1.5h3c0.8,0,1.5-0.7,1.5-1.5v-1
					C27,16.2,26.8,16,26.5,16z"/>
			</g>
			<g>
				<path class="st2" d="M27.2,4.1c-1.2-1-2.7-1.3-4.2-1c-2,0.4-3.5,2-3.9,4c-0.3,1.6,0.2,3.1,1.3,4.3c0.4,0.5,0.7,1.1,0.7,1.8v0.2
					c0,0.3,0.2,0.5,0.5,0.5h5c0.3,0,0.5-0.2,0.5-0.5V13c0-0.7,0.2-1.2,0.6-1.6C28.5,10.5,29,9.3,29,8C29,6.5,28.3,5.1,27.2,4.1z"/>
			</g>
		</g>
	</g>
	<g>
		<path class="st3" d="M26.5,13h-5c-0.8,0-1.5,0.7-1.5,1.5v1c0,0.8,0.7,1.5,1.5,1.5h5c0.8,0,1.5-0.7,1.5-1.5v-1
			C28,13.7,27.3,13,26.5,13z"/>
	</g>
</g>
</svg>
