<?xml version="1.0" encoding="utf-8"?>
<!-- Generator: Adobe Illustrator 28.1.0, SVG Export Plug-In . SVG Version: 6.00 Build 0)  -->
<svg version="1.1" id="monochrome" xmlns="http://www.w3.org/2000/svg" xmlns:xlink="http://www.w3.org/1999/xlink" x="0px" y="0px"
	 viewBox="0 0 32 32" style="enable-background:new 0 0 32 32;" xml:space="preserve">
<style type="text/css">
	.st0{fill:#DFE8F5;}
	.st1{fill:#14ACD4;}
	.st2{fill:#09566D;}
</style>
<g>
	<g>
		<path class="st0" d="M29,24V7.5C29,7.2,28.8,7,28.5,7h-25C3.2,7,3,7.2,3,7.5V24c-1.7,0.2-3,1.7-3,3.5C0,29.4,1.6,31,3.5,31h25
			c1.9,0,3.5-1.6,3.5-3.5C32,25.7,30.7,24.3,29,24z"/>
	</g>
	<g>
		<g>
			<g>
				<path class="st1" d="M28.5,1C28.2,1,28,1.2,28,1.5v23c0,0.3,0.2,0.5,0.5,0.5c1.4,0,2.5,1.1,2.5,2.5c0,0.3,0.2,0.5,0.5,0.5
					s0.5-0.2,0.5-0.5v-23C32,2.6,30.4,1,28.5,1z"/>
			</g>
			<g>
				<path class="st1" d="M3.5,1C1.6,1,0,2.6,0,4.5v23C0,27.8,0.2,28,0.5,28S1,27.8,1,27.5C1,26.1,2.1,25,3.5,25
					C3.8,25,4,24.8,4,24.5v-23C4,1.2,3.8,1,3.5,1z"/>
			</g>
		</g>
	</g>
</g>
<g>
	<path class="st1" d="M10.5,24C8,24,6,22,6,19.5S8,15,10.5,15s4.5,2,4.5,4.5S13,24,10.5,24z M10.5,16C8.6,16,7,17.6,7,19.5
		S8.6,23,10.5,23s3.5-1.6,3.5-3.5S12.4,16,10.5,16z"/>
</g>
<g>
	<path class="st1" d="M25.5,27h-9c-0.3,0-0.5-0.2-0.5-0.5v-9c0-0.3,0.2-0.5,0.5-0.5h9c0.3,0,0.5,0.2,0.5,0.5v9
		C26,26.8,25.8,27,25.5,27z M17,26h8v-8h-8V26z"/>
</g>
<g>
	<path class="st2" d="M8.5,28h-2C6.2,28,6,27.8,6,27.5v-2C6,25.2,6.2,25,6.5,25S7,25.2,7,25.5V27h1.5C8.8,27,9,27.2,9,27.5
		S8.8,28,8.5,28z"/>
</g>
<g>
	<path class="st2" d="M25.5,13c-0.3,0-0.5-0.2-0.5-0.5V11h-1.5c-0.3,0-0.5-0.2-0.5-0.5s0.2-0.5,0.5-0.5h2c0.3,0,0.5,0.2,0.5,0.5v2
		C26,12.8,25.8,13,25.5,13z"/>
</g>
<g>
	<path class="st1" d="M20.5,20h-10c-0.2,0-0.4-0.1-0.4-0.3c-0.1-0.2-0.1-0.4,0-0.5l5-8c0.2-0.3,0.7-0.3,0.8,0l5,8
		c0.1,0.2,0.1,0.3,0,0.5C20.9,19.9,20.7,20,20.5,20z M11.4,19h8.2l-4.1-6.6L11.4,19z"/>
</g>
</svg>
