<?xml version="1.0" encoding="utf-8"?>
<!-- Generator: Adobe Illustrator 28.1.0, SVG Export Plug-In . SVG Version: 6.00 Build 0)  -->
<svg version="1.1" id="monochrome" xmlns="http://www.w3.org/2000/svg" xmlns:xlink="http://www.w3.org/1999/xlink" x="0px" y="0px"
	 viewBox="0 0 32 32" style="enable-background:new 0 0 32 32;" xml:space="preserve">
<style type="text/css">
	.st0{fill:#DFE8F5;}
	.st1{fill:#14ACD4;}
	.st2{fill:#FFFFFF;}
	.st3{fill:#A6D3F4;}
</style>
<path class="st0" d="M31.5,5h-31C0.2,5,0,5.2,0,5.5v24C0,30.9,1.1,32,2.5,32h27c1.4,0,2.5-1.1,2.5-2.5v-24C32,5.2,31.8,5,31.5,5z"/>
<g>
	<path class="st1" d="M29.5,0h-27C1.1,0,0,1.1,0,2.5v3C0,5.8,0.2,6,0.5,6h31C31.8,6,32,5.8,32,5.5v-3C32,1.1,30.9,0,29.5,0z"/>
	<g>
		<circle class="st2" cx="4" cy="3" r="1"/>
	</g>
	<g>
		<circle class="st2" cx="7" cy="3" r="1"/>
	</g>
	<g>
		<circle class="st2" cx="10" cy="3" r="1"/>
	</g>
</g>
<path class="st3" d="M9,8C8.7,8,8.5,8.2,8.5,8.5V14c0,0.1,0.1,0.3,0.1,0.4l3.9,3.9c0.1,0.1,0.2,0.1,0.4,0.1s0.3-0.1,0.4-0.1
	c1.1-1.1,1.8-2.6,1.8-4.2C15,10.7,12.3,8,9,8z"/>
<path class="st1" d="M13.2,17.5l-3.7-3.7V8.5C9.5,8.2,9.3,8,9,8c-3.3,0-6,2.7-6,6s2.7,6,6,6c1.6,0,3.1-0.6,4.2-1.8
	c0.1-0.1,0.1-0.2,0.1-0.4S13.3,17.6,13.2,17.5z"/>
<g>
	<path class="st1" d="M25.5,11h-3c-0.3,0-0.5-0.2-0.5-0.5s0.2-0.5,0.5-0.5h3c0.3,0,0.5,0.2,0.5,0.5S25.8,11,25.5,11z"/>
</g>
<g>
	<path class="st1" d="M25.5,18h-3c-0.3,0-0.5-0.2-0.5-0.5s0.2-0.5,0.5-0.5h3c0.3,0,0.5,0.2,0.5,0.5S25.8,18,25.5,18z"/>
</g>
<g>
	<path class="st1" d="M28.5,13h-6c-0.3,0-0.5-0.2-0.5-0.5s0.2-0.5,0.5-0.5h6c0.3,0,0.5,0.2,0.5,0.5S28.8,13,28.5,13z"/>
</g>
<g>
	<path class="st1" d="M28.5,16h-6c-0.3,0-0.5-0.2-0.5-0.5s0.2-0.5,0.5-0.5h6c0.3,0,0.5,0.2,0.5,0.5S28.8,16,28.5,16z"/>
</g>
<g>
	<path class="st1" d="M19.5,10h-2c-0.3,0-0.5,0.2-0.5,0.5v2c0,0.3,0.2,0.5,0.5,0.5h2c0.3,0,0.5-0.2,0.5-0.5v-2
		C20,10.2,19.8,10,19.5,10z"/>
	<path class="st1" d="M19.5,15h-2c-0.3,0-0.5,0.2-0.5,0.5v2c0,0.3,0.2,0.5,0.5,0.5h2c0.3,0,0.5-0.2,0.5-0.5v-2
		C20,15.2,19.8,15,19.5,15z"/>
	<path class="st1" d="M9.5,24h-3C5.7,24,5,24.7,5,25.5v2C5,28.3,5.7,29,6.5,29h3c0.8,0,1.5-0.7,1.5-1.5v-2C11,24.7,10.3,24,9.5,24z"
		/>
	<path class="st1" d="M25.5,24h-3c-0.8,0-1.5,0.7-1.5,1.5v2c0,0.8,0.7,1.5,1.5,1.5h3c0.8,0,1.5-0.7,1.5-1.5v-2
		C27,24.7,26.3,24,25.5,24z"/>
	<path class="st1" d="M17.5,24h-3c-0.8,0-1.5,0.7-1.5,1.5v2c0,0.8,0.7,1.5,1.5,1.5h3c0.8,0,1.5-0.7,1.5-1.5v-2
		C19,24.7,18.3,24,17.5,24z"/>
</g>
<g>
	<path class="st1" d="M9.5,23h-3C6.2,23,6,22.8,6,22.5S6.2,22,6.5,22h3c0.3,0,0.5,0.2,0.5,0.5S9.8,23,9.5,23z"/>
</g>
<g>
	<path class="st1" d="M17.5,23h-3c-0.3,0-0.5-0.2-0.5-0.5s0.2-0.5,0.5-0.5h3c0.3,0,0.5,0.2,0.5,0.5S17.8,23,17.5,23z"/>
</g>
<g>
	<path class="st1" d="M25.5,23h-3c-0.3,0-0.5-0.2-0.5-0.5s0.2-0.5,0.5-0.5h3c0.3,0,0.5,0.2,0.5,0.5S25.8,23,25.5,23z"/>
</g>
</svg>
