<?xml version="1.0" encoding="utf-8"?>
<!-- Generator: Adobe Illustrator 28.1.0, SVG Export Plug-In . SVG Version: 6.00 Build 0)  -->
<svg version="1.1" id="monochrome" xmlns="http://www.w3.org/2000/svg" xmlns:xlink="http://www.w3.org/1999/xlink" x="0px" y="0px"
	 viewBox="0 0 32 32" style="enable-background:new 0 0 32 32;" xml:space="preserve">
<style type="text/css">
	.st0{fill:#3CB4C9;}
	.st1{fill:#DFE8F5;}
	.st2{fill:#14ACD4;}
	.st3{fill:#FFFFFF;}
	.st4{fill:#09566D;}
</style>
<g>
	<g>
		<g>
			<path class="st0" d="M21.5,4h-19C1.1,4,0,5.1,0,6.5v23C0,30.9,1.1,32,2.5,32h19c1.4,0,2.5-1.1,2.5-2.5v-23C24,5.1,22.9,4,21.5,4z
				"/>
		</g>
	</g>
	<g>
		<g>
			<path class="st1" d="M20.5,7h-17C3.2,7,3,7.2,3,7.5v21C3,28.8,3.2,29,3.5,29h17c0.3,0,0.5-0.2,0.5-0.5v-21C21,7.2,20.8,7,20.5,7z
				"/>
		</g>
	</g>
	<g>
		<g>
			<path class="st2" d="M15.5,2h-0.7c-0.4-1.2-1.5-2-2.8-2S9.6,0.8,9.2,2H8.5C7.7,2,7,2.7,7,3.5v1C7,5.3,7.7,6,8.5,6h7
				C16.3,6,17,5.3,17,4.5v-1C17,2.7,16.3,2,15.5,2z"/>
		</g>
	</g>
	<g>
		<g>
			<circle class="st3" cx="12" cy="3" r="1"/>
		</g>
	</g>
</g>
<g>
	<path class="st2" d="M14.5,9h-5C9.2,9,9,8.8,9,8.5S9.2,8,9.5,8h5C14.8,8,15,8.2,15,8.5S14.8,9,14.5,9z"/>
</g>
<g>
	<path class="st2" d="M16.5,11h-9C7.2,11,7,10.8,7,10.5S7.2,10,7.5,10h9c0.3,0,0.5,0.2,0.5,0.5S16.8,11,16.5,11z"/>
</g>
<g>
	<path class="st4" d="M6.5,17c-0.1,0-0.3,0-0.4-0.1l-1-1c-0.2-0.2-0.2-0.5,0-0.7s0.5-0.2,0.7,0l0.6,0.6l1.6-1.6
		c0.2-0.2,0.5-0.2,0.7,0s0.2,0.5,0,0.7l-2,2C6.8,17,6.6,17,6.5,17z"/>
</g>
<g>
	<path class="st4" d="M6.5,22c-0.1,0-0.3,0-0.4-0.1l-1-1c-0.2-0.2-0.2-0.5,0-0.7s0.5-0.2,0.7,0l0.6,0.6l1.6-1.6
		c0.2-0.2,0.5-0.2,0.7,0s0.2,0.5,0,0.7l-2,2C6.8,22,6.6,22,6.5,22z"/>
</g>
<g>
	<path class="st4" d="M6.5,27c-0.1,0-0.3,0-0.4-0.1l-1-1c-0.2-0.2-0.2-0.5,0-0.7s0.5-0.2,0.7,0l0.6,0.6l1.6-1.6
		c0.2-0.2,0.5-0.2,0.7,0s0.2,0.5,0,0.7l-2,2C6.8,27,6.6,27,6.5,27z"/>
</g>
<g>
	<path class="st2" d="M14.5,15h-3c-0.3,0-0.5-0.2-0.5-0.5s0.2-0.5,0.5-0.5h3c0.3,0,0.5,0.2,0.5,0.5S14.8,15,14.5,15z"/>
</g>
<g>
	<path class="st2" d="M18.5,17h-7c-0.3,0-0.5-0.2-0.5-0.5s0.2-0.5,0.5-0.5h7c0.3,0,0.5,0.2,0.5,0.5S18.8,17,18.5,17z"/>
</g>
<g>
	<path class="st2" d="M14.5,20h-3c-0.3,0-0.5-0.2-0.5-0.5s0.2-0.5,0.5-0.5h3c0.3,0,0.5,0.2,0.5,0.5S14.8,20,14.5,20z"/>
</g>
<g>
	<path class="st2" d="M18.5,22h-7c-0.3,0-0.5-0.2-0.5-0.5s0.2-0.5,0.5-0.5h7c0.3,0,0.5,0.2,0.5,0.5S18.8,22,18.5,22z"/>
</g>
<g>
	<path class="st2" d="M14.5,25h-3c-0.3,0-0.5-0.2-0.5-0.5s0.2-0.5,0.5-0.5h3c0.3,0,0.5,0.2,0.5,0.5S14.8,25,14.5,25z"/>
</g>
<g>
	<path class="st2" d="M18.5,27h-7c-0.3,0-0.5-0.2-0.5-0.5s0.2-0.5,0.5-0.5h7c0.3,0,0.5,0.2,0.5,0.5S18.8,27,18.5,27z"/>
</g>
<g>
	<path class="st1" d="M29,4c-1.6,0-3,1.3-3,3v18.5h6V7C32,5.3,30.6,4,29,4z"/>
	<path class="st4" d="M32,25.5v0.8c0,2.2-1,4.2-2.7,5.6C29.2,32,29.1,32,29,32s-0.2,0-0.3-0.1C27,30.5,26,28.5,26,26.3v-0.8
		c0-0.3,0.2-0.5,0.5-0.5h5C31.8,25,32,25.2,32,25.5z"/>
</g>
</svg>
