<?xml version="1.0" encoding="utf-8"?>
<!-- Generator: Adobe Illustrator 28.1.0, SVG Export Plug-In . SVG Version: 6.00 Build 0)  -->
<svg version="1.1" id="monochrome" xmlns="http://www.w3.org/2000/svg" xmlns:xlink="http://www.w3.org/1999/xlink" x="0px" y="0px"
	 viewBox="0 0 32 32" style="enable-background:new 0 0 32 32;" xml:space="preserve">
<style type="text/css">
	.st0{fill:#09566D;}
	.st1{fill:#DFE8F5;}
	.st2{fill:#14ACD4;}
</style>
<path class="st0" d="M16,29c-0.3,0-0.5-0.2-0.5-0.5v-2c0-0.3,0.2-0.5,0.5-0.5c0.3,0,0.5,0.2,0.5,0.5v2C16.5,28.8,16.3,29,16,29z"/>
<path class="st0" d="M16,0c-1.1,0-2,0.9-2,2v0.5C14,2.8,14.2,3,14.5,3h3C17.8,3,18,2.8,18,2.5V2C18,0.9,17.1,0,16,0z"/>
<path class="st1" d="M30.5,5h-29C1.2,5,1,5.2,1,5.5v21C1,26.8,1.2,27,1.5,27h29c0.3,0,0.5-0.2,0.5-0.5v-21C31,5.2,30.8,5,30.5,5z"/>
<g>
	<path class="st2" d="M31.5,27h-31C0.2,27,0,26.8,0,26.5S0.2,26,0.5,26h31c0.3,0,0.5,0.2,0.5,0.5S31.8,27,31.5,27z"/>
</g>
<path class="st2" d="M29.5,2h-27C1.1,2,0,3.1,0,4.5v1C0,5.8,0.2,6,0.5,6h31C31.8,6,32,5.8,32,5.5v-1C32,3.1,30.9,2,29.5,2z"/>
<g>
	<path class="st2" d="M17.9,14.1c-0.2-0.2-0.5-0.2-0.7,0L16,15.3l-1.1-1.1c-0.2-0.2-0.5-0.2-0.7,0s-0.2,0.5,0,0.7l1.1,1.1l-1.1,1.1
		c-0.2,0.2-0.2,0.5,0,0.7c0.1,0.1,0.2,0.1,0.4,0.1s0.3,0,0.4-0.1l1.1-1.1l1.1,1.1c0.1,0.1,0.2,0.1,0.4,0.1s0.3,0,0.4-0.1
		c0.2-0.2,0.2-0.5,0-0.7L16.7,16l1.1-1.1C18,14.7,18,14.3,17.9,14.1z"/>
	<path class="st2" d="M22.7,22l1.1-1.1c0.2-0.2,0.2-0.5,0-0.7s-0.5-0.2-0.7,0L22,21.3l-1.1-1.1c-0.2-0.2-0.5-0.2-0.7,0
		s-0.2,0.5,0,0.7l1.1,1.1l-1.1,1.1c-0.2,0.2-0.2,0.5,0,0.7c0.1,0.1,0.2,0.1,0.4,0.1s0.3,0,0.4-0.1l1.1-1.1l1.1,1.1
		c0.1,0.1,0.2,0.1,0.4,0.1s0.3,0,0.4-0.1c0.2-0.2,0.2-0.5,0-0.7L22.7,22z"/>
	<path class="st2" d="M11.9,8.1c-0.2-0.2-0.5-0.2-0.7,0L10,9.3L8.9,8.1C8.7,8,8.3,8,8.1,8.1C8,8.3,8,8.7,8.1,8.9L9.3,10l-1.1,1.1
		c-0.2,0.2-0.2,0.5,0,0.7C8.2,12,8.4,12,8.5,12s0.3,0,0.4-0.1l1.1-1.1l1.1,1.1c0.1,0.1,0.2,0.1,0.4,0.1s0.3,0,0.4-0.1
		c0.2-0.2,0.2-0.5,0-0.7L10.7,10l1.1-1.1C12,8.7,12,8.3,11.9,8.1z"/>
</g>
<g>
	<g>
		<path class="st0" d="M22,12.5c-0.2,0-0.4-0.2-0.5-0.4c0-0.1-0.1-0.3-0.1-0.4c-0.1-0.3,0-0.5,0.3-0.7c0.3-0.1,0.5,0,0.7,0.3
			c0.1,0.2,0.1,0.4,0.2,0.6c0.1,0.3-0.1,0.5-0.4,0.6C22.1,12.5,22,12.5,22,12.5z"/>
	</g>
	<g>
		<path class="st0" d="M13.8,22.5c-0.2,0-0.4-0.2-0.5-0.4c-0.1-0.3,0.1-0.5,0.4-0.6c0.3-0.1,0.6-0.1,0.8-0.2
			c0.3-0.1,0.5,0.1,0.6,0.3s-0.1,0.5-0.3,0.6C14.6,22.3,14.2,22.4,13.8,22.5C13.9,22.5,13.9,22.5,13.8,22.5z M16.4,21.5
			c-0.2,0-0.3-0.1-0.4-0.2c-0.1-0.2-0.1-0.5,0.2-0.7c0.3-0.1,0.5-0.3,0.8-0.5c0.2-0.2,0.5-0.1,0.7,0.1c0.2,0.2,0.1,0.5-0.1,0.7
			c-0.3,0.2-0.5,0.4-0.8,0.5C16.6,21.5,16.5,21.5,16.4,21.5z M18.7,19.8c-0.1,0-0.3-0.1-0.4-0.2c-0.2-0.2-0.2-0.5,0-0.7
			c0.1-0.1,0.2-0.2,0.3-0.3c0.1-0.1,0.2-0.2,0.3-0.3c0.2-0.2,0.5-0.2,0.7,0c0.2,0.2,0.2,0.5,0,0.7c-0.1,0.1-0.2,0.2-0.3,0.4
			c-0.1,0.1-0.2,0.2-0.3,0.3C18.9,19.8,18.8,19.8,18.7,19.8z M20.5,17.7c-0.1,0-0.2,0-0.3-0.1c-0.2-0.2-0.3-0.5-0.1-0.7
			c0.2-0.2,0.3-0.5,0.5-0.8c0.1-0.2,0.4-0.3,0.7-0.2c0.2,0.1,0.3,0.4,0.2,0.7c-0.2,0.3-0.3,0.6-0.5,0.8
			C20.8,17.6,20.7,17.7,20.5,17.7z M21.8,15.2c-0.1,0-0.1,0-0.2,0c-0.3-0.1-0.4-0.4-0.3-0.6c0.1-0.3,0.2-0.6,0.2-0.8
			c0-0.3,0.3-0.4,0.6-0.4c0.3,0.1,0.5,0.3,0.4,0.6c-0.1,0.3-0.1,0.6-0.3,1C22.2,15.1,22,15.2,21.8,15.2z"/>
	</g>
	<g>
		<path class="st0" d="M12,22.5c0,0-0.1,0-0.1,0c-0.2,0-0.4-0.1-0.6-0.2c-0.3-0.1-0.4-0.4-0.3-0.7c0.1-0.3,0.4-0.4,0.7-0.3
			c0.1,0.1,0.3,0.1,0.4,0.1c0.3,0.1,0.4,0.3,0.4,0.6C12.4,22.3,12.2,22.5,12,22.5z"/>
	</g>
</g>
<g>
	<g>
		<path class="st0" d="M10.2,21c-0.2,0-0.4-0.1-0.5-0.3c-0.1-0.2-0.1-0.4-0.2-0.6c-0.1-0.3,0.1-0.5,0.4-0.6c0.3-0.1,0.5,0.1,0.6,0.4
			c0,0.1,0.1,0.3,0.1,0.4c0.1,0.3,0,0.5-0.3,0.7C10.3,21,10.2,21,10.2,21z"/>
	</g>
	<g>
		<path class="st0" d="M10,18.7C10,18.7,9.9,18.7,10,18.7c-0.4-0.1-0.5-0.3-0.5-0.6c0.1-0.3,0.1-0.6,0.3-1c0.1-0.3,0.4-0.4,0.6-0.3
			c0.3,0.1,0.4,0.4,0.3,0.6c-0.1,0.3-0.2,0.6-0.2,0.8C10.4,18.5,10.2,18.7,10,18.7z M11,16.1c-0.1,0-0.2,0-0.2-0.1
			c-0.2-0.1-0.3-0.4-0.2-0.7c0.2-0.3,0.3-0.6,0.5-0.8c0.2-0.2,0.5-0.3,0.7-0.1c0.2,0.2,0.3,0.5,0.1,0.7c-0.2,0.2-0.3,0.5-0.5,0.8
			C11.3,16,11.2,16.1,11,16.1z M12.7,13.8c-0.1,0-0.2,0-0.3-0.1c-0.2-0.2-0.2-0.5,0-0.7c0.1-0.1,0.2-0.2,0.3-0.4
			c0.1-0.1,0.2-0.2,0.3-0.3c0.2-0.2,0.5-0.2,0.7,0s0.2,0.5,0,0.7c-0.1,0.1-0.2,0.2-0.3,0.3c-0.1,0.1-0.2,0.2-0.3,0.3
			C12.9,13.8,12.8,13.8,12.7,13.8z M14.8,12c-0.2,0-0.3-0.1-0.4-0.2c-0.2-0.2-0.1-0.5,0.1-0.7c0.3-0.2,0.5-0.4,0.8-0.5
			c0.2-0.1,0.5-0.1,0.7,0.2c0.1,0.2,0.1,0.5-0.2,0.7c-0.3,0.1-0.5,0.3-0.8,0.5C15,12,14.9,12,14.8,12z M17.3,10.7
			c-0.2,0-0.4-0.1-0.5-0.3c-0.1-0.3,0.1-0.5,0.3-0.6c0.3-0.1,0.7-0.2,1-0.3c0.3,0,0.5,0.1,0.6,0.4c0.1,0.3-0.1,0.5-0.4,0.6
			c-0.3,0.1-0.6,0.1-0.8,0.2C17.4,10.7,17.3,10.7,17.3,10.7z"/>
	</g>
	<g>
		<path class="st0" d="M20.5,10.7c-0.1,0-0.1,0-0.2,0c-0.1-0.1-0.3-0.1-0.4-0.1c-0.3-0.1-0.4-0.3-0.4-0.6s0.3-0.4,0.6-0.4
			c0.2,0,0.4,0.1,0.6,0.2c0.3,0.1,0.4,0.4,0.3,0.7C20.9,10.6,20.7,10.7,20.5,10.7z"/>
	</g>
</g>
<g>
	<path class="st2" d="M22,12c-1.1,0-2-0.9-2-2s0.9-2,2-2s2,0.9,2,2S23.1,12,22,12z M22,9c-0.6,0-1,0.4-1,1s0.4,1,1,1s1-0.4,1-1
		S22.6,9,22,9z"/>
</g>
<g>
	<path class="st2" d="M10,24c-1.1,0-2-0.9-2-2s0.9-2,2-2s2,0.9,2,2S11.1,24,10,24z M10,21c-0.6,0-1,0.4-1,1s0.4,1,1,1s1-0.4,1-1
		S10.6,21,10,21z"/>
</g>
<circle class="st2" cx="16" cy="30" r="2"/>
</svg>
