<?xml version="1.0" encoding="utf-8"?>
<!-- Generator: Adobe Illustrator 21.0.0, SVG Export Plug-In . SVG Version: 6.00 Build 0)  -->
<svg version="1.1" id="monochrome" xmlns="http://www.w3.org/2000/svg" xmlns:xlink="http://www.w3.org/1999/xlink" x="0px" y="0px"
	 viewBox="0 0 32 32" enable-background="new 0 0 32 32" xml:space="preserve">
<path fill="#DFE8F5" d="M29,24.036V7.5C29,7.224,28.776,7,28.5,7h-25C3.224,7,3,7.224,3,7.5v16.536C1.306,24.279,0,25.74,0,27.5
	C0,29.43,1.57,31,3.5,31h25c1.93,0,3.5-1.57,3.5-3.5C32,25.74,30.694,24.279,29,24.036z"/>
<g>
	<g>
		<path fill="#0D66D1" d="M28.5,1C28.224,1,28,1.224,28,1.5v23c0,0.276,0.224,0.5,0.5,0.5c1.379,0,2.5,1.122,2.5,2.5
			c0,0.276,0.224,0.5,0.5,0.5s0.5-0.224,0.5-0.5v-23C32,2.57,30.43,1,28.5,1z"/>
		<path fill="#0D66D1" d="M3.5,1C1.57,1,0,2.57,0,4.5v23C0,27.776,0.224,28,0.5,28S1,27.776,1,27.5C1,26.122,2.121,25,3.5,25
			C3.776,25,4,24.776,4,24.5v-23C4,1.224,3.776,1,3.5,1z"/>
	</g>
</g>
<g>
	<g>
		<g>
			<path fill="#328EFC" d="M18.5,22h-9C9.224,22,9,21.776,9,21.5v-9C9,12.224,9.224,12,9.5,12h9c0.276,0,0.5,0.224,0.5,0.5v9
				C19,21.776,18.776,22,18.5,22z M10,21h8v-8h-8V21z"/>
		</g>
		<g>
			<path fill="#328EFC" d="M18,26c-2.757,0-5-2.243-5-5s2.243-5,5-5s5,2.243,5,5S20.757,26,18,26z M18,17c-2.206,0-4,1.794-4,4
				s1.794,4,4,4s4-1.794,4-4S20.206,17,18,17z"/>
		</g>
	</g>
	<g>
		<path fill="#0D66D1" d="M24.5,13c-0.276,0-0.5-0.224-0.5-0.5V11h-1.5c-0.276,0-0.5-0.224-0.5-0.5s0.224-0.5,0.5-0.5h2
			c0.276,0,0.5,0.224,0.5,0.5v2C25,12.776,24.776,13,24.5,13z"/>
	</g>
	<g>
		<path fill="#0D66D1" d="M9.5,28h-2C7.224,28,7,27.776,7,27.5v-2C7,25.224,7.224,25,7.5,25S8,25.224,8,25.5V27h1.5
			c0.276,0,0.5,0.224,0.5,0.5S9.776,28,9.5,28z"/>
	</g>
	<g>
		<path fill="#0D66D1" d="M7.5,13C7.224,13,7,12.776,7,12.5v-2C7,10.224,7.224,10,7.5,10h2c0.276,0,0.5,0.224,0.5,0.5
			S9.776,11,9.5,11H8v1.5C8,12.776,7.776,13,7.5,13z"/>
	</g>
	<g>
		<path fill="#0D66D1" d="M24.5,28h-2c-0.276,0-0.5-0.224-0.5-0.5s0.224-0.5,0.5-0.5H24v-1.5c0-0.276,0.224-0.5,0.5-0.5
			s0.5,0.224,0.5,0.5v2C25,27.776,24.776,28,24.5,28z"/>
	</g>
</g>
</svg>
