<?xml version="1.0" encoding="utf-8"?>
<!-- Generator: Adobe Illustrator 21.0.0, SVG Export Plug-In . SVG Version: 6.00 Build 0)  -->
<svg version="1.1" id="monochrome" xmlns="http://www.w3.org/2000/svg" xmlns:xlink="http://www.w3.org/1999/xlink" x="0px" y="0px"
	 viewBox="0 0 32 32" enable-background="new 0 0 32 32" xml:space="preserve">
<g>
	<path fill="#DFE8F5" d="M31.5,5h-31C0.224,5,0,5.224,0,5.5v24C0,30.878,1.122,32,2.5,32h27c1.379,0,2.5-1.122,2.5-2.5v-24
		C32,5.224,31.776,5,31.5,5z"/>
	<path fill="#328EFC" d="M29.5,0h-27C1.122,0,0,1.122,0,2.5v3C0,5.776,0.224,6,0.5,6h31C31.776,6,32,5.776,32,5.5v-3
		C32,1.122,30.879,0,29.5,0z"/>
	<g>
		<circle fill="#FFFFFF" cx="4" cy="3" r="1"/>
	</g>
	<g>
		<circle fill="#FFFFFF" cx="7" cy="3" r="1"/>
	</g>
	<g>
		<circle fill="#FFFFFF" cx="10" cy="3" r="1"/>
	</g>
</g>
<g>
	<g>
		<path fill="#328EFC" d="M14.5,16h-3c-0.276,0-0.5,0.224-0.5,0.5v7c0,0.276,0.224,0.5,0.5,0.5h3c0.276,0,0.5-0.224,0.5-0.5v-7
			C15,16.224,14.776,16,14.5,16z"/>
		<path fill="#328EFC" d="M8.5,20h-3C5.224,20,5,20.224,5,20.5v3C5,23.776,5.224,24,5.5,24h3C8.776,24,9,23.776,9,23.5v-3
			C9,20.224,8.776,20,8.5,20z"/>
		<path fill="#328EFC" d="M26.5,12h-3c-0.276,0-0.5,0.224-0.5,0.5v11c0,0.276,0.224,0.5,0.5,0.5h3c0.276,0,0.5-0.224,0.5-0.5v-11
			C27,12.224,26.776,12,26.5,12z"/>
		<path fill="#328EFC" d="M20.5,19h-3c-0.276,0-0.5,0.224-0.5,0.5v4c0,0.276,0.224,0.5,0.5,0.5h3c0.276,0,0.5-0.224,0.5-0.5v-4
			C21,19.224,20.776,19,20.5,19z"/>
	</g>
	<g>
		<path fill="#0D66D1" d="M7,16c-0.162,0-0.32-0.078-0.417-0.223c-0.153-0.23-0.091-0.54,0.139-0.693l3.62-2.414
			c1.616-1.079,3.7-1.208,5.439-0.338c1.819,0.91,4.018,0.466,5.342-1.079l3.496-4.078c0.182-0.21,0.497-0.234,0.705-0.054
			c0.21,0.18,0.234,0.495,0.055,0.705l-3.496,4.078c-1.623,1.896-4.317,2.438-6.549,1.323c-1.418-0.709-3.118-0.603-4.437,0.276
			l-3.62,2.414C7.192,15.973,7.096,16,7,16z"/>
	</g>
</g>
<g>
	<path fill="#0D66D1" d="M6.5,26h-2C4.224,26,4,25.776,4,25.5S4.224,25,4.5,25h2C6.776,25,7,25.224,7,25.5S6.776,26,6.5,26z"/>
</g>
<g>
	<path fill="#0D66D1" d="M27.5,26h-18C9.224,26,9,25.776,9,25.5S9.224,25,9.5,25h18c0.276,0,0.5,0.224,0.5,0.5S27.776,26,27.5,26z"
		/>
</g>
<g>
	<path fill="#0D66D1" d="M27.5,29h-18C9.224,29,9,28.776,9,28.5S9.224,28,9.5,28h18c0.276,0,0.5,0.224,0.5,0.5S27.776,29,27.5,29z"
		/>
</g>
<g>
	<path fill="#0D66D1" d="M6.5,29h-2C4.224,29,4,28.776,4,28.5S4.224,28,4.5,28h2C6.776,28,7,28.224,7,28.5S6.776,29,6.5,29z"/>
</g>
</svg>
