<?xml version="1.0" encoding="utf-8"?>
<!-- Generator: Adobe Illustrator 21.0.0, SVG Export Plug-In . SVG Version: 6.00 Build 0)  -->
<svg version="1.1" id="monochrome" xmlns="http://www.w3.org/2000/svg" xmlns:xlink="http://www.w3.org/1999/xlink" x="0px" y="0px"
	 viewBox="0 0 32 32" enable-background="new 0 0 32 32" xml:space="preserve">
<circle fill="#328EFC" cx="16" cy="16" r="7"/>
<path fill="#0D66D1" d="M16.673,2.034l1.181-1.181c0.195-0.195,0.195-0.512,0-0.707s-0.512-0.195-0.707,0l-2,2
	c-0.195,0.195-0.195,0.512,0,0.707l2,2C17.244,4.951,17.372,5,17.5,5s0.256-0.049,0.354-0.146c0.195-0.195,0.195-0.512,0-0.707
	l-1.109-1.109C23.566,3.427,29,9.083,29,16c0,7.168-5.832,13-13,13S3,23.168,3,16c0-0.276-0.224-0.5-0.5-0.5S2,15.724,2,16
	c0,7.72,6.28,14,14,14s14-6.28,14-14C30,8.507,24.079,2.389,16.673,2.034z"/>
<path fill="#328EFC" d="M31.854,29.146l-2-2c-0.195-0.195-0.512-0.195-0.707,0s-0.195,0.512,0,0.707L30.293,29H0.5
	C0.224,29,0,29.224,0,29.5S0.224,30,0.5,30h29.793l-1.146,1.146c-0.195,0.195-0.195,0.512,0,0.707C29.244,31.951,29.372,32,29.5,32
	s0.256-0.049,0.354-0.146l2-2C32.049,29.658,32.049,29.342,31.854,29.146z"/>
<g>
	<g>
		<path fill="#FFFFFF" d="M14.5,19c-0.128,0-0.256-0.049-0.354-0.146l-2-2c-0.195-0.195-0.195-0.512,0-0.707s0.512-0.195,0.707,0
			l1.646,1.646l4.646-4.646c0.195-0.195,0.512-0.195,0.707,0s0.195,0.512,0,0.707l-5,5C14.756,18.951,14.628,19,14.5,19z"/>
	</g>
</g>
</svg>
