<?xml version="1.0" encoding="utf-8"?>
<!-- Generator: Adobe Illustrator 21.0.0, SVG Export Plug-In . SVG Version: 6.00 Build 0)  -->
<svg version="1.1" id="monochrome" xmlns="http://www.w3.org/2000/svg" xmlns:xlink="http://www.w3.org/1999/xlink" x="0px" y="0px"
	 viewBox="0 0 32 32" enable-background="new 0 0 32 32" xml:space="preserve">
<g>
	<g>
		<path fill="#328EFC" d="M25.5,4h-19C5.121,4,4,5.121,4,6.5v23C4,30.879,5.121,32,6.5,32h19c1.379,0,2.5-1.121,2.5-2.5v-23
			C28,5.121,26.879,4,25.5,4z"/>
	</g>
	<g>
		<path fill="#DFE8F5" d="M24.5,7h-17C7.224,7,7,7.224,7,7.5v21C7,28.776,7.224,29,7.5,29h17c0.276,0,0.5-0.224,0.5-0.5v-21
			C25,7.224,24.776,7,24.5,7z"/>
	</g>
	<g>
		<path fill="#328EFC" d="M19.5,2h-0.672C18.411,0.82,17.28,0,16,0s-2.411,0.82-2.828,2H12.5C11.673,2,11,2.673,11,3.5v1
			C11,5.327,11.673,6,12.5,6h7C20.327,6,21,5.327,21,4.5v-1C21,2.673,20.327,2,19.5,2z"/>
	</g>
	<g>
		<circle fill="#FFFFFF" cx="16" cy="3" r="1"/>
	</g>
</g>
<g>
	<path fill="#0D66D1" d="M22.5,10h-4C18.224,10,18,9.776,18,9.5S18.224,9,18.5,9h4C22.776,9,23,9.224,23,9.5S22.776,10,22.5,10z"/>
</g>
<g>
	<path fill="#0D66D1" d="M22.5,13h-9.113c-0.276,0-0.5-0.224-0.5-0.5s0.224-0.5,0.5-0.5H22.5c0.276,0,0.5,0.224,0.5,0.5
		S22.776,13,22.5,13z"/>
</g>
<g>
	<path fill="#0D66D1" d="M22.5,16h-7.006c-0.276,0-0.5-0.224-0.5-0.5s0.224-0.5,0.5-0.5H22.5c0.276,0,0.5,0.224,0.5,0.5
		S22.776,16,22.5,16z"/>
</g>
<g>
	<path fill="#0D66D1" d="M14.5,27h-5C9.224,27,9,26.776,9,26.5S9.224,26,9.5,26h5c0.276,0,0.5,0.224,0.5,0.5S14.776,27,14.5,27z"/>
</g>
<g>
	<path fill="#0D66D1" d="M15.456,14.693l-1.195-0.598c-0.124-0.405-0.287-0.798-0.487-1.174l0.422-1.268
		c0.12-0.355,0.029-0.741-0.236-1.008l-0.604-0.604c-0.265-0.265-0.649-0.357-1.006-0.238c0,0-0.001,0-0.001,0l-1.27,0.423
		c-0.377-0.202-0.771-0.365-1.175-0.487L9.307,8.544C9.139,8.208,8.802,8,8.427,8H7.573c-0.375,0-0.712,0.208-0.88,0.544L6.096,9.74
		c-0.404,0.123-0.798,0.286-1.175,0.487L3.65,9.803c-0.356-0.119-0.741-0.027-1.006,0.238L2.04,10.646
		c-0.265,0.267-0.355,0.652-0.236,1.006l0.423,1.27c-0.2,0.376-0.363,0.77-0.487,1.174l-1.194,0.597C0.209,14.86,0,15.197,0,15.573
		v0.854c0,0.375,0.208,0.712,0.544,0.88l1.195,0.598c0.124,0.405,0.287,0.798,0.487,1.174l-0.422,1.268
		c-0.12,0.355-0.029,0.741,0.236,1.008l0.604,0.604c0.266,0.265,0.65,0.356,1.007,0.238l1.27-0.423
		c0.377,0.202,0.771,0.365,1.175,0.487l0.598,1.196C6.861,23.792,7.198,24,7.573,24h0.854c0.375,0,0.712-0.208,0.88-0.544
		l0.598-1.196c0.404-0.123,0.798-0.286,1.175-0.487l1.271,0.424c0.356,0.118,0.741,0.026,1.006-0.238l0.604-0.604
		c0.265-0.267,0.355-0.652,0.236-1.006l-0.423-1.27c0.2-0.376,0.363-0.77,0.487-1.174l1.195-0.598
		C15.792,17.139,16,16.802,16,16.427v-0.854C16,15.198,15.792,14.861,15.456,14.693z"/>
	<circle fill="#A6D3F4" cx="8" cy="16" r="4"/>
	<g>
		<circle fill="#328EFC" cx="8" cy="16" r="1"/>
	</g>
</g>
<g>
	<g>
		<path d="M18.15,22.15c0.01-0.01,0.02-0.02,0.03-0.02c-0.03,0.02-0.05,0.04-0.06,0.07C18.12,22.18,18.13,22.17,18.15,22.15z"/>
		<path d="M21.87,25.82c0,0.01-0.01,0.02-0.02,0.03c-0.02,0.02-0.03,0.03-0.05,0.03C21.83,25.87,21.85,25.85,21.87,25.82z"/>
	</g>
</g>
<path fill="#0D66D1" d="M31.23,12.77c-0.98-0.99-2.72-0.98-3.7,0l-9.26,9.26c-0.03,0.03-0.06,0.06-0.09,0.1l3.69,3.69
	c0.04-0.03,0.07-0.06,0.1-0.09l9.26-9.26c0.5-0.49,0.77-1.15,0.77-1.85C32,13.93,31.72,13.25,31.23,12.77z"/>
<path fill="#328EFC" d="M21.87,25.82c-0.02,0.03-0.04,0.05-0.07,0.06C20.37,27.25,18.49,28,16.5,28c-0.28,0-0.5-0.22-0.5-0.5
	c0-1.99,0.75-3.87,2.12-5.3c0.01-0.03,0.03-0.05,0.06-0.07c0.19-0.18,0.49-0.17,0.67,0.02l3,3C22.04,25.33,22.05,25.63,21.87,25.82z
	"/>
</svg>
