<?xml version="1.0" encoding="utf-8"?>
<!-- Generator: Adobe Illustrator 21.0.0, SVG Export Plug-In . SVG Version: 6.00 Build 0)  -->
<svg version="1.1" id="monochrome" xmlns="http://www.w3.org/2000/svg" xmlns:xlink="http://www.w3.org/1999/xlink" x="0px" y="0px"
	 viewBox="0 0 32 32" enable-background="new 0 0 32 32" xml:space="preserve">
<g>
	<path fill="#328EFC" d="M29.5,0h-16C13.224,0,13,0.224,13,0.5v9c0,0.276,0.224,0.5,0.5,0.5h16c1.378,0,2.5-1.122,2.5-2.5v-5
		C32,1.122,30.878,0,29.5,0z"/>
	<path fill="#328EFC" d="M29,18.5v-5c0-1.378-1.122-2.5-2.5-2.5h-16c-0.276,0-0.5,0.224-0.5,0.5v9c0,0.276,0.224,0.5,0.5,0.5h16
		C27.878,21,29,19.878,29,18.5z"/>
	<path fill="#328EFC" d="M29.5,22h-16c-0.276,0-0.5,0.224-0.5,0.5v9c0,0.276,0.224,0.5,0.5,0.5h16c1.378,0,2.5-1.122,2.5-2.5v-5
		C32,23.122,30.878,22,29.5,22z"/>
</g>
<g>
	<path fill="#DFE8F5" d="M13.5,0h-8C4.122,0,3,1.122,3,2.5v5C3,8.878,4.122,10,5.5,10h8c0.276,0,0.5-0.224,0.5-0.5v-9
		C14,0.224,13.776,0,13.5,0z"/>
	<path fill="#DFE8F5" d="M11,20.5v-9c0-0.276-0.224-0.5-0.5-0.5h-8C1.122,11,0,12.122,0,13.5v5C0,19.878,1.122,21,2.5,21h8
		C10.776,21,11,20.776,11,20.5z"/>
	<path fill="#DFE8F5" d="M13.5,22h-8C4.122,22,3,23.122,3,24.5v5C3,30.878,4.122,32,5.5,32h8c0.276,0,0.5-0.224,0.5-0.5v-9
		C14,22.224,13.776,22,13.5,22z"/>
</g>
<g>
	<g>
		<path fill="#328EFC" d="M7.5,8C7.368,8,7.24,7.948,7.146,7.854l-2-2c-0.195-0.195-0.195-0.512,0-0.707s0.512-0.195,0.707,0
			l1.605,1.605l3.651-4.564c0.173-0.214,0.488-0.25,0.703-0.078c0.215,0.173,0.25,0.487,0.078,0.703l-4,5
			C7.802,7.923,7.669,7.991,7.528,7.999C7.519,8,7.509,8,7.5,8z"/>
	</g>
	<g>
		<path fill="#FFFFFF" d="M19.5,4h-4C15.224,4,15,3.776,15,3.5S15.224,3,15.5,3h4C19.776,3,20,3.224,20,3.5S19.776,4,19.5,4z"/>
	</g>
	<g>
		<path fill="#FFFFFF" d="M29.5,7h-14C15.224,7,15,6.776,15,6.5S15.224,6,15.5,6h14C29.776,6,30,6.224,30,6.5S29.776,7,29.5,7z"/>
	</g>
</g>
<g>
	<g>
		<path fill="#328EFC" d="M4.5,19c-0.132,0-0.26-0.052-0.354-0.146l-2-2c-0.195-0.195-0.195-0.512,0-0.707s0.512-0.195,0.707,0
			l1.605,1.605l3.651-4.564c0.173-0.214,0.487-0.25,0.703-0.078c0.215,0.173,0.25,0.487,0.078,0.703l-4,5
			c-0.089,0.111-0.221,0.179-0.363,0.187C4.519,19,4.509,19,4.5,19z"/>
	</g>
	<g>
		<path fill="#FFFFFF" d="M16.5,15h-4c-0.276,0-0.5-0.224-0.5-0.5s0.224-0.5,0.5-0.5h4c0.276,0,0.5,0.224,0.5,0.5S16.776,15,16.5,15
			z"/>
	</g>
	<g>
		<path fill="#FFFFFF" d="M26.5,18h-14c-0.276,0-0.5-0.224-0.5-0.5s0.224-0.5,0.5-0.5h14c0.276,0,0.5,0.224,0.5,0.5
			S26.776,18,26.5,18z"/>
	</g>
</g>
<g>
	<g>
		<g>
			<path fill="#328EFC" d="M7.5,30c-0.132,0-0.26-0.052-0.354-0.146l-2-2c-0.195-0.195-0.195-0.512,0-0.707s0.512-0.195,0.707,0
				l1.605,1.605l3.651-4.564c0.173-0.214,0.488-0.25,0.703-0.078c0.215,0.173,0.25,0.487,0.078,0.703l-4,5
				c-0.089,0.111-0.221,0.179-0.363,0.187C7.519,30,7.509,30,7.5,30z"/>
		</g>
	</g>
	<g>
		<path fill="#FFFFFF" d="M19.5,26h-4c-0.276,0-0.5-0.224-0.5-0.5s0.224-0.5,0.5-0.5h4c0.276,0,0.5,0.224,0.5,0.5S19.776,26,19.5,26
			z"/>
	</g>
	<g>
		<path fill="#FFFFFF" d="M29.5,29h-14c-0.276,0-0.5-0.224-0.5-0.5s0.224-0.5,0.5-0.5h14c0.276,0,0.5,0.224,0.5,0.5
			S29.776,29,29.5,29z"/>
	</g>
</g>
</svg>
