<?xml version="1.0" encoding="utf-8"?>
<!-- Generator: Adobe Illustrator 21.0.0, SVG Export Plug-In . SVG Version: 6.00 Build 0)  -->
<svg version="1.1" id="monochrome" xmlns="http://www.w3.org/2000/svg" xmlns:xlink="http://www.w3.org/1999/xlink" x="0px" y="0px"
	 viewBox="0 0 32 32" enable-background="new 0 0 32 32" xml:space="preserve">
<path fill="#0D66D1" d="M29.5,9h-27C1.121,9,0,10.122,0,11.5v3c0,0.162,0.078,0.313,0.209,0.407l7,5C7.295,19.968,7.396,20,7.5,20
	c0.014,0,0.027,0,0.042-0.002l24-2C31.801,17.977,32,17.76,32,17.5v-6C32,10.122,30.879,9,29.5,9z"/>
<path fill="#DFE8F5" d="M25.5,0h-19C5.673,0,5,0.673,5,1.5v11c0,0.182,1.065,1.308,1.876,2.062L6,15h1.37
	c0.187,0.154,0.326,0.25,0.38,0.25S7.768,15.154,7.679,15h2.654L15,17l11-1.833V15.5c0,0.276,0.224,0.5,0.5,0.5s0.5-0.224,0.5-0.5
	V15V1.5C27,0.673,26.327,0,25.5,0z"/>
<path fill="#328EFC" d="M29.5,15H11.303c-0.961,0-1.854-0.478-2.387-1.277C8.196,12.644,6.993,12,5.697,12H2.5
	C1.121,12,0,13.122,0,14.5v15C0,30.878,1.121,32,2.5,32h27c1.379,0,2.5-1.122,2.5-2.5v-12C32,16.122,30.879,15,29.5,15z"/>
<g>
	<circle fill="#328EFC" cx="11" cy="5" r="2"/>
	<path fill="#328EFC" d="M13.947,10.276L13.224,8.83C12.969,8.318,12.454,8,11.882,8h-1.764C9.546,8,9.031,8.318,8.776,8.829
		l-0.724,1.447c-0.094,0.188-0.061,0.416,0.085,0.568C8.825,11.568,9.896,12,11,12s2.175-0.432,2.862-1.156
		C14.008,10.692,14.041,10.465,13.947,10.276z"/>
</g>
<g>
	<path fill="#0D66D1" d="M19.5,5h-4C15.224,5,15,4.776,15,4.5S15.224,4,15.5,4h4C19.776,4,20,4.224,20,4.5S19.776,5,19.5,5z"/>
</g>
<g>
	<path fill="#0D66D1" d="M23.5,8h-8C15.224,8,15,7.776,15,7.5S15.224,7,15.5,7h8C23.776,7,24,7.224,24,7.5S23.776,8,23.5,8z"/>
</g>
<g>
	<path fill="#0D66D1" d="M23.5,11h-8c-0.276,0-0.5-0.224-0.5-0.5s0.224-0.5,0.5-0.5h8c0.276,0,0.5,0.224,0.5,0.5S23.776,11,23.5,11z
		"/>
</g>
<g>
	<path fill="#FFFFFF" d="M11.5,29h-8C3.224,29,3,28.776,3,28.5S3.224,28,3.5,28h8c0.276,0,0.5,0.224,0.5,0.5S11.776,29,11.5,29z"/>
</g>
<g>
	<path fill="#FFFFFF" d="M7.5,26h-4C3.224,26,3,25.776,3,25.5S3.224,25,3.5,25h4C7.776,25,8,25.224,8,25.5S7.776,26,7.5,26z"/>
</g>
</svg>
