<?xml version="1.0" encoding="utf-8"?>
<!-- Generator: Adobe Illustrator 21.0.0, SVG Export Plug-In . SVG Version: 6.00 Build 0)  -->
<svg version="1.1" id="monochrome" xmlns="http://www.w3.org/2000/svg" xmlns:xlink="http://www.w3.org/1999/xlink" x="0px" y="0px"
	 viewBox="0 0 32 32" enable-background="new 0 0 32 32" xml:space="preserve">
<g>
	<circle fill="#328EFC" cx="16" cy="3" r="2"/>
	<path fill="#328EFC" d="M16,10c1.105,0,2.175-0.432,2.863-1.156c0.145-0.152,0.179-0.379,0.084-0.568l-0.724-1.447
		C17.968,6.318,17.454,6,16.882,6h-1.764c-0.572,0-1.086,0.318-1.342,0.829l-0.724,1.447c-0.094,0.188-0.06,0.416,0.084,0.568
		C13.825,9.568,14.895,10,16,10z"/>
	<circle fill="#328EFC" cx="11" cy="14" r="2"/>
	<path fill="#328EFC" d="M11,21c1.105,0,2.175-0.432,2.863-1.156c0.145-0.152,0.179-0.379,0.084-0.568l-0.724-1.447
		C12.968,17.318,12.454,17,11.882,17h-1.764c-0.572,0-1.086,0.318-1.342,0.829l-0.724,1.447c-0.094,0.188-0.06,0.416,0.084,0.568
		C8.825,20.568,9.895,21,11,21z"/>
	<circle fill="#328EFC" cx="21" cy="14" r="2"/>
	<path fill="#328EFC" d="M21.882,17h-1.764c-0.572,0-1.086,0.318-1.342,0.829l-0.724,1.447c-0.094,0.188-0.06,0.416,0.084,0.568
		C18.825,20.568,19.895,21,21,21s2.175-0.432,2.863-1.156c0.145-0.152,0.179-0.379,0.084-0.568l-0.724-1.447
		C22.968,17.318,22.454,17,21.882,17z"/>
	<circle fill="#328EFC" cx="16" cy="25" r="2"/>
	<path fill="#328EFC" d="M18.224,28.829C17.968,28.318,17.454,28,16.882,28h-1.764c-0.572,0-1.086,0.318-1.342,0.829l-0.724,1.447
		c-0.094,0.188-0.06,0.416,0.084,0.568C13.825,31.568,14.895,32,16,32s2.175-0.432,2.863-1.156c0.145-0.152,0.179-0.379,0.084-0.568
		L18.224,28.829z"/>
	<circle fill="#328EFC" cx="6" cy="25" r="2"/>
	<path fill="#328EFC" d="M8.224,28.829C7.968,28.318,7.454,28,6.882,28H5.118c-0.572,0-1.086,0.318-1.342,0.829l-0.724,1.447
		c-0.094,0.188-0.06,0.416,0.084,0.568C3.825,31.568,4.895,32,6,32s2.175-0.432,2.863-1.156c0.145-0.152,0.179-0.379,0.084-0.568
		L8.224,28.829z"/>
	<circle fill="#328EFC" cx="26" cy="25" r="2"/>
	<path fill="#328EFC" d="M28.947,30.276l-0.724-1.447C27.968,28.318,27.454,28,26.882,28h-1.764c-0.572,0-1.086,0.318-1.342,0.829
		l-0.724,1.447c-0.094,0.188-0.06,0.416,0.084,0.568C23.825,31.568,24.895,32,26,32s2.175-0.432,2.863-1.156
		C29.007,30.692,29.042,30.465,28.947,30.276z"/>
	<path fill="#0D66D1" d="M12.5,26h-1v-2.5c0-0.276-0.224-0.5-0.5-0.5s-0.5,0.224-0.5,0.5V26h-1C9.224,26,9,26.224,9,26.5
		S9.224,27,9.5,27H11h1.5c0.276,0,0.5-0.224,0.5-0.5S12.776,26,12.5,26z"/>
	<path fill="#0D66D1" d="M22.5,26h-1v-2.5c0-0.276-0.224-0.5-0.5-0.5s-0.5,0.224-0.5,0.5V26h-1c-0.276,0-0.5,0.224-0.5,0.5
		s0.224,0.5,0.5,0.5H21h1.5c0.276,0,0.5-0.224,0.5-0.5S22.776,26,22.5,26z"/>
	<path fill="#0D66D1" d="M17.5,15h-1v-2.5c0-0.276-0.224-0.5-0.5-0.5s-0.5,0.224-0.5,0.5V15h-1c-0.276,0-0.5,0.224-0.5,0.5
		s0.224,0.5,0.5,0.5H16h1.5c0.276,0,0.5-0.224,0.5-0.5S17.776,15,17.5,15z"/>
</g>
</svg>
