<?xml version="1.0" encoding="utf-8"?>
<!-- Generator: Adobe Illustrator 21.0.0, SVG Export Plug-In . SVG Version: 6.00 Build 0)  -->
<svg version="1.1" id="monochrome" xmlns="http://www.w3.org/2000/svg" xmlns:xlink="http://www.w3.org/1999/xlink" x="0px" y="0px"
	 viewBox="0 0 32 32" enable-background="new 0 0 32 32" xml:space="preserve">
<path fill="#0D66D1" d="M31.962,9.309c-0.024-0.059-0.06-0.115-0.108-0.163l-0.001-0.001l-0.999-0.999
	c-0.195-0.195-0.512-0.195-0.707,0s-0.195,0.512,0,0.707L30.293,9H19V6.5C19,6.224,18.776,6,18.5,6h-12C6.224,6,6,6.224,6,6.5v6
	C6,12.776,6.224,13,6.5,13H11v9H2.5C2.224,22,2,22.224,2,22.5S2.224,23,2.5,23h9c0.276,0,0.5-0.224,0.5-0.5v-10
	c0-0.276-0.224-0.5-0.5-0.5H7V7h11v2.5c0,0.276,0.224,0.5,0.5,0.5h11.793l-0.146,0.146c-0.195,0.195-0.195,0.512,0,0.707
	C30.244,10.951,30.372,11,30.5,11s0.256-0.049,0.354-0.146l0.999-0.999l0.001-0.001c0.048-0.048,0.084-0.104,0.108-0.163
	C31.986,9.632,32,9.568,32,9.5S31.986,9.368,31.962,9.309z"/>
<g>
	<path fill="#328EFC" d="M26.5,3h-21C4.121,3,3,4.122,3,5.5v14C3,19.776,3.224,20,3.5,20h5C8.776,20,9,19.776,9,19.5v-4
		C9,15.224,8.776,15,8.5,15S8,15.224,8,15.5V19H4V5.5C4,4.673,4.673,4,5.5,4H21v2.5C21,6.776,21.224,7,21.5,7h3
		C24.776,7,25,6.776,25,6.5S24.776,6,24.5,6H22V4h4.5C27.327,4,28,4.673,28,5.5v1C28,6.776,28.224,7,28.5,7S29,6.776,29,6.5v-1
		C29,4.122,27.879,3,26.5,3z"/>
	<path fill="#328EFC" d="M28.5,12h-11c-0.276,0-0.5,0.224-0.5,0.5s0.224,0.5,0.5,0.5H28v9h-4.5c-0.276,0-0.5,0.224-0.5,0.5
		s0.224,0.5,0.5,0.5H28v3.5c0,0.827-0.673,1.5-1.5,1.5H18v-5.5c0-0.276-0.224-0.5-0.5-0.5S17,22.224,17,22.5V28H5.5
		C4.673,28,4,27.327,4,26.5V26h10.5c0.276,0,0.5-0.224,0.5-0.5V20h5v5.5c0,0.276,0.224,0.5,0.5,0.5h5c0.276,0,0.5-0.224,0.5-0.5
		S25.776,25,25.5,25H21v-5.5c0-0.276-0.224-0.5-0.5-0.5H15V9.5C15,9.224,14.776,9,14.5,9h-5C9.224,9,9,9.224,9,9.5S9.224,10,9.5,10
		H14v15H3.5C3.224,25,3,25.224,3,25.5v1C3,27.878,4.121,29,5.5,29h21c1.379,0,2.5-1.122,2.5-2.5v-14C29,12.224,28.776,12,28.5,12z"
		/>
	<path fill="#328EFC" d="M25.5,20c0.276,0,0.5-0.224,0.5-0.5v-3v-1c0-0.276-0.224-0.5-0.5-0.5S25,15.224,25,15.5V16h-7.5
		c-0.276,0-0.5,0.224-0.5,0.5s0.224,0.5,0.5,0.5H25v2.5C25,19.776,25.224,20,25.5,20z"/>
</g>
<circle fill="#328EFC" cx="1.5" cy="22.5" r="1.5"/>
</svg>
