<?xml version="1.0" encoding="utf-8"?>
<!-- Generator: Adobe Illustrator 21.0.0, SVG Export Plug-In . SVG Version: 6.00 Build 0)  -->
<svg version="1.1" id="monochrome" xmlns="http://www.w3.org/2000/svg" xmlns:xlink="http://www.w3.org/1999/xlink" x="0px" y="0px"
	 viewBox="0 0 32 32" enable-background="new 0 0 32 32" xml:space="preserve">
<g>
	<g>
		<path fill="#DFE8F5" d="M30.854,6.146l-6-6C24.76,0.053,24.633,0,24.5,0h-15C8.121,0,7,1.122,7,2.5v27C7,30.878,8.121,32,9.5,32
			h19c1.379,0,2.5-1.122,2.5-2.5v-23C31,6.367,30.947,6.24,30.854,6.146z"/>
	</g>
	<g>
		<path fill="#0D66D1" d="M30.854,6.146l-6-6c-0.144-0.143-0.358-0.186-0.545-0.108S24,0.298,24,0.5v4C24,5.878,25.121,7,26.5,7h4
			c0.202,0,0.385-0.122,0.462-0.309S30.996,6.29,30.854,6.146z"/>
	</g>
</g>
<g>
	<path fill="#0D66D1" d="M21.5,7h-4C17.224,7,17,6.776,17,6.5S17.224,6,17.5,6h4C21.776,6,22,6.224,22,6.5S21.776,7,21.5,7z"/>
</g>
<g>
	<path fill="#0D66D1" d="M27.5,10h-10C17.224,10,17,9.776,17,9.5S17.224,9,17.5,9h10C27.776,9,28,9.224,28,9.5S27.776,10,27.5,10z"
		/>
</g>
<g>
	<path fill="#0D66D1" d="M27.5,13h-10c-0.276,0-0.5-0.224-0.5-0.5s0.224-0.5,0.5-0.5h10c0.276,0,0.5,0.224,0.5,0.5
		S27.776,13,27.5,13z"/>
</g>
<path fill="#328EFC" d="M27.5,15h-10c-0.276,0-0.5,0.224-0.5,0.5v4c0,0.276,0.224,0.5,0.5,0.5h10c0.276,0,0.5-0.224,0.5-0.5v-4
	C28,15.224,27.776,15,27.5,15z"/>
<g>
	<path fill="#0D66D1" d="M27.5,23h-17c-0.276,0-0.5-0.224-0.5-0.5s0.224-0.5,0.5-0.5h17c0.276,0,0.5,0.224,0.5,0.5
		S27.776,23,27.5,23z"/>
</g>
<g>
	<path fill="#0D66D1" d="M27.5,26h-17c-0.276,0-0.5-0.224-0.5-0.5s0.224-0.5,0.5-0.5h17c0.276,0,0.5,0.224,0.5,0.5
		S27.776,26,27.5,26z"/>
</g>
<g>
	<g>
		<path fill="#0D66D1" d="M13.5,2C13.224,2,13,2.224,13,2.5C13,3.327,12.327,4,11.5,4C11.224,4,11,4.224,11,4.5v3
			c0,0.175,0.091,0.337,0.241,0.428C11.32,7.976,11.41,8,11.5,8c0.08,0,0.159-0.019,0.232-0.057l0.198-0.104
			C13.207,7.212,14,5.933,14,4.5v-2C14,2.224,13.776,2,13.5,2z"/>
	</g>
	<g>
		<path fill="#328EFC" d="M14.985,17.379l-0.709-2.836c0,0,0,0,0,0c-0.224-0.897-0.921-1.594-1.819-1.818l-2.836-0.709
			C9.582,12.005,9.541,12,9.5,12h-3c-0.041,0-0.082,0.005-0.121,0.015l-2.836,0.709c-0.897,0.224-1.594,0.921-1.818,1.819
			l-0.709,2.836c-0.038,0.149-0.004,0.308,0.091,0.429C1.201,17.929,1.346,18,1.5,18h13c0.154,0,0.299-0.071,0.394-0.192
			C14.989,17.687,15.022,17.528,14.985,17.379z"/>
	</g>
	<g>
		<g>
			<g>
				<path fill="#A6D3F4" d="M9.518,10.766l-3-0.105c-0.134-0.008-0.267,0.046-0.365,0.14C6.055,10.895,6,11.024,6,11.16V12
					c0,1.103,0.897,2,2,2s2-0.897,2-2v-0.734C10,10.996,9.787,10.775,9.518,10.766z"/>
			</g>
		</g>
		<g>
			<g>
				<g>
					<path fill="#328EFC" d="M13.5,0h-7C5.825,0,5.197,0.263,4.741,0.731c-0.368,0.358-0.608,0.812-0.7,1.31
						c-0.498,0.091-0.95,0.33-1.3,0.69C2.263,3.197,2,3.825,2,4.5c0,1.433,0.793,2.712,2.058,3.333l0.21,0.11
						C4.341,7.981,4.42,8,4.5,8c0.09,0,0.18-0.024,0.259-0.072C4.909,7.837,5,7.675,5,7.5v-2C5,5.224,5.224,5,5.5,5h6
						C12.878,5,14,3.878,14,2.5v-2C14,0.224,13.776,0,13.5,0z"/>
				</g>
			</g>
		</g>
	</g>
	<g>
		<path fill="#DFE8F5" d="M11.5,4h-6C4.673,4,4,4.673,4,5.5V8c0,2.206,1.794,4,4,4c1.074,0,2.078-0.419,2.82-1.174
			C11.581,10.078,12,9.074,12,8V4.5C12,4.224,11.776,4,11.5,4z"/>
	</g>
</g>
</svg>
