<?xml version="1.0" encoding="utf-8"?>
<!-- Generator: Adobe Illustrator 21.0.0, SVG Export Plug-In . SVG Version: 6.00 Build 0)  -->
<svg version="1.1" id="monochrome" xmlns="http://www.w3.org/2000/svg" xmlns:xlink="http://www.w3.org/1999/xlink" x="0px" y="0px"
	 viewBox="0 0 32 32" enable-background="new 0 0 32 32" xml:space="preserve">
<path fill="#0D66D1" d="M16,29c-0.276,0-0.5-0.224-0.5-0.5v-2c0-0.276,0.224-0.5,0.5-0.5s0.5,0.224,0.5,0.5v2
	C16.5,28.776,16.276,29,16,29z"/>
<path fill="#0D66D1" d="M16,0c-1.103,0-2,0.897-2,2v0.5C14,2.776,14.224,3,14.5,3h3C17.776,3,18,2.776,18,2.5V2
	C18,0.897,17.103,0,16,0z"/>
<path fill="#DFE8F5" d="M30.5,5h-29C1.224,5,1,5.224,1,5.5v21C1,26.776,1.224,27,1.5,27h29c0.276,0,0.5-0.224,0.5-0.5v-21
	C31,5.224,30.776,5,30.5,5z"/>
<g>
	<path fill="#328EFC" d="M31.5,27h-31C0.224,27,0,26.776,0,26.5S0.224,26,0.5,26h31c0.276,0,0.5,0.224,0.5,0.5S31.776,27,31.5,27z"
		/>
</g>
<path fill="#328EFC" d="M29.5,2h-27C1.122,2,0,3.122,0,4.5v1C0,5.776,0.224,6,0.5,6h31C31.776,6,32,5.776,32,5.5v-1
	C32,3.122,30.878,2,29.5,2z"/>
<g>
	<path fill="#328EFC" d="M17.854,14.146c-0.195-0.195-0.512-0.195-0.707,0L16,15.293l-1.146-1.146c-0.195-0.195-0.512-0.195-0.707,0
		s-0.195,0.512,0,0.707L15.293,16l-1.146,1.146c-0.195,0.195-0.195,0.512,0,0.707C14.244,17.951,14.372,18,14.5,18
		s0.256-0.049,0.354-0.146L16,16.707l1.146,1.146C17.244,17.951,17.372,18,17.5,18s0.256-0.049,0.354-0.146
		c0.195-0.195,0.195-0.512,0-0.707L16.707,16l1.146-1.146C18.049,14.658,18.049,14.342,17.854,14.146z"/>
	<path fill="#328EFC" d="M22.707,22l1.146-1.146c0.195-0.195,0.195-0.512,0-0.707s-0.512-0.195-0.707,0L22,21.293l-1.146-1.146
		c-0.195-0.195-0.512-0.195-0.707,0s-0.195,0.512,0,0.707L21.293,22l-1.146,1.146c-0.195,0.195-0.195,0.512,0,0.707
		C20.244,23.951,20.372,24,20.5,24s0.256-0.049,0.354-0.146L22,22.707l1.146,1.146C23.244,23.951,23.372,24,23.5,24
		s0.256-0.049,0.354-0.146c0.195-0.195,0.195-0.512,0-0.707L22.707,22z"/>
	<path fill="#328EFC" d="M11.854,8.146c-0.195-0.195-0.512-0.195-0.707,0L10,9.293L8.854,8.146c-0.195-0.195-0.512-0.195-0.707,0
		s-0.195,0.512,0,0.707L9.293,10l-1.146,1.146c-0.195,0.195-0.195,0.512,0,0.707C8.244,11.951,8.372,12,8.5,12
		s0.256-0.049,0.354-0.146L10,10.707l1.146,1.146C11.244,11.951,11.372,12,11.5,12s0.256-0.049,0.354-0.146
		c0.195-0.195,0.195-0.512,0-0.707L10.707,10l1.146-1.146C12.049,8.658,12.049,8.342,11.854,8.146z"/>
</g>
<g>
	<g>
		<path fill="#FFFFFF" d="M21.993,12.463c-0.225,0-0.43-0.153-0.485-0.382c-0.033-0.137-0.076-0.268-0.13-0.393
			c-0.109-0.253,0.008-0.547,0.262-0.657c0.252-0.107,0.548,0.008,0.657,0.262c0.075,0.175,0.136,0.359,0.183,0.551
			c0.065,0.268-0.099,0.539-0.368,0.604C22.072,12.458,22.032,12.463,21.993,12.463z"/>
	</g>
	<g>
		<path fill="#FFFFFF" d="M13.832,22.497c-0.236,0-0.446-0.167-0.491-0.408c-0.051-0.271,0.127-0.533,0.399-0.583
			c0.272-0.051,0.552-0.125,0.837-0.22c0.262-0.084,0.545,0.055,0.632,0.317c0.087,0.262-0.055,0.545-0.317,0.632
			c-0.328,0.109-0.653,0.194-0.968,0.253C13.893,22.494,13.862,22.497,13.832,22.497z M16.431,21.488
			c-0.173,0-0.341-0.09-0.434-0.25c-0.138-0.24-0.055-0.545,0.184-0.683c0.252-0.145,0.504-0.304,0.754-0.477
			c0.227-0.157,0.538-0.1,0.696,0.127c0.157,0.228,0.1,0.539-0.127,0.696c-0.273,0.188-0.549,0.362-0.823,0.521
			C16.602,21.467,16.516,21.488,16.431,21.488z M18.67,19.819c-0.134,0-0.268-0.054-0.366-0.16
			c-0.188-0.202-0.176-0.519,0.026-0.707c0.107-0.1,0.212-0.202,0.317-0.306c0.108-0.109,0.214-0.218,0.317-0.329
			c0.189-0.202,0.505-0.212,0.707-0.025c0.202,0.188,0.213,0.504,0.025,0.707c-0.111,0.119-0.225,0.237-0.342,0.354
			c-0.113,0.113-0.228,0.224-0.343,0.332C18.914,19.774,18.792,19.819,18.67,19.819z M20.499,17.706
			c-0.098,0-0.196-0.028-0.283-0.088c-0.227-0.156-0.285-0.468-0.128-0.695c0.172-0.25,0.331-0.502,0.475-0.754
			c0.137-0.239,0.441-0.323,0.683-0.186c0.239,0.137,0.323,0.443,0.186,0.683c-0.158,0.275-0.331,0.551-0.52,0.824
			C20.814,17.63,20.658,17.706,20.499,17.706z M21.766,15.219c-0.052,0-0.105-0.008-0.157-0.025
			c-0.262-0.086-0.405-0.37-0.318-0.631c0.094-0.285,0.167-0.565,0.218-0.837c0.05-0.271,0.306-0.45,0.583-0.4
			c0.271,0.051,0.45,0.312,0.4,0.583c-0.059,0.314-0.144,0.64-0.252,0.967C22.171,15.086,21.976,15.219,21.766,15.219z"/>
	</g>
	<g>
		<path fill="#FFFFFF" d="M11.963,22.493c-0.039,0-0.079-0.004-0.119-0.014c-0.192-0.047-0.376-0.108-0.551-0.183
			c-0.254-0.109-0.371-0.403-0.262-0.657c0.11-0.254,0.406-0.37,0.657-0.262c0.125,0.054,0.256,0.097,0.393,0.13
			c0.269,0.065,0.433,0.336,0.368,0.604C12.393,22.34,12.188,22.493,11.963,22.493z"/>
	</g>
</g>
<g>
	<g>
		<path fill="#FFFFFF" d="M10.163,21.009c-0.193,0-0.378-0.113-0.459-0.303c-0.075-0.175-0.136-0.359-0.183-0.552
			c-0.065-0.268,0.1-0.539,0.368-0.604c0.265-0.068,0.538,0.099,0.604,0.368c0.033,0.137,0.076,0.268,0.13,0.393
			c0.109,0.253-0.008,0.547-0.262,0.657C10.296,20.996,10.229,21.009,10.163,21.009z"/>
	</g>
	<g>
		<path fill="#FFFFFF" d="M10,18.683c-0.03,0-0.061-0.003-0.092-0.008c-0.271-0.051-0.45-0.312-0.4-0.583
			c0.059-0.314,0.144-0.64,0.252-0.967c0.086-0.262,0.368-0.409,0.632-0.318c0.262,0.086,0.404,0.37,0.317,0.631
			c-0.094,0.285-0.167,0.565-0.218,0.837C10.446,18.515,10.236,18.683,10,18.683z M11.002,16.083c-0.084,0-0.169-0.021-0.248-0.066
			c-0.239-0.137-0.323-0.443-0.186-0.683c0.158-0.275,0.331-0.551,0.52-0.824c0.157-0.226,0.467-0.285,0.695-0.128
			c0.227,0.156,0.285,0.468,0.128,0.695c-0.172,0.25-0.331,0.502-0.475,0.754C11.345,15.993,11.176,16.083,11.002,16.083z
			 M12.67,13.842c-0.122,0-0.244-0.044-0.34-0.133c-0.202-0.188-0.214-0.504-0.026-0.707c0.111-0.12,0.226-0.238,0.343-0.355
			c0.113-0.113,0.227-0.223,0.342-0.33c0.202-0.189,0.518-0.178,0.707,0.024s0.178,0.518-0.024,0.707
			c-0.107,0.1-0.212,0.202-0.317,0.307c-0.108,0.108-0.214,0.218-0.316,0.329C12.938,13.788,12.805,13.842,12.67,13.842z
			 M14.781,12.01c-0.159,0-0.315-0.075-0.412-0.216c-0.157-0.228-0.1-0.539,0.127-0.696c0.273-0.188,0.548-0.362,0.824-0.521
			c0.24-0.138,0.545-0.055,0.683,0.185c0.138,0.24,0.055,0.545-0.185,0.683c-0.252,0.145-0.503,0.304-0.753,0.477
			C14.978,11.981,14.878,12.01,14.781,12.01z M17.265,10.74c-0.209,0-0.405-0.132-0.475-0.342c-0.087-0.262,0.055-0.545,0.317-0.632
			c0.329-0.109,0.652-0.194,0.966-0.253c0.278-0.048,0.534,0.127,0.584,0.398c0.051,0.271-0.127,0.533-0.398,0.584
			c-0.272,0.052-0.553,0.125-0.837,0.22C17.37,10.732,17.317,10.74,17.265,10.74z"/>
	</g>
	<g>
		<path fill="#FFFFFF" d="M20.508,10.663c-0.065,0-0.133-0.013-0.197-0.041c-0.125-0.054-0.256-0.097-0.393-0.13
			c-0.269-0.065-0.433-0.336-0.368-0.604c0.065-0.268,0.335-0.433,0.604-0.368c0.192,0.047,0.376,0.107,0.551,0.183
			c0.254,0.109,0.371,0.403,0.262,0.657C20.887,10.55,20.702,10.663,20.508,10.663z"/>
	</g>
</g>
<g>
	<path fill="#328EFC" d="M22,12c-1.103,0-2-0.897-2-2s0.897-2,2-2s2,0.897,2,2S23.103,12,22,12z M22,9c-0.551,0-1,0.449-1,1
		s0.449,1,1,1s1-0.449,1-1S22.551,9,22,9z"/>
</g>
<g>
	<path fill="#328EFC" d="M10,24c-1.103,0-2-0.897-2-2s0.897-2,2-2s2,0.897,2,2S11.103,24,10,24z M10,21c-0.551,0-1,0.449-1,1
		s0.449,1,1,1s1-0.449,1-1S10.551,21,10,21z"/>
</g>
<circle fill="#328EFC" cx="16" cy="30" r="2"/>
</svg>
