<?xml version="1.0" encoding="utf-8"?>
<!-- Generator: Adobe Illustrator 21.0.0, SVG Export Plug-In . SVG Version: 6.00 Build 0)  -->
<svg version="1.1" id="monochrome" xmlns="http://www.w3.org/2000/svg" xmlns:xlink="http://www.w3.org/1999/xlink" x="0px" y="0px"
	 viewBox="0 0 32 32" enable-background="new 0 0 32 32" xml:space="preserve">
<g>
	<g>
		<g>
			<path fill="#A6D3F4" d="M22.5,4h-19C2.121,4,1,5.121,1,6.5v23C1,30.879,2.121,32,3.5,32h19c1.379,0,2.5-1.121,2.5-2.5v-23
				C25,5.121,23.879,4,22.5,4z"/>
		</g>
	</g>
	<g>
		<g>
			<path fill="#DFE8F5" d="M21.5,7h-17C4.224,7,4,7.224,4,7.5v21C4,28.776,4.224,29,4.5,29h17c0.276,0,0.5-0.224,0.5-0.5v-21
				C22,7.224,21.776,7,21.5,7z"/>
		</g>
	</g>
	<g>
		<g>
			<path fill="#328EFC" d="M16.5,2h-0.672C15.411,0.82,14.28,0,13,0s-2.411,0.82-2.828,2H9.5C8.673,2,8,2.673,8,3.5v1
				C8,5.327,8.673,6,9.5,6h7C17.327,6,18,5.327,18,4.5v-1C18,2.673,17.327,2,16.5,2z"/>
		</g>
	</g>
	<g>
		<g>
			<circle fill="#FFFFFF" cx="13" cy="3" r="1"/>
		</g>
	</g>
</g>
<g>
	<circle fill="#328EFC" cx="9" cy="11" r="2"/>
	<path fill="#328EFC" d="M11.947,16.276l-0.724-1.447C10.969,14.318,10.454,14,9.882,14H8.118c-0.572,0-1.087,0.318-1.342,0.829
		l-0.724,1.447c-0.094,0.188-0.061,0.416,0.085,0.568C6.825,17.568,7.896,18,9,18s2.175-0.432,2.862-1.156
		C12.008,16.692,12.041,16.465,11.947,16.276z"/>
</g>
<g>
	<path fill="#0D66D1" d="M18.5,11h-5c-0.276,0-0.5-0.224-0.5-0.5s0.224-0.5,0.5-0.5h5c0.276,0,0.5,0.224,0.5,0.5S18.776,11,18.5,11z
		"/>
</g>
<g>
	<path fill="#0D66D1" d="M19.5,14h-6c-0.276,0-0.5-0.224-0.5-0.5s0.224-0.5,0.5-0.5h6c0.276,0,0.5,0.224,0.5,0.5S19.776,14,19.5,14z
		"/>
</g>
<g>
	<path fill="#0D66D1" d="M19.5,17h-6c-0.276,0-0.5-0.224-0.5-0.5s0.224-0.5,0.5-0.5h6c0.276,0,0.5,0.224,0.5,0.5S19.776,17,19.5,17z
		"/>
</g>
<g>
	<path fill="#0D66D1" d="M17.5,21h-7c-0.276,0-0.5-0.224-0.5-0.5s0.224-0.5,0.5-0.5h7c0.276,0,0.5,0.224,0.5,0.5S17.776,21,17.5,21z
		"/>
</g>
<g>
	<path fill="#0D66D1" d="M8.5,21h-2C6.224,21,6,20.776,6,20.5S6.224,20,6.5,20h2C8.776,20,9,20.224,9,20.5S8.776,21,8.5,21z"/>
</g>
<g>
	<path fill="#0D66D1" d="M16.571,24H10.5c-0.276,0-0.5-0.224-0.5-0.5s0.224-0.5,0.5-0.5h6.071c0.276,0,0.5,0.224,0.5,0.5
		S16.848,24,16.571,24z"/>
</g>
<g>
	<path fill="#0D66D1" d="M8.5,24h-2C6.224,24,6,23.776,6,23.5S6.224,23,6.5,23h2C8.776,23,9,23.224,9,23.5S8.776,24,8.5,24z"/>
</g>
<g>
	<path fill="#0D66D1" d="M16.79,27H10.5c-0.276,0-0.5-0.224-0.5-0.5s0.224-0.5,0.5-0.5h6.29c0.276,0,0.5,0.224,0.5,0.5
		S17.066,27,16.79,27z"/>
</g>
<g>
	<path fill="#0D66D1" d="M8.5,27h-2C6.224,27,6,26.776,6,26.5S6.224,26,6.5,26h2C8.776,26,9,26.224,9,26.5S8.776,27,8.5,27z"/>
</g>
<g>
	<g>
		<circle fill="#328EFC" cx="23.5" cy="24.5" r="7.5"/>
	</g>
	<g>
		<g>
			<g>
				<path fill="#FFFFFF" d="M24.5,26c-0.128,0-0.256-0.049-0.354-0.146l-1-1C23.053,24.76,23,24.633,23,24.5v-4
					c0-0.276,0.224-0.5,0.5-0.5s0.5,0.224,0.5,0.5v3.793l0.854,0.854c0.195,0.195,0.195,0.512,0,0.707
					C24.756,25.951,24.628,26,24.5,26z"/>
			</g>
		</g>
		<g>
			<g>
				<g>
					<path fill="#FFFFFF" d="M23.5,19c-0.276,0-0.5-0.224-0.5-0.5v-1c0-0.276,0.224-0.5,0.5-0.5s0.5,0.224,0.5,0.5v1
						C24,18.776,23.776,19,23.5,19z"/>
				</g>
			</g>
			<g>
				<g>
					<path fill="#FFFFFF" d="M23.5,32c-0.276,0-0.5-0.224-0.5-0.5v-1c0-0.276,0.224-0.5,0.5-0.5s0.5,0.224,0.5,0.5v1
						C24,31.776,23.776,32,23.5,32z"/>
				</g>
			</g>
		</g>
		<g>
			<g>
				<g>
					<path fill="#FFFFFF" d="M30.5,25h-1c-0.276,0-0.5-0.224-0.5-0.5s0.224-0.5,0.5-0.5h1c0.276,0,0.5,0.224,0.5,0.5
						S30.776,25,30.5,25z"/>
				</g>
			</g>
			<g>
				<g>
					<path fill="#FFFFFF" d="M17.5,25h-1c-0.276,0-0.5-0.224-0.5-0.5s0.224-0.5,0.5-0.5h1c0.276,0,0.5,0.224,0.5,0.5
						S17.776,25,17.5,25z"/>
				</g>
			</g>
		</g>
	</g>
</g>
</svg>
