<?xml version="1.0" encoding="utf-8"?>
<!-- Generator: Adobe Illustrator 21.0.0, SVG Export Plug-In . SVG Version: 6.00 Build 0)  -->
<svg version="1.1" id="monochrome" xmlns="http://www.w3.org/2000/svg" xmlns:xlink="http://www.w3.org/1999/xlink" x="0px" y="0px"
	 viewBox="0 0 32 32" enable-background="new 0 0 32 32" xml:space="preserve">
<path fill="#DFE8F5" d="M17.5,3h-15C1.122,3,0,4.122,0,5.5v11C0,17.878,1.122,19,2.5,19H3v3.5c0,0.202,0.122,0.385,0.309,0.462
	C3.371,22.988,3.436,23,3.5,23c0.13,0,0.258-0.051,0.354-0.146L7.707,19H14.5c0.172,0,0.333-0.089,0.424-0.235l5-8
	C19.974,10.686,20,10.594,20,10.5v-5C20,4.122,18.879,3,17.5,3z"/>
<path fill="#328EFC" d="M29.5,10h-13c-1.378,0-2.5,1.122-2.5,2.5v10c0,1.378,1.122,2.5,2.5,2.5h7.793l3.854,3.854
	C28.242,28.949,28.37,29,28.5,29c0.064,0,0.13-0.012,0.191-0.038C28.878,28.885,29,28.702,29,28.5V25h0.5c1.379,0,2.5-1.122,2.5-2.5
	v-10C32,11.122,30.879,10,29.5,10z"/>
<g>
	<path fill="#328EFC" d="M7.5,16c-0.128,0-0.256-0.049-0.354-0.146l-4-4c-0.195-0.195-0.195-0.512,0-0.707s0.512-0.195,0.707,0
		L7.5,14.793l8.646-8.646c0.195-0.195,0.512-0.195,0.707,0s0.195,0.512,0,0.707l-9,9C7.756,15.951,7.628,16,7.5,16z"/>
</g>
<g>
	<path fill="#FFFFFF" d="M20.5,22c-0.128,0-0.256-0.049-0.354-0.146l-3-3c-0.195-0.195-0.195-0.512,0-0.707s0.512-0.195,0.707,0
		l2.646,2.646l7.646-7.646c0.195-0.195,0.512-0.195,0.707,0s0.195,0.512,0,0.707l-8,8C20.756,21.951,20.628,22,20.5,22z"/>
</g>
</svg>
