<?xml version="1.0" encoding="utf-8"?>
<!-- Generator: Adobe Illustrator 21.0.0, SVG Export Plug-In . SVG Version: 6.00 Build 0)  -->
<svg version="1.1" id="monochrome" xmlns="http://www.w3.org/2000/svg" xmlns:xlink="http://www.w3.org/1999/xlink" x="0px" y="0px"
	 viewBox="0 0 32 32" enable-background="new 0 0 32 32" xml:space="preserve">
<path fill="#DFE8F5" d="M28.5,0h-25C2.121,0,1,1.122,1,2.5v27C1,30.878,2.121,32,3.5,32h25c1.379,0,2.5-1.122,2.5-2.5v-27
	C31,1.122,29.879,0,28.5,0z"/>
<g>
	<path fill="#328EFC" d="M17.5,18h-3c-0.276,0-0.5,0.224-0.5,0.5v3c0,0.276,0.224,0.5,0.5,0.5h3c0.276,0,0.5-0.224,0.5-0.5v-3
		C18,18.224,17.776,18,17.5,18z"/>
	<path fill="#328EFC" d="M8.5,18h-3C5.224,18,5,18.224,5,18.5v3C5,21.776,5.224,22,5.5,22h3C8.776,22,9,21.776,9,21.5v-3
		C9,18.224,8.776,18,8.5,18z"/>
	<path fill="#328EFC" d="M26.5,18h-3c-0.276,0-0.5,0.224-0.5,0.5v3c0,0.276,0.224,0.5,0.5,0.5h3c0.276,0,0.5-0.224,0.5-0.5v-3
		C27,18.224,26.776,18,26.5,18z"/>
	<path fill="#328EFC" d="M17.5,24h-3c-0.276,0-0.5,0.224-0.5,0.5v3c0,0.276,0.224,0.5,0.5,0.5h3c0.276,0,0.5-0.224,0.5-0.5v-3
		C18,24.224,17.776,24,17.5,24z"/>
	<path fill="#328EFC" d="M8.5,24h-3C5.224,24,5,24.224,5,24.5v3C5,27.776,5.224,28,5.5,28h3C8.776,28,9,27.776,9,27.5v-3
		C9,24.224,8.776,24,8.5,24z"/>
	<path fill="#328EFC" d="M26.5,24h-3c-0.276,0-0.5,0.224-0.5,0.5v3c0,0.276,0.224,0.5,0.5,0.5h3c0.276,0,0.5-0.224,0.5-0.5v-3
		C27,24.224,26.776,24,26.5,24z"/>
	<path fill="#328EFC" d="M17.5,12h-3c-0.276,0-0.5,0.224-0.5,0.5v3c0,0.276,0.224,0.5,0.5,0.5h3c0.276,0,0.5-0.224,0.5-0.5v-3
		C18,12.224,17.776,12,17.5,12z"/>
	<path fill="#328EFC" d="M8.5,12h-3C5.224,12,5,12.224,5,12.5v3C5,15.776,5.224,16,5.5,16h3C8.776,16,9,15.776,9,15.5v-3
		C9,12.224,8.776,12,8.5,12z"/>
	<path fill="#328EFC" d="M26.5,12h-3c-0.276,0-0.5,0.224-0.5,0.5v3c0,0.276,0.224,0.5,0.5,0.5h3c0.276,0,0.5-0.224,0.5-0.5v-3
		C27,12.224,26.776,12,26.5,12z"/>
</g>
<path fill="#0D66D1" d="M27.5,9H21V3.5C21,3.224,20.776,3,20.5,3S20,3.224,20,3.5V9h-8V3.5C12,3.224,11.776,3,11.5,3
	S11,3.224,11,3.5V9H4.5C4.224,9,4,9.224,4,9.5S4.224,10,4.5,10H11v18.5c0,0.276,0.224,0.5,0.5,0.5s0.5-0.224,0.5-0.5V10h8v18.5
	c0,0.276,0.224,0.5,0.5,0.5s0.5-0.224,0.5-0.5V10h6.5c0.276,0,0.5-0.224,0.5-0.5S27.776,9,27.5,9z"/>
<g>
	<path fill="#0D66D1" d="M17.854,4.146c-0.195-0.195-0.512-0.195-0.707,0L16,5.293l-1.146-1.146c-0.195-0.195-0.512-0.195-0.707,0
		s-0.195,0.512,0,0.707L15.293,6l-1.146,1.146c-0.195,0.195-0.195,0.512,0,0.707C14.244,7.951,14.372,8,14.5,8
		s0.256-0.049,0.354-0.146L16,6.707l1.146,1.146C17.244,7.951,17.372,8,17.5,8s0.256-0.049,0.354-0.146
		c0.195-0.195,0.195-0.512,0-0.707L16.707,6l1.146-1.146C18.049,4.658,18.049,4.342,17.854,4.146z"/>
	<path fill="#0D66D1" d="M8.854,4.146c-0.195-0.195-0.512-0.195-0.707,0L7,5.293L5.854,4.146c-0.195-0.195-0.512-0.195-0.707,0
		s-0.195,0.512,0,0.707L6.293,6L5.146,7.146c-0.195,0.195-0.195,0.512,0,0.707C5.244,7.951,5.372,8,5.5,8s0.256-0.049,0.354-0.146
		L7,6.707l1.146,1.146C8.244,7.951,8.372,8,8.5,8s0.256-0.049,0.354-0.146c0.195-0.195,0.195-0.512,0-0.707L7.707,6l1.146-1.146
		C9.049,4.658,9.049,4.342,8.854,4.146z"/>
	<path fill="#0D66D1" d="M25.707,6l1.146-1.146c0.195-0.195,0.195-0.512,0-0.707s-0.512-0.195-0.707,0L25,5.293l-1.146-1.146
		c-0.195-0.195-0.512-0.195-0.707,0s-0.195,0.512,0,0.707L24.293,6l-1.146,1.146c-0.195,0.195-0.195,0.512,0,0.707
		C23.244,7.951,23.372,8,23.5,8s0.256-0.049,0.354-0.146L25,6.707l1.146,1.146C26.244,7.951,26.372,8,26.5,8
		s0.256-0.049,0.354-0.146c0.195-0.195,0.195-0.512,0-0.707L25.707,6z"/>
</g>
</svg>
