<?xml version="1.0" encoding="utf-8"?>
<!-- Generator: Adobe Illustrator 21.0.0, SVG Export Plug-In . SVG Version: 6.00 Build 0)  -->
<svg version="1.1" id="monochrome" xmlns="http://www.w3.org/2000/svg" xmlns:xlink="http://www.w3.org/1999/xlink" x="0px" y="0px"
	 viewBox="0 0 32 32" enable-background="new 0 0 32 32" xml:space="preserve">
<circle fill="#328EFC" cx="16" cy="16" r="7"/>
<g>
	<g>
		<path fill="#FFFFFF" d="M14.5,19c-0.128,0-0.256-0.049-0.354-0.146l-2-2c-0.195-0.195-0.195-0.512,0-0.707s0.512-0.195,0.707,0
			l1.646,1.646l4.646-4.646c0.195-0.195,0.512-0.195,0.707,0s0.195,0.512,0,0.707l-5,5C14.756,18.951,14.628,19,14.5,19z"/>
	</g>
</g>
<g>
	<g>
		<g>
			<path fill="#328EFC" d="M29.423,24.25c-0.085,0-0.171-0.021-0.25-0.067l-1.732-1c-0.239-0.138-0.321-0.444-0.183-0.683
				c0.139-0.24,0.443-0.322,0.683-0.183l1.732,1c0.239,0.138,0.321,0.444,0.183,0.683C29.764,24.161,29.596,24.25,29.423,24.25z"/>
		</g>
		<g>
			<path fill="#328EFC" d="M23.75,29.923c-0.173,0-0.341-0.089-0.434-0.25l-1-1.732c-0.138-0.239-0.056-0.545,0.183-0.683
				c0.238-0.139,0.544-0.057,0.683,0.183l1,1.732c0.138,0.239,0.056,0.545-0.183,0.683C23.921,29.902,23.835,29.923,23.75,29.923z"
				/>
		</g>
		<g>
			<path fill="#328EFC" d="M9.25,4.809c-0.173,0-0.341-0.089-0.434-0.25l-1-1.732C7.679,2.587,7.761,2.282,8,2.144
				c0.238-0.139,0.544-0.057,0.683,0.183l1,1.732C9.821,4.298,9.739,4.604,9.5,4.742C9.421,4.787,9.335,4.809,9.25,4.809z"/>
		</g>
		<g>
			<path fill="#328EFC" d="M16,32c-0.276,0-0.5-0.224-0.5-0.5v-2c0-0.276,0.224-0.5,0.5-0.5s0.5,0.224,0.5,0.5v2
				C16.5,31.776,16.276,32,16,32z"/>
		</g>
		<g>
			<path fill="#328EFC" d="M16,3c-0.276,0-0.5-0.224-0.5-0.5v-2C15.5,0.224,15.724,0,16,0s0.5,0.224,0.5,0.5v2
				C16.5,2.776,16.276,3,16,3z"/>
		</g>
		<g>
			<path fill="#328EFC" d="M8.25,29.923c-0.085,0-0.171-0.021-0.25-0.067c-0.239-0.138-0.321-0.444-0.183-0.683l1-1.732
				c0.138-0.24,0.444-0.322,0.683-0.183c0.239,0.138,0.321,0.444,0.183,0.683l-1,1.732C8.59,29.834,8.422,29.923,8.25,29.923z"/>
		</g>
		<g>
			<path fill="#328EFC" d="M22.75,4.809c-0.085,0-0.171-0.021-0.25-0.067c-0.239-0.138-0.321-0.444-0.183-0.683l1-1.732
				c0.138-0.24,0.444-0.322,0.683-0.183c0.239,0.138,0.321,0.444,0.183,0.683l-1,1.732C23.09,4.719,22.922,4.809,22.75,4.809z"/>
		</g>
		<g>
			<path fill="#328EFC" d="M2.577,24.25c-0.173,0-0.341-0.089-0.434-0.25c-0.138-0.239-0.056-0.545,0.183-0.683l1.732-1
				c0.237-0.139,0.544-0.057,0.683,0.183c0.138,0.239,0.056,0.545-0.183,0.683l-1.732,1C2.748,24.229,2.662,24.25,2.577,24.25z"/>
		</g>
		<g>
			<path fill="#328EFC" d="M27.692,9.75c-0.173,0-0.341-0.089-0.434-0.25c-0.138-0.239-0.056-0.545,0.183-0.683l1.732-1
				C29.412,7.678,29.718,7.76,29.856,8c0.138,0.239,0.056,0.545-0.183,0.683l-1.732,1C27.863,9.729,27.777,9.75,27.692,9.75z"/>
		</g>
		<g>
			<path fill="#328EFC" d="M2.5,16.5h-2C0.224,16.5,0,16.276,0,16c0-0.276,0.224-0.5,0.5-0.5h2C2.776,15.5,3,15.724,3,16
				C3,16.276,2.776,16.5,2.5,16.5z"/>
		</g>
		<g>
			<path fill="#328EFC" d="M31.5,16.5h-2c-0.276,0-0.5-0.224-0.5-0.5c0-0.276,0.224-0.5,0.5-0.5h2c0.276,0,0.5,0.224,0.5,0.5
				C32,16.276,31.776,16.5,31.5,16.5z"/>
		</g>
	</g>
	<path fill="#0D66D1" d="M16,0C11.868,0,7.984,1.568,5,4.402V3.5C5,3.224,4.776,3,4.5,3S4,3.224,4,3.5v2C4,5.776,4.224,6,4.5,6h2
		C6.776,6,7,5.776,7,5.5S6.776,5,6.5,5H5.827C8.607,2.425,12.19,1,16,1c8.271,0,15,6.729,15,15s-6.729,15-15,15S1,24.271,1,16
		c0-0.276-0.224-0.5-0.5-0.5S0,15.724,0,16c0,8.822,7.178,16,16,16s16-7.178,16-16S24.822,0,16,0z"/>
</g>
</svg>
