<?xml version="1.0" encoding="utf-8"?>
<!-- Generator: Adobe Illustrator 21.0.0, SVG Export Plug-In . SVG Version: 6.00 Build 0)  -->
<svg version="1.1" id="monochrome" xmlns="http://www.w3.org/2000/svg" xmlns:xlink="http://www.w3.org/1999/xlink" x="0px" y="0px"
	 viewBox="0 0 32 32" enable-background="new 0 0 32 32" xml:space="preserve">
<g>
	<g>
		<g>
			<path fill="#0D66D1" d="M21.5,4h-19C1.121,4,0,5.121,0,6.5v23C0,30.879,1.121,32,2.5,32h19c1.379,0,2.5-1.121,2.5-2.5v-23
				C24,5.121,22.879,4,21.5,4z"/>
		</g>
	</g>
	<g>
		<g>
			<path fill="#DFE8F5" d="M20.5,7h-17C3.224,7,3,7.224,3,7.5v21C3,28.776,3.224,29,3.5,29h17c0.276,0,0.5-0.224,0.5-0.5v-21
				C21,7.224,20.776,7,20.5,7z"/>
		</g>
	</g>
	<g>
		<g>
			<path fill="#328EFC" d="M15.5,2h-0.672C14.411,0.82,13.28,0,12,0S9.589,0.82,9.172,2H8.5C7.673,2,7,2.673,7,3.5v1
				C7,5.327,7.673,6,8.5,6h7C16.327,6,17,5.327,17,4.5v-1C17,2.673,16.327,2,15.5,2z"/>
		</g>
	</g>
	<g>
		<g>
			<circle fill="#FFFFFF" cx="12" cy="3" r="1"/>
		</g>
	</g>
</g>
<g>
	<path fill="#0D66D1" d="M14.5,10h-5C9.224,10,9,9.776,9,9.5S9.224,9,9.5,9h5C14.776,9,15,9.224,15,9.5S14.776,10,14.5,10z"/>
</g>
<g>
	<path fill="#0D66D1" d="M16.5,12h-9C7.224,12,7,11.776,7,11.5S7.224,11,7.5,11h9c0.276,0,0.5,0.224,0.5,0.5S16.776,12,16.5,12z"/>
</g>
<g>
	<path fill="#328EFC" d="M6.5,17c-0.128,0-0.256-0.049-0.354-0.146l-1-1c-0.195-0.195-0.195-0.512,0-0.707s0.512-0.195,0.707,0
		L6.5,15.793l1.646-1.646c0.195-0.195,0.512-0.195,0.707,0s0.195,0.512,0,0.707l-2,2C6.756,16.951,6.628,17,6.5,17z"/>
</g>
<g>
	<path fill="#328EFC" d="M6.5,22c-0.128,0-0.256-0.049-0.354-0.146l-1-1c-0.195-0.195-0.195-0.512,0-0.707s0.512-0.195,0.707,0
		L6.5,20.793l1.646-1.646c0.195-0.195,0.512-0.195,0.707,0s0.195,0.512,0,0.707l-2,2C6.756,21.951,6.628,22,6.5,22z"/>
</g>
<g>
	<path fill="#328EFC" d="M6.5,27c-0.128,0-0.256-0.049-0.354-0.146l-1-1c-0.195-0.195-0.195-0.512,0-0.707s0.512-0.195,0.707,0
		L6.5,25.793l1.646-1.646c0.195-0.195,0.512-0.195,0.707,0s0.195,0.512,0,0.707l-2,2C6.756,26.951,6.628,27,6.5,27z"/>
</g>
<g>
	<path fill="#0D66D1" d="M14.5,15h-3c-0.276,0-0.5-0.224-0.5-0.5s0.224-0.5,0.5-0.5h3c0.276,0,0.5,0.224,0.5,0.5S14.776,15,14.5,15z
		"/>
</g>
<g>
	<path fill="#0D66D1" d="M18.5,17h-7c-0.276,0-0.5-0.224-0.5-0.5s0.224-0.5,0.5-0.5h7c0.276,0,0.5,0.224,0.5,0.5S18.776,17,18.5,17z
		"/>
</g>
<g>
	<path fill="#0D66D1" d="M14.5,20h-3c-0.276,0-0.5-0.224-0.5-0.5s0.224-0.5,0.5-0.5h3c0.276,0,0.5,0.224,0.5,0.5S14.776,20,14.5,20z
		"/>
</g>
<g>
	<path fill="#0D66D1" d="M18.5,22h-7c-0.276,0-0.5-0.224-0.5-0.5s0.224-0.5,0.5-0.5h7c0.276,0,0.5,0.224,0.5,0.5S18.776,22,18.5,22z
		"/>
</g>
<g>
	<path fill="#0D66D1" d="M14.5,25h-3c-0.276,0-0.5-0.224-0.5-0.5s0.224-0.5,0.5-0.5h3c0.276,0,0.5,0.224,0.5,0.5S14.776,25,14.5,25z
		"/>
</g>
<g>
	<path fill="#0D66D1" d="M18.5,27h-7c-0.276,0-0.5-0.224-0.5-0.5s0.224-0.5,0.5-0.5h7c0.276,0,0.5,0.224,0.5,0.5S18.776,27,18.5,27z
		"/>
</g>
<g>
	<path fill="#DFE8F5" d="M29,4c-1.65,0-3,1.35-3,3v18.5h6V7C32,5.35,30.65,4,29,4z"/>
	<path fill="#328EFC" d="M32,25.5v0.8c0,2.19-0.98,4.22-2.69,5.59C29.22,31.96,29.11,32,29,32s-0.22-0.04-0.31-0.11
		C26.98,30.52,26,28.49,26,26.3v-0.8c0-0.28,0.22-0.5,0.5-0.5h5C31.78,25,32,25.22,32,25.5z"/>
</g>
</svg>
