<?xml version="1.0" encoding="utf-8"?>
<!-- Generator: Adobe Illustrator 21.0.0, SVG Export Plug-In . SVG Version: 6.00 Build 0)  -->
<svg version="1.1" id="monochrome" xmlns="http://www.w3.org/2000/svg" xmlns:xlink="http://www.w3.org/1999/xlink" x="0px" y="0px"
	 viewBox="0 0 32 32" enable-background="new 0 0 32 32" xml:space="preserve">
<g>
	<g>
		<path fill="#DFE8F5" d="M29,24.036V7.5C29,7.224,28.776,7,28.5,7h-25C3.224,7,3,7.224,3,7.5v16.536C1.306,24.279,0,25.74,0,27.5
			C0,29.43,1.57,31,3.5,31h25c1.93,0,3.5-1.57,3.5-3.5C32,25.74,30.694,24.279,29,24.036z"/>
	</g>
	<g>
		<g>
			<g>
				<path fill="#328EFC" d="M28.5,1C28.224,1,28,1.224,28,1.5v23c0,0.276,0.224,0.5,0.5,0.5c1.379,0,2.5,1.122,2.5,2.5
					c0,0.276,0.224,0.5,0.5,0.5s0.5-0.224,0.5-0.5v-23C32,2.57,30.43,1,28.5,1z"/>
			</g>
			<g>
				<path fill="#328EFC" d="M3.5,1C1.57,1,0,2.57,0,4.5v23C0,27.776,0.224,28,0.5,28S1,27.776,1,27.5C1,26.122,2.121,25,3.5,25
					C3.776,25,4,24.776,4,24.5v-23C4,1.224,3.776,1,3.5,1z"/>
			</g>
		</g>
	</g>
</g>
<g>
	<path fill="#328EFC" d="M10.5,24C8.019,24,6,21.981,6,19.5S8.019,15,10.5,15s4.5,2.019,4.5,4.5S12.981,24,10.5,24z M10.5,16
		C8.57,16,7,17.57,7,19.5S8.57,23,10.5,23s3.5-1.57,3.5-3.5S12.43,16,10.5,16z"/>
</g>
<g>
	<path fill="#328EFC" d="M25.5,27h-9c-0.276,0-0.5-0.224-0.5-0.5v-9c0-0.276,0.224-0.5,0.5-0.5h9c0.276,0,0.5,0.224,0.5,0.5v9
		C26,26.776,25.776,27,25.5,27z M17,26h8v-8h-8V26z"/>
</g>
<g>
	<path fill="#0D66D1" d="M8.5,28h-2C6.224,28,6,27.776,6,27.5v-2C6,25.224,6.224,25,6.5,25S7,25.224,7,25.5V27h1.5
		C8.776,27,9,27.224,9,27.5S8.776,28,8.5,28z"/>
</g>
<g>
	<path fill="#0D66D1" d="M25.5,13c-0.276,0-0.5-0.224-0.5-0.5V11h-1.5c-0.276,0-0.5-0.224-0.5-0.5s0.224-0.5,0.5-0.5h2
		c0.276,0,0.5,0.224,0.5,0.5v2C26,12.776,25.776,13,25.5,13z"/>
</g>
<g>
	<path fill="#328EFC" d="M20.5,20h-10c-0.182,0-0.35-0.099-0.438-0.258c-0.088-0.159-0.083-0.353,0.014-0.507l5-8
		c0.182-0.292,0.666-0.292,0.848,0l5,8c0.097,0.154,0.102,0.349,0.014,0.507C20.85,19.901,20.682,20,20.5,20z M11.402,19h8.195
		L15.5,12.443L11.402,19z"/>
</g>
</svg>
