<?xml version="1.0" encoding="utf-8"?>
<!-- Generator: Adobe Illustrator 21.0.0, SVG Export Plug-In . SVG Version: 6.00 Build 0)  -->
<svg version="1.1" id="monochrome" xmlns="http://www.w3.org/2000/svg" xmlns:xlink="http://www.w3.org/1999/xlink" x="0px" y="0px"
	 viewBox="0 0 32 32" enable-background="new 0 0 32 32" xml:space="preserve">
<g>
	<g>
		<g>
			<path fill="#0D66D1" d="M25.5,4h-19C5.121,4,4,5.121,4,6.5v23C4,30.879,5.121,32,6.5,32h19c1.379,0,2.5-1.121,2.5-2.5v-23
				C28,5.121,26.879,4,25.5,4z"/>
		</g>
	</g>
	<g>
		<g>
			<path fill="#DFE8F5" d="M24.5,7h-17C7.224,7,7,7.224,7,7.5v21C7,28.776,7.224,29,7.5,29h17c0.276,0,0.5-0.224,0.5-0.5v-21
				C25,7.224,24.776,7,24.5,7z"/>
		</g>
	</g>
	<g>
		<g>
			<path fill="#328EFC" d="M19.5,2h-0.672C18.411,0.82,17.28,0,16,0s-2.411,0.82-2.828,2H12.5C11.673,2,11,2.673,11,3.5v1
				C11,5.327,11.673,6,12.5,6h7C20.327,6,21,5.327,21,4.5v-1C21,2.673,20.327,2,19.5,2z"/>
		</g>
	</g>
	<g>
		<g>
			<circle fill="#FFFFFF" cx="16" cy="3" r="1"/>
		</g>
	</g>
</g>
<g>
	<g>
		<path fill="#DFE8F5" d="M4.878,23.172C4.783,23.063,4.645,23,4.5,23h-3c-0.249,0-0.46,0.183-0.495,0.429l-1,7
			c-0.021,0.144,0.022,0.289,0.117,0.398C0.217,30.937,0.355,31,0.5,31h3c0.249,0,0.46-0.183,0.495-0.429l1-7
			C5.016,23.427,4.973,23.282,4.878,23.172z"/>
		<path fill="#328EFC" d="M4.5,19h-3C0.673,19,0,19.673,0,20.5v2C0,23.327,0.673,24,1.5,24h3C4.776,24,5,23.776,5,23.5v-4
			C5,19.224,4.776,19,4.5,19z"/>
		<g>
			<path fill="#FFFFFF" d="M4.5,22h-2C2.224,22,2,21.776,2,21.5S2.224,21,2.5,21h2C4.776,21,5,21.224,5,21.5S4.776,22,4.5,22z"/>
		</g>
		<path fill="#328EFC" d="M14.5,19c-0.276,0-0.5,0.224-0.5,0.5v4c0,0.276,0.224,0.5,0.5,0.5c1.378,0,2.5-1.122,2.5-2.5
			S15.878,19,14.5,19z"/>
		<path fill="#A6D3F4" d="M13.96,15.304c-0.053-0.123-0.152-0.22-0.277-0.269c-0.125-0.048-0.264-0.046-0.386,0.008l-9,4
			C4.116,19.124,4,19.302,4,19.5v4c0,0.198,0.116,0.376,0.297,0.457l9,4C13.361,27.986,13.431,28,13.5,28
			c0.062,0,0.124-0.012,0.183-0.035c0.125-0.049,0.224-0.146,0.277-0.269C14.621,26.146,15,23.888,15,21.5
			S14.621,16.854,13.96,15.304z"/>
	</g>
</g>
<g>
	<path fill="#0D66D1" d="M14.5,10h-5C9.224,10,9,9.776,9,9.5S9.224,9,9.5,9h5C14.776,9,15,9.224,15,9.5S14.776,10,14.5,10z"/>
</g>
<g>
	<path fill="#0D66D1" d="M18.174,13H9.5C9.224,13,9,12.776,9,12.5S9.224,12,9.5,12h8.674c0.276,0,0.5,0.224,0.5,0.5
		S18.45,13,18.174,13z"/>
</g>
<g>
	<circle fill="#A6D3F4" cx="24.5" cy="15.5" r="7.5"/>
	<path fill="#FFFFFF" d="M25,15h-1c-0.551,0-1-0.449-1-1s0.449-1,1-1h2.5c0.276,0,0.5-0.224,0.5-0.5S26.776,12,26.5,12H25v-0.5
		c0-0.276-0.224-0.5-0.5-0.5S24,11.224,24,11.5V12c-1.103,0-2,0.897-2,2s0.897,2,2,2h1c0.551,0,1,0.449,1,1s-0.449,1-1,1h-2.5
		c-0.276,0-0.5,0.224-0.5,0.5s0.224,0.5,0.5,0.5H24v0.5c0,0.276,0.224,0.5,0.5,0.5s0.5-0.224,0.5-0.5V19c1.103,0,2-0.897,2-2
		S26.103,15,25,15z"/>
</g>
<g>
	<path fill="#0D66D1" d="M22.5,27h-5c-0.276,0-0.5-0.224-0.5-0.5s0.224-0.5,0.5-0.5h5c0.276,0,0.5,0.224,0.5,0.5S22.776,27,22.5,27z
		"/>
</g>
<g>
	<path fill="#0D66D1" d="M22.5,24h-5c-0.276,0-0.5-0.224-0.5-0.5s0.224-0.5,0.5-0.5h5c0.276,0,0.5,0.224,0.5,0.5S22.776,24,22.5,24z
		"/>
</g>
</svg>
