<?xml version="1.0" encoding="utf-8"?>
<!-- Generator: Adobe Illustrator 21.0.0, SVG Export Plug-In . SVG Version: 6.00 Build 0)  -->
<svg version="1.1" id="monochrome" xmlns="http://www.w3.org/2000/svg" xmlns:xlink="http://www.w3.org/1999/xlink" x="0px" y="0px"
	 viewBox="0 0 32 32" enable-background="new 0 0 32 32" xml:space="preserve">
<path fill="#A6D3F4" d="M27.938,14.446C27.413,9.631,23.355,6,18.5,6c-5.188,0-9.417,4.179-9.499,9.347l-3.917,5.876
	c-0.087,0.13-0.107,0.292-0.057,0.439s0.167,0.263,0.314,0.312L8,22.86v3.64c0,1.378,1.121,2.5,2.5,2.5H12v2.5
	c0,0.276,0.224,0.5,0.5,0.5h12c0.276,0,0.5-0.224,0.5-0.5v-9.093C27.13,20.37,28.279,17.269,27.938,14.446z"/>
<g>
	<path fill="#DFE8F5" d="M8.5,1H4.707l0.146-0.146c0.195-0.195,0.195-0.512,0-0.707s-0.512-0.195-0.707,0L3.147,1.146L3.146,1.146
		C3.099,1.194,3.063,1.25,3.038,1.309C3.014,1.368,3,1.432,3,1.5s0.014,0.132,0.038,0.191c0.024,0.059,0.06,0.115,0.108,0.163
		l0.001,0.001l0.999,0.999C4.244,2.951,4.372,3,4.5,3s0.256-0.049,0.354-0.146c0.195-0.195,0.195-0.512,0-0.707L4.707,2H8.5
		C8.776,2,9,1.776,9,1.5S8.776,1,8.5,1z"/>
	<path fill="#DFE8F5" d="M10.5,2h1C11.776,2,12,1.776,12,1.5S11.776,1,11.5,1h-1C10.224,1,10,1.224,10,1.5S10.224,2,10.5,2z"/>
	<path fill="#DFE8F5" d="M1.707,5H5.5C5.776,5,6,4.776,6,4.5S5.776,4,5.5,4H1.707l0.146-0.146c0.195-0.195,0.195-0.512,0-0.707
		s-0.512-0.195-0.707,0L0.147,4.146L0.146,4.146C0.099,4.194,0.063,4.25,0.038,4.309C0.014,4.368,0,4.432,0,4.5
		s0.014,0.132,0.038,0.191c0.024,0.059,0.06,0.115,0.108,0.163l0.001,0.001l0.999,0.999C1.244,5.951,1.372,6,1.5,6
		s0.256-0.049,0.354-0.146c0.195-0.195,0.195-0.512,0-0.707L1.707,5z"/>
	<path fill="#DFE8F5" d="M8.5,4h-1C7.224,4,7,4.224,7,4.5S7.224,5,7.5,5h1C8.776,5,9,4.776,9,4.5S8.776,4,8.5,4z"/>
	<path fill="#DFE8F5" d="M8.5,7H4.707l0.146-0.146c0.195-0.195,0.195-0.512,0-0.707s-0.512-0.195-0.707,0L3.147,7.146L3.146,7.146
		C3.099,7.194,3.063,7.25,3.038,7.309C3.014,7.368,3,7.432,3,7.5s0.014,0.132,0.038,0.191c0.024,0.059,0.06,0.115,0.108,0.163
		l0.001,0.001l0.999,0.999C4.244,8.951,4.372,9,4.5,9s0.256-0.049,0.354-0.146c0.195-0.195,0.195-0.512,0-0.707L4.707,8H8.5
		C8.776,8,9,7.776,9,7.5S8.776,7,8.5,7z"/>
	<path fill="#DFE8F5" d="M11.5,7h-1C10.224,7,10,7.224,10,7.5S10.224,8,10.5,8h1C11.776,8,12,7.776,12,7.5S11.776,7,11.5,7z"/>
</g>
<g>
	<path fill="#328EFC" d="M31.456,6.693l-1.195-0.598c-0.124-0.405-0.287-0.798-0.487-1.174l0.422-1.268
		c0.12-0.355,0.029-0.741-0.236-1.008l-0.604-0.604c-0.265-0.264-0.648-0.357-1.006-0.238c0,0-0.001,0-0.001,0l-1.27,0.423
		c-0.377-0.202-0.771-0.365-1.175-0.487l-0.598-1.196C25.139,0.208,24.802,0,24.427,0h-0.854c-0.375,0-0.712,0.208-0.88,0.544
		L22.096,1.74c-0.404,0.123-0.797,0.286-1.174,0.487l-1.271-0.424c-0.358-0.119-0.742-0.027-1.006,0.238l-0.603,0.603
		c-0.265,0.264-0.357,0.65-0.238,1.007l0.423,1.27c-0.202,0.377-0.365,0.77-0.487,1.174l-1.195,0.597C16.209,6.86,16,7.197,16,7.573
		v0.854c0,0.375,0.208,0.712,0.544,0.88l1.196,0.598c0.123,0.404,0.286,0.797,0.487,1.174l-0.424,1.271
		c-0.118,0.356-0.026,0.742,0.238,1.006l0.603,0.603c0.265,0.265,0.65,0.358,1.007,0.238l1.27-0.423
		c0.377,0.202,0.77,0.365,1.174,0.487l0.598,1.196C22.861,15.792,23.198,16,23.573,16h0.854c0.375,0,0.712-0.208,0.88-0.544
		l0.598-1.196c0.404-0.123,0.798-0.286,1.175-0.487l1.271,0.424c0.357,0.118,0.741,0.026,1.006-0.238l0.604-0.604
		c0.265-0.267,0.355-0.652,0.236-1.006l-0.423-1.27c0.2-0.376,0.363-0.77,0.487-1.174l1.195-0.598C31.792,9.139,32,8.802,32,8.427
		V7.573C32,7.198,31.792,6.861,31.456,6.693z"/>
	<circle fill="#DFE8F5" cx="24" cy="8" r="4"/>
	<g>
		<circle fill="#328EFC" cx="24" cy="8" r="1"/>
	</g>
</g>
</svg>
