<?xml version="1.0" encoding="utf-8"?>
<!-- Generator: Adobe Illustrator 21.0.0, SVG Export Plug-In . SVG Version: 6.00 Build 0)  -->
<svg version="1.1" id="monochrome" xmlns="http://www.w3.org/2000/svg" xmlns:xlink="http://www.w3.org/1999/xlink" x="0px" y="0px"
	 viewBox="0 0 32 32" enable-background="new 0 0 32 32" xml:space="preserve">
<g>
	<path fill="#DFE8F5" d="M25,9h-8.5V5.5C16.5,5.224,16.276,5,16,5s-0.5,0.224-0.5,0.5V9H7c-1.379,0-2.5,1.122-2.5,2.5v2
		C4.5,13.776,4.724,14,5,14s0.5-0.224,0.5-0.5v-2C5.5,10.673,6.173,10,7,10h8.5v3.5c0,0.276,0.224,0.5,0.5,0.5s0.5-0.224,0.5-0.5V10
		H25c0.827,0,1.5,0.673,1.5,1.5v2c0,0.276,0.224,0.5,0.5,0.5s0.5-0.224,0.5-0.5v-2C27.5,10.122,26.379,9,25,9z"/>
	<path fill="#DFE8F5" d="M25,22h-8.5v-3.5c0-0.276-0.224-0.5-0.5-0.5s-0.5,0.224-0.5,0.5V22H7c-1.379,0-2.5,1.122-2.5,2.5v2
		C4.5,26.776,4.724,27,5,27s0.5-0.224,0.5-0.5v-2C5.5,23.673,6.173,23,7,23h9h9c0.827,0,1.5,0.673,1.5,1.5v2
		c0,0.276,0.224,0.5,0.5,0.5s0.5-0.224,0.5-0.5v-2C27.5,23.122,26.379,22,25,22z"/>
</g>
<g>
	<path fill="#328EFC" d="M18.5,13h-5c-0.827,0-1.5,0.673-1.5,1.5v3c0,0.827,0.673,1.5,1.5,1.5h5c0.827,0,1.5-0.673,1.5-1.5v-3
		C20,13.673,19.327,13,18.5,13z"/>
	<path fill="#328EFC" d="M18.5,0h-5C12.673,0,12,0.673,12,1.5v3C12,5.327,12.673,6,13.5,6h5C19.327,6,20,5.327,20,4.5v-3
		C20,0.673,19.327,0,18.5,0z"/>
	<path fill="#328EFC" d="M7.5,26h-5C1.673,26,1,26.673,1,27.5v3C1,31.327,1.673,32,2.5,32h5C8.327,32,9,31.327,9,30.5v-3
		C9,26.673,8.327,26,7.5,26z"/>
	<path fill="#328EFC" d="M29.5,26h-5c-0.827,0-1.5,0.673-1.5,1.5v3c0,0.827,0.673,1.5,1.5,1.5h5c0.827,0,1.5-0.673,1.5-1.5v-3
		C31,26.673,30.327,26,29.5,26z"/>
	<path fill="#328EFC" d="M7.5,13h-5C1.673,13,1,13.673,1,14.5v3C1,18.327,1.673,19,2.5,19h5C8.327,19,9,18.327,9,17.5v-3
		C9,13.673,8.327,13,7.5,13z"/>
	<path fill="#328EFC" d="M29.5,13h-5c-0.827,0-1.5,0.673-1.5,1.5v3c0,0.827,0.673,1.5,1.5,1.5h5c0.827,0,1.5-0.673,1.5-1.5v-3
		C31,13.673,30.327,13,29.5,13z"/>
</g>
</svg>
