<?xml version="1.0" encoding="utf-8"?>
<!-- Generator: Adobe Illustrator 21.0.0, SVG Export Plug-In . SVG Version: 6.00 Build 0)  -->
<svg version="1.1" id="monochrome" xmlns="http://www.w3.org/2000/svg" xmlns:xlink="http://www.w3.org/1999/xlink" x="0px" y="0px"
	 viewBox="0 0 32 32" enable-background="new 0 0 32 32" xml:space="preserve">
<path fill="#DFE8F5" d="M23.5,27h-1c-1.93,0-3.5-1.57-3.5-3.5c0-0.276-0.224-0.5-0.5-0.5h-5c-0.276,0-0.5,0.224-0.5,0.5
	c0,1.93-1.57,3.5-3.5,3.5h-1C8.224,27,8,27.224,8,27.5S8.224,28,8.5,28h1h13h1c0.276,0,0.5-0.224,0.5-0.5S23.776,27,23.5,27z"/>
<path fill="#A6D3F4" d="M29.5,0h-27C1.122,0,0,1.122,0,2.5v16C0,18.776,0.224,19,0.5,19h31c0.276,0,0.5-0.224,0.5-0.5v-16
	C32,1.122,30.878,0,29.5,0z"/>
<g>
	<g>
		<g>
			<path fill="#0D66D1" d="M14.5,5C14.224,5,14,5.224,14,5.5C14,6.327,13.327,7,12.5,7C12.224,7,12,7.224,12,7.5v3
				c0,0.175,0.091,0.337,0.241,0.428C12.32,10.976,12.41,11,12.5,11c0.08,0,0.159-0.019,0.232-0.057l0.198-0.104
				C14.207,10.212,15,8.933,15,7.5v-2C15,5.224,14.776,5,14.5,5z"/>
		</g>
	</g>
	<g>
		<g>
			<path fill="#328EFC" d="M15.515,18.5l-0.239-0.957c0,0,0,0,0,0c-0.224-0.897-0.921-1.594-1.819-1.818l-2.836-0.709
				C10.582,15.005,10.541,15,10.5,15h-3c-0.041,0-0.082,0.005-0.121,0.015l-2.836,0.709c-0.897,0.224-1.594,0.921-1.818,1.819
				L2.485,18.5H15.515z"/>
		</g>
	</g>
	<g>
		<g>
			<g>
				<g>
					<path fill="#A6D3F4" d="M10.518,13.766l-3-0.105c-0.134-0.008-0.267,0.046-0.365,0.14C7.055,13.895,7,14.024,7,14.16V15
						c0,1.103,0.897,2,2,2s2-0.897,2-2v-0.734C11,13.996,10.787,13.775,10.518,13.766z"/>
				</g>
			</g>
		</g>
		<g>
			<g>
				<g>
					<g>
						<path fill="#328EFC" d="M14.5,3h-7C6.825,3,6.197,3.263,5.741,3.731c-0.368,0.358-0.608,0.812-0.7,1.31
							c-0.498,0.091-0.95,0.33-1.3,0.69C3.263,6.197,3,6.825,3,7.5c0,1.433,0.793,2.712,2.058,3.333l0.21,0.11
							C5.341,10.981,5.42,11,5.5,11c0.09,0,0.18-0.024,0.259-0.072C5.909,10.837,6,10.675,6,10.5v-2C6,8.224,6.224,8,6.5,8h6
							C13.878,8,15,6.878,15,5.5v-2C15,3.224,14.776,3,14.5,3z"/>
					</g>
				</g>
			</g>
		</g>
	</g>
	<g>
		<g>
			<path fill="#DFE8F5" d="M12.5,7h-6C5.673,7,5,7.673,5,8.5V11c0,2.206,1.794,4,4,4c1.074,0,2.078-0.419,2.82-1.174
				C12.581,13.078,13,12.074,13,11V7.5C13,7.224,12.776,7,12.5,7z"/>
		</g>
	</g>
</g>
<path fill="#0D66D1" d="M31.5,18h-31C0.224,18,0,18.224,0,18.5v3C0,22.878,1.122,24,2.5,24h27c1.378,0,2.5-1.122,2.5-2.5v-3
	C32,18.224,31.776,18,31.5,18z"/>
<circle fill="#FFFFFF" cx="16" cy="21" r="1"/>
<g>
	<path fill="#0D66D1" d="M22.5,6h-5C17.224,6,17,5.776,17,5.5S17.224,5,17.5,5h5C22.776,5,23,5.224,23,5.5S22.776,6,22.5,6z"/>
</g>
<g>
	<path fill="#0D66D1" d="M28.5,9h-11C17.224,9,17,8.776,17,8.5S17.224,8,17.5,8h11C28.776,8,29,8.224,29,8.5S28.776,9,28.5,9z"/>
</g>
<g>
	<path fill="#0D66D1" d="M28.5,12h-11c-0.276,0-0.5-0.224-0.5-0.5s0.224-0.5,0.5-0.5h11c0.276,0,0.5,0.224,0.5,0.5
		S28.776,12,28.5,12z"/>
</g>
<g>
	<g>
		<g>
			<path fill="#0D66D1" d="M30.5,16c-0.276,0-0.5,0.224-0.5,0.5c0,0.827-0.673,1.5-1.5,1.5c-0.276,0-0.5,0.224-0.5,0.5v3
				c0,0.175,0.091,0.337,0.241,0.428C28.32,21.976,28.41,22,28.5,22c0.08,0,0.159-0.019,0.232-0.057l0.198-0.104
				C30.207,21.212,31,19.933,31,18.5v-2C31,16.224,30.776,16,30.5,16z"/>
		</g>
	</g>
	<g>
		<g>
			<path fill="#328EFC" d="M31.985,31.379l-0.709-2.836c0,0,0,0,0,0c-0.224-0.897-0.921-1.594-1.819-1.818l-2.836-0.709
				C26.582,26.005,26.541,26,26.5,26h-3c-0.041,0-0.082,0.005-0.121,0.015l-2.836,0.709c-0.897,0.224-1.594,0.921-1.818,1.819
				l-0.709,2.836c-0.038,0.149-0.004,0.308,0.091,0.429C18.201,31.929,18.346,32,18.5,32h13c0.154,0,0.299-0.071,0.394-0.192
				C31.989,31.687,32.022,31.528,31.985,31.379z"/>
		</g>
	</g>
	<g>
		<g>
			<g>
				<g>
					<path fill="#A6D3F4" d="M26.518,24.766l-3-0.105c-0.134-0.008-0.267,0.046-0.365,0.14C23.055,24.895,23,25.024,23,25.16V26
						c0,1.103,0.897,2,2,2s2-0.897,2-2v-0.734C27,24.996,26.787,24.775,26.518,24.766z"/>
				</g>
			</g>
		</g>
		<g>
			<g>
				<g>
					<g>
						<path fill="#328EFC" d="M30.5,14h-7c-0.675,0-1.303,0.263-1.759,0.731c-0.368,0.358-0.608,0.812-0.7,1.31
							c-0.498,0.091-0.95,0.33-1.3,0.69C19.263,17.197,19,17.825,19,18.5c0,1.433,0.793,2.712,2.058,3.333l0.21,0.11
							C21.341,21.981,21.42,22,21.5,22c0.09,0,0.18-0.024,0.259-0.072C21.909,21.837,22,21.675,22,21.5v-2
							c0-0.276,0.224-0.5,0.5-0.5h6c1.378,0,2.5-1.122,2.5-2.5v-2C31,14.224,30.776,14,30.5,14z"/>
					</g>
				</g>
			</g>
		</g>
	</g>
	<g>
		<g>
			<path fill="#DFE8F5" d="M28.5,18h-6c-0.827,0-1.5,0.673-1.5,1.5V22c0,2.206,1.794,4,4,4c1.074,0,2.078-0.419,2.82-1.174
				C28.581,24.078,29,23.074,29,22v-3.5C29,18.224,28.776,18,28.5,18z"/>
		</g>
	</g>
</g>
</svg>
