<?xml version="1.0" encoding="utf-8"?>
<!-- Generator: Adobe Illustrator 21.0.0, SVG Export Plug-In . SVG Version: 6.00 Build 0)  -->
<svg version="1.1" id="monochrome" xmlns="http://www.w3.org/2000/svg" xmlns:xlink="http://www.w3.org/1999/xlink" x="0px" y="0px"
	 viewBox="0 0 32 32" enable-background="new 0 0 32 32" xml:space="preserve">
<g>
	<path fill="#0D66D1" d="M16,13c-0.276,0-0.5-0.224-0.5-0.5v-3C15.5,9.224,15.724,9,16,9s0.5,0.224,0.5,0.5v3
		C16.5,12.776,16.276,13,16,13z"/>
</g>
<g>
	<path fill="#0D66D1" d="M16,23c-0.276,0-0.5-0.224-0.5-0.5v-3c0-0.276,0.224-0.5,0.5-0.5s0.5,0.224,0.5,0.5v3
		C16.5,22.776,16.276,23,16,23z"/>
</g>
<g>
	<path fill="#DFE8F5" d="M6.5,16.5C6.776,16.5,7,16.276,7,16s-0.224-0.5-0.5-0.5h-4C2.224,15.5,2,15.724,2,16v5.293l-1.146-1.146
		c-0.195-0.195-0.512-0.195-0.707,0s-0.195,0.512,0,0.707L2,22.707V26c0,0.276,0.224,0.5,0.5,0.5h4C6.776,26.5,7,26.276,7,26
		s-0.224-0.5-0.5-0.5H3v-2.793l1.854-1.854c0.195-0.195,0.195-0.512,0-0.707s-0.512-0.195-0.707,0L3,21.293V16.5H6.5z"/>
	<path fill="#DFE8F5" d="M31.854,10.146c-0.195-0.195-0.512-0.195-0.707,0L30,11.293V6c0-0.276-0.224-0.5-0.5-0.5h-4
		C25.224,5.5,25,5.724,25,6s0.224,0.5,0.5,0.5H29v4.793l-1.146-1.146c-0.195-0.195-0.512-0.195-0.707,0s-0.195,0.512,0,0.707
		L29,12.707V15.5h-3.5c-0.276,0-0.5,0.224-0.5,0.5s0.224,0.5,0.5,0.5h4c0.276,0,0.5-0.224,0.5-0.5v-3.293l1.854-1.854
		C32.049,10.658,32.049,10.342,31.854,10.146z"/>
</g>
<g>
	<path fill="#328EFC" d="M24.5,12h-17C6.673,12,6,12.673,6,13.5v5C6,19.327,6.673,20,7.5,20h17c0.827,0,1.5-0.673,1.5-1.5v-5
		C26,12.673,25.327,12,24.5,12z"/>
	<path fill="#328EFC" d="M24.5,2h-17C6.673,2,6,2.673,6,3.5v5C6,9.327,6.673,10,7.5,10h17c0.827,0,1.5-0.673,1.5-1.5v-5
		C26,2.673,25.327,2,24.5,2z"/>
	<path fill="#328EFC" d="M24.5,22h-17C6.673,22,6,22.673,6,23.5v5C6,29.327,6.673,30,7.5,30h17c0.827,0,1.5-0.673,1.5-1.5v-5
		C26,22.673,25.327,22,24.5,22z"/>
</g>
<g>
	<g>
		<path fill="#FFFFFF" d="M10.5,15h-1C9.224,15,9,14.776,9,14.5S9.224,14,9.5,14h1c0.276,0,0.5,0.224,0.5,0.5S10.776,15,10.5,15z"/>
	</g>
	<g>
		<path fill="#FFFFFF" d="M18.5,15h-6c-0.276,0-0.5-0.224-0.5-0.5s0.224-0.5,0.5-0.5h6c0.276,0,0.5,0.224,0.5,0.5S18.776,15,18.5,15
			z"/>
	</g>
	<g>
		<path fill="#FFFFFF" d="M22.5,18h-13C9.224,18,9,17.776,9,17.5S9.224,17,9.5,17h13c0.276,0,0.5,0.224,0.5,0.5S22.776,18,22.5,18z"
			/>
	</g>
</g>
<g>
	<g>
		<path fill="#FFFFFF" d="M10.5,5h-1C9.224,5,9,4.776,9,4.5S9.224,4,9.5,4h1C10.776,4,11,4.224,11,4.5S10.776,5,10.5,5z"/>
	</g>
	<g>
		<path fill="#FFFFFF" d="M18.5,5h-6C12.224,5,12,4.776,12,4.5S12.224,4,12.5,4h6C18.776,4,19,4.224,19,4.5S18.776,5,18.5,5z"/>
	</g>
	<g>
		<path fill="#FFFFFF" d="M22.5,8h-13C9.224,8,9,7.776,9,7.5S9.224,7,9.5,7h13C22.776,7,23,7.224,23,7.5S22.776,8,22.5,8z"/>
	</g>
</g>
<g>
	<g>
		<path fill="#FFFFFF" d="M10.5,25h-1C9.224,25,9,24.776,9,24.5S9.224,24,9.5,24h1c0.276,0,0.5,0.224,0.5,0.5S10.776,25,10.5,25z"/>
	</g>
	<g>
		<path fill="#FFFFFF" d="M18.5,25h-6c-0.276,0-0.5-0.224-0.5-0.5s0.224-0.5,0.5-0.5h6c0.276,0,0.5,0.224,0.5,0.5S18.776,25,18.5,25
			z"/>
	</g>
	<g>
		<path fill="#FFFFFF" d="M22.5,28h-13C9.224,28,9,27.776,9,27.5S9.224,27,9.5,27h13c0.276,0,0.5,0.224,0.5,0.5S22.776,28,22.5,28z"
			/>
	</g>
</g>
</svg>
