<?xml version="1.0" encoding="utf-8"?>
<!-- Generator: Adobe Illustrator 21.0.0, SVG Export Plug-In . SVG Version: 6.00 Build 0)  -->
<svg version="1.1" id="flat" xmlns="http://www.w3.org/2000/svg" xmlns:xlink="http://www.w3.org/1999/xlink" x="0px" y="0px"
	 viewBox="0 0 32 32" enable-background="new 0 0 32 32" xml:space="preserve">
<path fill="#E4E5ED" d="M29.5,2h-27C1.121,2,0,3.122,0,4.5v23C0,28.878,1.121,30,2.5,30h27c1.379,0,2.5-1.122,2.5-2.5v-23
	C32,3.122,30.879,2,29.5,2z"/>
<g>
	<g>
		<path fill="#444449" d="M19.5,11h-15C3.673,11,3,11.673,3,12.5v1C3,14.327,3.673,15,4.5,15h15c0.827,0,1.5-0.673,1.5-1.5v-1
			C21,11.673,20.327,11,19.5,11z"/>
		<path fill="#444449" d="M19.5,5h-15C3.673,5,3,5.673,3,6.5v1C3,8.327,3.673,9,4.5,9h15C20.327,9,21,8.327,21,7.5v-1
			C21,5.673,20.327,5,19.5,5z"/>
		<path fill="#444449" d="M19.5,17h-15C3.673,17,3,17.673,3,18.5v1C3,20.327,3.673,21,4.5,21h15c0.827,0,1.5-0.673,1.5-1.5v-1
			C21,17.673,20.327,17,19.5,17z"/>
		<path fill="#444449" d="M19.5,23h-15C3.673,23,3,23.673,3,24.5v1C3,26.327,3.673,27,4.5,27h15c0.827,0,1.5-0.673,1.5-1.5v-1
			C21,23.673,20.327,23,19.5,23z"/>
	</g>
	<g>
		<path fill="#767684" d="M23.5,27c-0.276,0-0.5-0.224-0.5-0.5v-21C23,5.224,23.224,5,23.5,5S24,5.224,24,5.5v21
			C24,26.776,23.776,27,23.5,27z"/>
	</g>
</g>
<g>
	<path fill="#ED412F" d="M27.707,7l1.146-1.146c0.195-0.195,0.195-0.512,0-0.707s-0.512-0.195-0.707,0L27,6.293l-1.146-1.146
		c-0.195-0.195-0.512-0.195-0.707,0s-0.195,0.512,0,0.707L26.293,7l-1.146,1.146c-0.195,0.195-0.195,0.512,0,0.707
		C25.244,8.951,25.372,9,25.5,9s0.256-0.049,0.354-0.146L27,7.707l1.146,1.146C28.244,8.951,28.372,9,28.5,9
		s0.256-0.049,0.354-0.146c0.195-0.195,0.195-0.512,0-0.707L27.707,7z"/>
	<path fill="#ED412F" d="M28.854,11.146c-0.195-0.195-0.512-0.195-0.707,0L27,12.293l-1.146-1.146c-0.195-0.195-0.512-0.195-0.707,0
		s-0.195,0.512,0,0.707L26.293,13l-1.146,1.146c-0.195,0.195-0.195,0.512,0,0.707C25.244,14.951,25.372,15,25.5,15
		s0.256-0.049,0.354-0.146L27,13.707l1.146,1.146C28.244,14.951,28.372,15,28.5,15s0.256-0.049,0.354-0.146
		c0.195-0.195,0.195-0.512,0-0.707L27.707,13l1.146-1.146C29.049,11.658,29.049,11.342,28.854,11.146z"/>
	<path fill="#ED412F" d="M28.854,17.146c-0.195-0.195-0.512-0.195-0.707,0L27,18.293l-1.146-1.146c-0.195-0.195-0.512-0.195-0.707,0
		s-0.195,0.512,0,0.707L26.293,19l-1.146,1.146c-0.195,0.195-0.195,0.512,0,0.707C25.244,20.951,25.372,21,25.5,21
		s0.256-0.049,0.354-0.146L27,19.707l1.146,1.146C28.244,20.951,28.372,21,28.5,21s0.256-0.049,0.354-0.146
		c0.195-0.195,0.195-0.512,0-0.707L27.707,19l1.146-1.146C29.049,17.658,29.049,17.342,28.854,17.146z"/>
	<path fill="#ED412F" d="M28.854,23.146c-0.195-0.195-0.512-0.195-0.707,0L27,24.293l-1.146-1.146c-0.195-0.195-0.512-0.195-0.707,0
		s-0.195,0.512,0,0.707L26.293,25l-1.146,1.146c-0.195,0.195-0.195,0.512,0,0.707C25.244,26.951,25.372,27,25.5,27
		s0.256-0.049,0.354-0.146L27,25.707l1.146,1.146C28.244,26.951,28.372,27,28.5,27s0.256-0.049,0.354-0.146
		c0.195-0.195,0.195-0.512,0-0.707L27.707,25l1.146-1.146C29.049,23.658,29.049,23.342,28.854,23.146z"/>
</g>
</svg>
