<?xml version="1.0" encoding="utf-8"?>
<!-- Generator: Adobe Illustrator 21.0.0, SVG Export Plug-In . SVG Version: 6.00 Build 0)  -->
<svg version="1.1" id="flat" xmlns="http://www.w3.org/2000/svg" xmlns:xlink="http://www.w3.org/1999/xlink" x="0px" y="0px"
	 viewBox="0 0 32 32" enable-background="new 0 0 32 32" xml:space="preserve">
<g>
	<path fill="#009BE0" d="M16,29c2.975,0,5.773-0.978,8.094-2.827c0.216-0.172,0.252-0.487,0.079-0.703
		c-0.172-0.216-0.486-0.25-0.702-0.08C21.329,27.098,18.746,28,16,28C9.383,28,4,22.617,4,16c0-2.745,0.902-5.329,2.609-7.471
		c0.172-0.216,0.136-0.53-0.08-0.703c-0.216-0.171-0.53-0.136-0.703,0.08C3.978,10.228,3,13.026,3,16c0,3.513,1.406,6.7,3.678,9.041
		L5.28,26.506C2.625,23.796,1,20.09,1,16C1,7.898,7.461,1.292,15.5,1.025v1.995c-2.786,0.104-5.404,1.061-7.594,2.806
		C7.69,5.999,7.655,6.313,7.827,6.529c0.171,0.216,0.487,0.251,0.703,0.08C10.671,4.902,13.255,4,16,4
		c6.448,0,11.71,5.116,11.975,11.5h-1.997c-0.23-4.724-3.685-8.628-8.399-9.376c-0.269-0.044-0.529,0.142-0.572,0.415
		c-0.043,0.273,0.143,0.529,0.416,0.572C21.813,7.809,25,11.547,25,16c0,4.962-4.037,9-9,9c-4.962,0-9-4.038-9-9
		c0-4.454,3.187-8.192,7.578-8.889c0.273-0.043,0.459-0.299,0.416-0.572c-0.043-0.273-0.301-0.463-0.572-0.416
		C9.542,6.898,6,11.051,6,16c0,5.514,4.486,10,10,10c5.345,0,9.712-4.219,9.975-9.5h2.005c-0.103,2.558-0.986,4.96-2.588,6.971
		c-0.173,0.216-0.137,0.53,0.079,0.703c0.092,0.073,0.202,0.109,0.312,0.109c0.146,0,0.292-0.064,0.391-0.188
		C28.022,21.772,29,18.974,29,16c0-7-5.565-12.709-12.5-12.975V1.022c3.325,0.112,6.538,1.317,9.095,3.448
		c0.212,0.176,0.527,0.15,0.704-0.064c0.177-0.212,0.148-0.527-0.063-0.704C23.37,1.314,19.735,0,16,0C7.178,0,0,7.178,0,16
		c0,8.288,6.213,15.135,14.452,15.926c0.016,0.002,0.032,0.002,0.048,0.002c0.255,0,0.472-0.193,0.497-0.452
		c0.026-0.275-0.175-0.519-0.45-0.545c-3.3-0.317-6.248-1.677-8.549-3.729l1.406-1.473C9.7,27.757,12.704,29,16,29z"/>
	<path fill="#009BE0" d="M28.756,6.34c-0.168-0.22-0.482-0.262-0.7-0.096c-0.221,0.167-0.264,0.48-0.097,0.701
		C29.948,9.567,31,12.698,31,16c0,7.77-5.824,14.189-13.548,14.931c-0.274,0.026-0.476,0.271-0.45,0.545
		c0.025,0.259,0.243,0.452,0.497,0.452c0.017,0,0.032,0,0.049-0.002C25.787,31.135,32,24.288,32,16
		C32,12.478,30.878,9.138,28.756,6.34z"/>
</g>
<g>
	<g>
		<g>
			<path fill="#E4E5ED" d="M18.5,21h-5c-0.276,0-0.5,0.224-0.5,0.5v1c0,0.827,0.673,1.5,1.5,1.5h3c0.827,0,1.5-0.673,1.5-1.5v-1
				C19,21.224,18.776,21,18.5,21z"/>
			<path fill="#FFB000" d="M19.152,9.119c-1.176-0.956-2.716-1.322-4.224-1.007c-1.976,0.412-3.526,2.034-3.858,4.037
				c-0.259,1.564,0.206,3.117,1.274,4.262C12.768,16.862,13,17.516,13,18.251V18.5c0,0.276,0.224,0.5,0.5,0.5h5
				c0.276,0,0.5-0.224,0.5-0.5v-0.399c0-0.653,0.212-1.232,0.598-1.632C20.502,15.533,21,14.301,21,13
				C21,11.488,20.326,10.073,19.152,9.119z"/>
		</g>
	</g>
	<path fill="#444449" d="M18.5,18h-5c-0.827,0-1.5,0.673-1.5,1.5v1c0,0.827,0.673,1.5,1.5,1.5h5c0.827,0,1.5-0.673,1.5-1.5v-1
		C20,18.673,19.327,18,18.5,18z"/>
</g>
</svg>
