<?xml version="1.0" encoding="utf-8"?>
<!-- Generator: Adobe Illustrator 21.0.0, SVG Export Plug-In . SVG Version: 6.00 Build 0)  -->
<svg version="1.1" id="flat" xmlns="http://www.w3.org/2000/svg" xmlns:xlink="http://www.w3.org/1999/xlink" x="0px" y="0px"
	 viewBox="0 0 32 32" enable-background="new 0 0 32 32" xml:space="preserve">
<path fill="#333338" d="M26.5,0h-15C10.122,0,9,1.122,9,2.5v1c0,0.105,0.034,0.208,0.096,0.294l16,22C25.19,25.923,25.34,26,25.5,26
	h1c1.378,0,2.5-1.122,2.5-2.5v-21C29,1.122,27.878,0,26.5,0z"/>
<path fill="#444449" d="M23.5,3h-15C7.122,3,6,4.122,6,5.5v1c0,0.105,0.034,0.208,0.096,0.294l16,22C22.19,28.923,22.34,29,22.5,29
	h1c1.378,0,2.5-1.122,2.5-2.5v-21C26,4.122,24.878,3,23.5,3z"/>
<path fill="#E4E5ED" d="M20.5,6h-15C4.122,6,3,7.122,3,8.5v21C3,30.878,4.122,32,5.5,32h15c1.378,0,2.5-1.122,2.5-2.5v-21
	C23,7.122,21.878,6,20.5,6z"/>
<g>
	<circle fill="#009BE0" cx="13" cy="11" r="2"/>
	<path fill="#009BE0" d="M15.947,16.276l-0.724-1.447C14.968,14.318,14.454,14,13.882,14h-1.764c-0.572,0-1.086,0.318-1.342,0.829
		l-0.724,1.447c-0.094,0.188-0.06,0.416,0.084,0.568C10.825,17.568,11.895,18,13,18s2.175-0.432,2.863-1.156
		C16.007,16.692,16.042,16.465,15.947,16.276z"/>
</g>
<g>
	<path fill="#767684" d="M16.5,20h-7C9.224,20,9,19.776,9,19.5S9.224,19,9.5,19h7c0.276,0,0.5,0.224,0.5,0.5S16.776,20,16.5,20z"/>
</g>
<g>
	<path fill="#767684" d="M19.5,23h-9c-0.276,0-0.5-0.224-0.5-0.5s0.224-0.5,0.5-0.5h9c0.276,0,0.5,0.224,0.5,0.5S19.776,23,19.5,23z
		"/>
</g>
<g>
	<path fill="#767684" d="M8.5,23h-2C6.224,23,6,22.776,6,22.5S6.224,22,6.5,22h2C8.776,22,9,22.224,9,22.5S8.776,23,8.5,23z"/>
</g>
<g>
	<path fill="#767684" d="M19.5,26h-9c-0.276,0-0.5-0.224-0.5-0.5s0.224-0.5,0.5-0.5h9c0.276,0,0.5,0.224,0.5,0.5S19.776,26,19.5,26z
		"/>
</g>
<g>
	<path fill="#767684" d="M8.5,26h-2C6.224,26,6,25.776,6,25.5S6.224,25,6.5,25h2C8.776,25,9,25.224,9,25.5S8.776,26,8.5,26z"/>
</g>
<g>
	<path fill="#767684" d="M19.5,29h-9c-0.276,0-0.5-0.224-0.5-0.5s0.224-0.5,0.5-0.5h9c0.276,0,0.5,0.224,0.5,0.5S19.776,29,19.5,29z
		"/>
</g>
<g>
	<path fill="#767684" d="M8.5,29h-2C6.224,29,6,28.776,6,28.5S6.224,28,6.5,28h2C8.776,28,9,28.224,9,28.5S8.776,29,8.5,29z"/>
</g>
</svg>
