<?xml version="1.0" encoding="utf-8"?>
<!-- Generator: Adobe Illustrator 21.0.0, SVG Export Plug-In . SVG Version: 6.00 Build 0)  -->
<svg version="1.1" id="flat" xmlns="http://www.w3.org/2000/svg" xmlns:xlink="http://www.w3.org/1999/xlink" x="0px" y="0px"
	 viewBox="0 0 32 32" enable-background="new 0 0 32 32" xml:space="preserve">
<path fill="#E4E5ED" d="M29.5,2h-27C1.122,2,0,3.122,0,4.5v23C0,28.878,1.122,30,2.5,30h27c1.378,0,2.5-1.122,2.5-2.5v-23
	C32,3.122,30.878,2,29.5,2z"/>
<g>
	<g>
		<path fill="#444449" d="M19.5,11h-15C3.673,11,3,11.673,3,12.5v1C3,14.327,3.673,15,4.5,15h15c0.827,0,1.5-0.673,1.5-1.5v-1
			C21,11.673,20.327,11,19.5,11z"/>
		<path fill="#444449" d="M19.5,5h-15C3.673,5,3,5.673,3,6.5v1C3,8.327,3.673,9,4.5,9h15C20.327,9,21,8.327,21,7.5v-1
			C21,5.673,20.327,5,19.5,5z"/>
		<path fill="#444449" d="M19.5,17h-15C3.673,17,3,17.673,3,18.5v1C3,20.327,3.673,21,4.5,21h15c0.827,0,1.5-0.673,1.5-1.5v-1
			C21,17.673,20.327,17,19.5,17z"/>
		<path fill="#444449" d="M19.5,23h-15C3.673,23,3,23.673,3,24.5v1C3,26.327,3.673,27,4.5,27h15c0.827,0,1.5-0.673,1.5-1.5v-1
			C21,23.673,20.327,23,19.5,23z"/>
	</g>
	<g>
		<path fill="#767684" d="M23.5,27c-0.276,0-0.5-0.224-0.5-0.5v-21C23,5.224,23.224,5,23.5,5S24,5.224,24,5.5v21
			C24,26.776,23.776,27,23.5,27z"/>
	</g>
	<g>
		<path fill="#009BE0" d="M26.5,9c-0.128,0-0.256-0.049-0.354-0.146l-1-1c-0.195-0.195-0.195-0.512,0-0.707s0.512-0.195,0.707,0
			L26.5,7.793l1.646-1.646c0.195-0.195,0.512-0.195,0.707,0s0.195,0.512,0,0.707l-2,2C26.756,8.951,26.628,9,26.5,9z"/>
	</g>
	<g>
		<path fill="#009BE0" d="M26.5,15c-0.128,0-0.256-0.049-0.354-0.146l-1-1c-0.195-0.195-0.195-0.512,0-0.707s0.512-0.195,0.707,0
			l0.646,0.646l1.646-1.646c0.195-0.195,0.512-0.195,0.707,0s0.195,0.512,0,0.707l-2,2C26.756,14.951,26.628,15,26.5,15z"/>
	</g>
	<g>
		<path fill="#009BE0" d="M26.5,21c-0.128,0-0.256-0.049-0.354-0.146l-1-1c-0.195-0.195-0.195-0.512,0-0.707s0.512-0.195,0.707,0
			l0.646,0.646l1.646-1.646c0.195-0.195,0.512-0.195,0.707,0s0.195,0.512,0,0.707l-2,2C26.756,20.951,26.628,21,26.5,21z"/>
	</g>
	<g>
		<path fill="#009BE0" d="M26.5,27c-0.128,0-0.256-0.049-0.354-0.146l-1-1c-0.195-0.195-0.195-0.512,0-0.707s0.512-0.195,0.707,0
			l0.646,0.646l1.646-1.646c0.195-0.195,0.512-0.195,0.707,0s0.195,0.512,0,0.707l-2,2C26.756,26.951,26.628,27,26.5,27z"/>
	</g>
</g>
</svg>
