<?xml version="1.0" encoding="utf-8"?>
<!-- Generator: Adobe Illustrator 21.0.0, SVG Export Plug-In . SVG Version: 6.00 Build 0)  -->
<svg version="1.1" id="flat" xmlns="http://www.w3.org/2000/svg" xmlns:xlink="http://www.w3.org/1999/xlink" x="0px" y="0px"
	 viewBox="0 0 32 32" enable-background="new 0 0 32 32" xml:space="preserve">
<g>
	<circle fill="#009BE0" cx="16" cy="24" r="2"/>
	<path fill="#009BE0" d="M18.224,27.829C17.968,27.318,17.454,27,16.882,27h-1.764c-0.572,0-1.086,0.318-1.342,0.829l-0.724,1.447
		c-0.094,0.188-0.06,0.416,0.084,0.568C13.825,30.568,14.895,31,16,31s2.175-0.432,2.863-1.156c0.145-0.152,0.179-0.379,0.084-0.568
		L18.224,27.829z"/>
	<circle fill="#009BE0" cx="6" cy="24" r="2"/>
	<path fill="#009BE0" d="M8.224,27.829C7.968,27.318,7.454,27,6.882,27H5.118c-0.572,0-1.086,0.318-1.342,0.829l-0.724,1.447
		c-0.094,0.188-0.06,0.416,0.084,0.568C3.825,30.568,4.895,31,6,31s2.175-0.432,2.863-1.156c0.145-0.152,0.179-0.379,0.084-0.568
		L8.224,27.829z"/>
	<circle fill="#009BE0" cx="26" cy="24" r="2"/>
	<path fill="#009BE0" d="M28.947,29.276l-0.724-1.447C27.968,27.318,27.454,27,26.882,27h-1.764c-0.572,0-1.086,0.318-1.342,0.829
		l-0.724,1.447c-0.094,0.188-0.06,0.416,0.084,0.568C23.825,30.568,24.895,31,26,31s2.175-0.432,2.863-1.156
		C29.007,29.692,29.042,29.465,28.947,29.276z"/>
</g>
<g>
	<g>
		<path fill="#333338" d="M21.5,3C21.224,3,21,3.224,21,3.5C21,4.327,20.327,5,19.5,5C19.224,5,19,5.224,19,5.5v3
			c0,0.175,0.091,0.337,0.241,0.428C19.32,8.976,19.41,9,19.5,9c0.08,0,0.159-0.019,0.232-0.057l0.198-0.104
			C21.207,8.212,22,6.933,22,5.5v-2C22,3.224,21.776,3,21.5,3z"/>
	</g>
	<g>
		<path fill="#009BE0" d="M22.985,18.379l-0.709-2.836c0,0,0,0,0,0c-0.224-0.897-0.921-1.594-1.819-1.818l-2.836-0.709
			C17.582,13.005,17.541,13,17.5,13h-3c-0.041,0-0.082,0.005-0.121,0.015l-2.836,0.709c-0.897,0.224-1.594,0.921-1.818,1.819
			l-0.709,2.836c-0.038,0.149-0.004,0.308,0.091,0.429C9.201,18.929,9.346,19,9.5,19h13c0.154,0,0.299-0.071,0.394-0.192
			C22.989,18.687,23.022,18.528,22.985,18.379z"/>
	</g>
	<g>
		<g>
			<g>
				<path fill="#F2A057" d="M17.518,11.766l-3-0.105c-0.134-0.008-0.267,0.046-0.365,0.14C14.055,11.895,14,12.024,14,12.16V13
					c0,1.103,0.897,2,2,2s2-0.897,2-2v-0.734C18,11.996,17.787,11.775,17.518,11.766z"/>
			</g>
		</g>
		<g>
			<g>
				<g>
					<path fill="#444449" d="M21.5,1h-7c-0.675,0-1.303,0.263-1.759,0.731c-0.368,0.358-0.608,0.812-0.7,1.31
						c-0.498,0.091-0.95,0.33-1.3,0.69C10.263,4.197,10,4.825,10,5.5c0,1.433,0.793,2.712,2.058,3.333l0.21,0.11
						C12.341,8.981,12.42,9,12.5,9c0.09,0,0.18-0.024,0.259-0.072C12.909,8.837,13,8.675,13,8.5v-2C13,6.224,13.224,6,13.5,6h6
						C20.878,6,22,4.878,22,3.5v-2C22,1.224,21.776,1,21.5,1z"/>
				</g>
			</g>
		</g>
	</g>
	<g>
		<path fill="#FFBE7D" d="M19.5,5h-6C12.673,5,12,5.673,12,6.5V9c0,2.206,1.794,4,4,4c1.074,0,2.078-0.419,2.82-1.174
			C19.581,11.078,20,10.074,20,9V5.5C20,5.224,19.776,5,19.5,5z"/>
	</g>
</g>
</svg>
