<?xml version="1.0" encoding="utf-8"?>
<!-- Generator: Adobe Illustrator 21.0.0, SVG Export Plug-In . SVG Version: 6.00 Build 0)  -->
<svg version="1.1" id="flat" xmlns="http://www.w3.org/2000/svg" xmlns:xlink="http://www.w3.org/1999/xlink" x="0px" y="0px"
	 viewBox="0 0 32 32" enable-background="new 0 0 32 32" xml:space="preserve">
<g>
	<circle fill="#009BE0" cx="26.5" cy="9.5" r="5.5"/>
	<circle fill="#009BE0" cx="5.5" cy="9.5" r="5.5"/>
</g>
<g>
	<path fill="#FFB000" d="M18.124,2.876C17.559,2.311,16.804,2,16,2c-1.654,0-3,1.346-3,3v18.5c0,0.276,0.224,0.5,0.5,0.5h5
		c0.276,0,0.5-0.224,0.5-0.5V5C19,4.196,18.689,3.442,18.124,2.876z"/>
</g>
<g>
	<path fill="#FFFFFF" d="M28.5,10h-4C24.224,10,24,9.776,24,9.5S24.224,9,24.5,9h4C28.776,9,29,9.224,29,9.5S28.776,10,28.5,10z"/>
</g>
<path fill="#FFFFFF" d="M7.5,9H6V7.5C6,7.224,5.776,7,5.5,7S5,7.224,5,7.5V9H3.5C3.224,9,3,9.224,3,9.5S3.224,10,3.5,10H5v1.5
	C5,11.776,5.224,12,5.5,12S6,11.776,6,11.5V10h1.5C7.776,10,8,9.776,8,9.5S7.776,9,7.5,9z"/>
<g>
	<path fill="#E4E5ED" d="M10.5,18h-9C1.224,18,1,17.776,1,17.5S1.224,17,1.5,17h9c0.276,0,0.5,0.224,0.5,0.5S10.776,18,10.5,18z"/>
</g>
<g>
	<path fill="#E4E5ED" d="M10.5,21h-9C1.224,21,1,20.776,1,20.5S1.224,20,1.5,20h9c0.276,0,0.5,0.224,0.5,0.5S10.776,21,10.5,21z"/>
</g>
<g>
	<path fill="#E4E5ED" d="M10.5,24h-9C1.224,24,1,23.776,1,23.5S1.224,23,1.5,23h9c0.276,0,0.5,0.224,0.5,0.5S10.776,24,10.5,24z"/>
</g>
<g>
	<path fill="#E4E5ED" d="M10.5,27h-9C1.224,27,1,26.776,1,26.5S1.224,26,1.5,26h9c0.276,0,0.5,0.224,0.5,0.5S10.776,27,10.5,27z"/>
</g>
<g>
	<path fill="#E4E5ED" d="M30.5,18h-9c-0.276,0-0.5-0.224-0.5-0.5s0.224-0.5,0.5-0.5h9c0.276,0,0.5,0.224,0.5,0.5S30.776,18,30.5,18z
		"/>
</g>
<g>
	<path fill="#E4E5ED" d="M30.5,21h-9c-0.276,0-0.5-0.224-0.5-0.5s0.224-0.5,0.5-0.5h9c0.276,0,0.5,0.224,0.5,0.5S30.776,21,30.5,21z
		"/>
</g>
<path fill="#444449" d="M18.5,23h-5c-0.276,0-0.5,0.224-0.5,0.5v0.8c0,2.191,0.98,4.229,2.688,5.591C15.779,29.964,15.89,30,16,30
	s0.221-0.036,0.312-0.109C18.02,28.529,19,26.491,19,24.3v-0.8C19,23.224,18.776,23,18.5,23z"/>
</svg>
