<?xml version="1.0" encoding="utf-8"?>
<!-- Generator: Adobe Illustrator 21.0.0, SVG Export Plug-In . SVG Version: 6.00 Build 0)  -->
<svg version="1.1" id="flat" xmlns="http://www.w3.org/2000/svg" xmlns:xlink="http://www.w3.org/1999/xlink" x="0px" y="0px"
	 viewBox="0 0 32 32" enable-background="new 0 0 32 32" xml:space="preserve">
<g>
	<path fill="#FFB000" d="M6.5,8C6.224,8,6,7.776,6,7.5v-3C6,4.224,6.224,4,6.5,4S7,4.224,7,4.5v3C7,7.776,6.776,8,6.5,8z"/>
</g>
<g>
	<path fill="#FFB000" d="M16.5,8C16.224,8,16,7.776,16,7.5v-3C16,4.224,16.224,4,16.5,4S17,4.224,17,4.5v3C17,7.776,16.776,8,16.5,8
		z"/>
</g>
<g>
	<path fill="#FFB000" d="M6.5,15C6.224,15,6,14.776,6,14.5v-3C6,11.224,6.224,11,6.5,11S7,11.224,7,11.5v3C7,14.776,6.776,15,6.5,15
		z"/>
</g>
<g>
	<path fill="#FFB000" d="M16.5,15c-0.276,0-0.5-0.224-0.5-0.5v-3c0-0.276,0.224-0.5,0.5-0.5s0.5,0.224,0.5,0.5v3
		C17,14.776,16.776,15,16.5,15z"/>
</g>
<g>
	<path fill="#FFB000" d="M12.5,28h-2C8.019,28,6,25.981,6,23.5v-5C6,18.224,6.224,18,6.5,18S7,18.224,7,18.5v5
		c0,1.93,1.57,3.5,3.5,3.5h2c0.276,0,0.5,0.224,0.5,0.5S12.776,28,12.5,28z"/>
</g>
<g>
	<path fill="#FFB000" d="M23.5,28h-3c-2.481,0-4.5-2.019-4.5-4.5v-5c0-0.276,0.224-0.5,0.5-0.5s0.5,0.224,0.5,0.5v5
		c0,1.93,1.57,3.5,3.5,3.5h3c0.276,0,0.5,0.224,0.5,0.5S23.776,28,23.5,28z"/>
</g>
<g>
	<path fill="#009BE0" d="M8.5,7h-4C3.673,7,3,7.673,3,8.5v2C3,11.327,3.673,12,4.5,12h4c0.827,0,1.5-0.673,1.5-1.5v-2
		C10,7.673,9.327,7,8.5,7z"/>
	<path fill="#009BE0" d="M18.5,7h-4C13.673,7,13,7.673,13,8.5v2c0,0.827,0.673,1.5,1.5,1.5h4c0.827,0,1.5-0.673,1.5-1.5v-2
		C20,7.673,19.327,7,18.5,7z"/>
	<path fill="#009BE0" d="M8.5,14h-4C3.673,14,3,14.673,3,15.5v2C3,18.327,3.673,19,4.5,19h4c0.827,0,1.5-0.673,1.5-1.5v-2
		C10,14.673,9.327,14,8.5,14z"/>
	<path fill="#009BE0" d="M18.5,14h-4c-0.827,0-1.5,0.673-1.5,1.5v2c0,0.827,0.673,1.5,1.5,1.5h4c0.827,0,1.5-0.673,1.5-1.5v-2
		C20,14.673,19.327,14,18.5,14z"/>
</g>
<path fill="#009BE0" d="M31.854,28.146l-3-3c-0.144-0.143-0.357-0.186-0.545-0.108C28.122,25.115,28,25.298,28,25.5V27H0.5
	C0.224,27,0,27.224,0,27.5v2C0,29.776,0.224,30,0.5,30H28v1.5c0,0.202,0.122,0.385,0.309,0.462C28.371,31.988,28.436,32,28.5,32
	c0.13,0,0.258-0.051,0.354-0.146l3-3C32.049,28.658,32.049,28.342,31.854,28.146z"/>
<g>
	<circle fill="#E4E5ED" cx="6.5" cy="2.5" r="2.5"/>
	<circle fill="#E4E5ED" cx="16.5" cy="2.5" r="2.5"/>
</g>
</svg>
