<?xml version="1.0" encoding="utf-8"?>
<!-- Generator: Adobe Illustrator 21.0.0, SVG Export Plug-In . SVG Version: 6.00 Build 0)  -->
<svg version="1.1" id="flat" xmlns="http://www.w3.org/2000/svg" xmlns:xlink="http://www.w3.org/1999/xlink" x="0px" y="0px"
	 viewBox="0 0 32 32" enable-background="new 0 0 32 32" xml:space="preserve">
<g>
	<path fill="#FFB000" d="M18,5.5C18,5.224,17.776,5,17.5,5h-3C14.224,5,14,5.224,14,5.5v6c0,0.276,0.224,0.5,0.5,0.5h3
		c0.276,0,0.5-0.224,0.5-0.5V5.5z M17,11h-2V6h2V11z"/>
	<path fill="#FFB000" d="M16,16c-0.276,0-0.5,0.224-0.5,0.5v12c0,0.276,0.224,0.5,0.5,0.5s0.5-0.224,0.5-0.5v-12
		C16.5,16.224,16.276,16,16,16z"/>
	<path fill="#FFB000" d="M13.5,16c-0.276,0-0.5,0.224-0.5,0.5v3.775L8.81,24H3c-0.827,0-1.5,0.673-1.5,1.5v3
		C1.5,28.776,1.724,29,2,29s0.5-0.224,0.5-0.5v-3C2.5,25.224,2.724,25,3,25h5.5v3.5C8.5,28.776,8.724,29,9,29s0.5-0.224,0.5-0.5
		v-3.776l4.332-3.851C13.939,20.779,14,20.643,14,20.5v-4C14,16.224,13.776,16,13.5,16z"/>
	<path fill="#FFB000" d="M29,24h-5.81L19,20.275V16.5c0-0.276-0.224-0.5-0.5-0.5S18,16.224,18,16.5v4
		c0,0.143,0.061,0.279,0.168,0.374l4.332,3.851V28.5c0,0.276,0.224,0.5,0.5,0.5s0.5-0.224,0.5-0.5V25H29c0.276,0,0.5,0.224,0.5,0.5
		v3c0,0.276,0.224,0.5,0.5,0.5s0.5-0.224,0.5-0.5v-3C30.5,24.673,29.827,24,29,24z"/>
</g>
<g>
	<path fill="#009BE0" d="M12.5,6h7C20.327,6,21,5.327,21,4.5v-3C21,0.673,20.327,0,19.5,0h-7C11.673,0,11,0.673,11,1.5v3
		C11,5.327,11.673,6,12.5,6z"/>
	<path fill="#009BE0" d="M25.5,11h-19C5.673,11,5,11.673,5,12.5v3C5,16.327,5.673,17,6.5,17h19c0.827,0,1.5-0.673,1.5-1.5v-3
		C27,11.673,26.327,11,25.5,11z"/>
	<circle fill="#E4E5ED" cx="16" cy="30" r="2"/>
	<circle fill="#E4E5ED" cx="23" cy="30" r="2"/>
	<circle fill="#E4E5ED" cx="30" cy="30" r="2"/>
	<circle fill="#E4E5ED" cx="9" cy="30" r="2"/>
	<circle fill="#E4E5ED" cx="2" cy="30" r="2"/>
</g>
</svg>
