<?xml version="1.0" encoding="utf-8"?>
<!-- Generator: Adobe Illustrator 21.0.0, SVG Export Plug-In . SVG Version: 6.00 Build 0)  -->
<svg version="1.1" id="flat" xmlns="http://www.w3.org/2000/svg" xmlns:xlink="http://www.w3.org/1999/xlink" x="0px" y="0px"
	 viewBox="0 0 32 32" enable-background="new 0 0 32 32" xml:space="preserve">
<g>
	<path fill="#444449" d="M12.5,32c-0.276,0-0.5-0.224-0.5-0.5v-10c0-0.276,0.224-0.5,0.5-0.5s0.5,0.224,0.5,0.5v10
		C13,31.776,12.776,32,12.5,32z"/>
</g>
<g>
	<path fill="#444449" d="M12.5,19c-0.276,0-0.5-0.224-0.5-0.5v-5c0-0.276,0.224-0.5,0.5-0.5s0.5,0.224,0.5,0.5v5
		C13,18.776,12.776,19,12.5,19z"/>
</g>
<g>
	<path fill="#444449" d="M12.5,11c-0.276,0-0.5-0.224-0.5-0.5v-10C12,0.224,12.224,0,12.5,0S13,0.224,13,0.5v10
		C13,10.776,12.776,11,12.5,11z"/>
</g>
<g>
	<path fill="#444449" d="M5.5,32C5.224,32,5,31.776,5,31.5v-18C5,13.224,5.224,13,5.5,13S6,13.224,6,13.5v18
		C6,31.776,5.776,32,5.5,32z"/>
</g>
<g>
	<path fill="#444449" d="M5.5,11C5.224,11,5,10.776,5,10.5v-5C5,5.224,5.224,5,5.5,5S6,5.224,6,5.5v5C6,10.776,5.776,11,5.5,11z"/>
</g>
<g>
	<path fill="#444449" d="M5.5,3C5.224,3,5,2.776,5,2.5v-2C5,0.224,5.224,0,5.5,0S6,0.224,6,0.5v2C6,2.776,5.776,3,5.5,3z"/>
</g>
<g>
	<path fill="#444449" d="M19.5,32c-0.276,0-0.5-0.224-0.5-0.5v-2c0-0.276,0.224-0.5,0.5-0.5s0.5,0.224,0.5,0.5v2
		C20,31.776,19.776,32,19.5,32z"/>
</g>
<g>
	<path fill="#444449" d="M19.5,27c-0.276,0-0.5-0.224-0.5-0.5v-5c0-0.276,0.224-0.5,0.5-0.5s0.5,0.224,0.5,0.5v5
		C20,26.776,19.776,27,19.5,27z"/>
</g>
<g>
	<path fill="#444449" d="M19.5,19c-0.276,0-0.5-0.224-0.5-0.5v-18C19,0.224,19.224,0,19.5,0S20,0.224,20,0.5v18
		C20,18.776,19.776,19,19.5,19z"/>
</g>
<g>
	<path fill="#444449" d="M26.5,32c-0.276,0-0.5-0.224-0.5-0.5v-2c0-0.276,0.224-0.5,0.5-0.5s0.5,0.224,0.5,0.5v2
		C27,31.776,26.776,32,26.5,32z"/>
</g>
<g>
	<path fill="#444449" d="M26.5,27c-0.276,0-0.5-0.224-0.5-0.5v-5c0-0.276,0.224-0.5,0.5-0.5s0.5,0.224,0.5,0.5v5
		C27,26.776,26.776,27,26.5,27z"/>
</g>
<g>
	<path fill="#444449" d="M26.5,19c-0.276,0-0.5-0.224-0.5-0.5v-18C26,0.224,26.224,0,26.5,0S27,0.224,27,0.5v18
		C27,18.776,26.776,19,26.5,19z"/>
</g>
<g>
	<path fill="#009BE0" d="M15,12.5v-1c0-0.827-0.673-1.5-1.5-1.5h-9C3.673,10,3,10.673,3,11.5v1C3,13.327,3.673,14,4.5,14h9
		C14.327,14,15,13.327,15,12.5z"/>
	<path fill="#009BE0" d="M10,4.5v-1C10,2.673,9.327,2,8.5,2h-6C1.673,2,1,2.673,1,3.5v1C1,5.327,1.673,6,2.5,6h6
		C9.327,6,10,5.327,10,4.5z"/>
	<path fill="#009BE0" d="M30,20.5v-1c0-0.827-0.673-1.5-1.5-1.5h-18C9.673,18,9,18.673,9,19.5v1c0,0.827,0.673,1.5,1.5,1.5h18
		C29.327,22,30,21.327,30,20.5z"/>
	<path fill="#009BE0" d="M29.5,26h-13c-0.827,0-1.5,0.673-1.5,1.5v1c0,0.827,0.673,1.5,1.5,1.5h13c0.827,0,1.5-0.673,1.5-1.5v-1
		C31,26.673,30.327,26,29.5,26z"/>
</g>
</svg>
