<?xml version="1.0" encoding="utf-8"?>
<!-- Generator: Adobe Illustrator 21.0.0, SVG Export Plug-In . SVG Version: 6.00 Build 0)  -->
<svg version="1.1" id="flat" xmlns="http://www.w3.org/2000/svg" xmlns:xlink="http://www.w3.org/1999/xlink" x="0px" y="0px"
	 viewBox="0 0 32 32" enable-background="new 0 0 32 32" xml:space="preserve">
<path fill="#E4E5ED" d="M31.5,5h-31C0.224,5,0,5.224,0,5.5v24C0,30.878,1.122,32,2.5,32h27c1.378,0,2.5-1.122,2.5-2.5v-24
	C32,5.224,31.776,5,31.5,5z"/>
<g>
	<path fill="#444449" d="M29.5,0h-27C1.122,0,0,1.122,0,2.5v3C0,5.776,0.224,6,0.5,6h31C31.776,6,32,5.776,32,5.5v-3
		C32,1.122,30.878,0,29.5,0z"/>
	<g>
		<circle fill="#FFFFFF" cx="4" cy="3" r="1"/>
	</g>
	<g>
		<circle fill="#FFFFFF" cx="7" cy="3" r="1"/>
	</g>
	<g>
		<circle fill="#FFFFFF" cx="10" cy="3" r="1"/>
	</g>
</g>
<path fill="#FFB000" d="M9,8C8.724,8,8.5,8.224,8.5,8.5V14c0,0.133,0.053,0.26,0.146,0.354l3.889,3.889
	c0.094,0.094,0.221,0.146,0.354,0.146s0.26-0.053,0.354-0.146C14.376,17.109,15,15.602,15,14C15,10.691,12.309,8,9,8z"/>
<path fill="#009BE0" d="M13.243,17.536L9.5,13.793V8.5C9.5,8.224,9.276,8,9,8c-3.309,0-6,2.691-6,6s2.691,6,6,6
	c1.602,0,3.109-0.624,4.243-1.757c0.094-0.094,0.146-0.221,0.146-0.354S13.336,17.629,13.243,17.536z"/>
<g>
	<path fill="#767684" d="M25.5,11h-3c-0.276,0-0.5-0.224-0.5-0.5s0.224-0.5,0.5-0.5h3c0.276,0,0.5,0.224,0.5,0.5S25.776,11,25.5,11z
		"/>
</g>
<g>
	<path fill="#767684" d="M25.5,18h-3c-0.276,0-0.5-0.224-0.5-0.5s0.224-0.5,0.5-0.5h3c0.276,0,0.5,0.224,0.5,0.5S25.776,18,25.5,18z
		"/>
</g>
<g>
	<path fill="#767684" d="M28.5,13h-6c-0.276,0-0.5-0.224-0.5-0.5s0.224-0.5,0.5-0.5h6c0.276,0,0.5,0.224,0.5,0.5S28.776,13,28.5,13z
		"/>
</g>
<g>
	<path fill="#767684" d="M28.5,16h-6c-0.276,0-0.5-0.224-0.5-0.5s0.224-0.5,0.5-0.5h6c0.276,0,0.5,0.224,0.5,0.5S28.776,16,28.5,16z
		"/>
</g>
<g>
	<path fill="#444449" d="M19.5,10h-2c-0.276,0-0.5,0.224-0.5,0.5v2c0,0.276,0.224,0.5,0.5,0.5h2c0.276,0,0.5-0.224,0.5-0.5v-2
		C20,10.224,19.776,10,19.5,10z"/>
	<path fill="#444449" d="M19.5,15h-2c-0.276,0-0.5,0.224-0.5,0.5v2c0,0.276,0.224,0.5,0.5,0.5h2c0.276,0,0.5-0.224,0.5-0.5v-2
		C20,15.224,19.776,15,19.5,15z"/>
	<path fill="#444449" d="M9.5,24h-3C5.673,24,5,24.673,5,25.5v2C5,28.327,5.673,29,6.5,29h3c0.827,0,1.5-0.673,1.5-1.5v-2
		C11,24.673,10.327,24,9.5,24z"/>
	<path fill="#444449" d="M25.5,24h-3c-0.827,0-1.5,0.673-1.5,1.5v2c0,0.827,0.673,1.5,1.5,1.5h3c0.827,0,1.5-0.673,1.5-1.5v-2
		C27,24.673,26.327,24,25.5,24z"/>
	<path fill="#444449" d="M17.5,24h-3c-0.827,0-1.5,0.673-1.5,1.5v2c0,0.827,0.673,1.5,1.5,1.5h3c0.827,0,1.5-0.673,1.5-1.5v-2
		C19,24.673,18.327,24,17.5,24z"/>
</g>
<g>
	<path fill="#767684" d="M9.5,23h-3C6.224,23,6,22.776,6,22.5S6.224,22,6.5,22h3c0.276,0,0.5,0.224,0.5,0.5S9.776,23,9.5,23z"/>
</g>
<g>
	<path fill="#767684" d="M17.5,23h-3c-0.276,0-0.5-0.224-0.5-0.5s0.224-0.5,0.5-0.5h3c0.276,0,0.5,0.224,0.5,0.5S17.776,23,17.5,23z
		"/>
</g>
<g>
	<path fill="#767684" d="M25.5,23h-3c-0.276,0-0.5-0.224-0.5-0.5s0.224-0.5,0.5-0.5h3c0.276,0,0.5,0.224,0.5,0.5S25.776,23,25.5,23z
		"/>
</g>
</svg>
