<?xml version="1.0" encoding="utf-8"?>
<!-- Generator: Adobe Illustrator 21.0.0, SVG Export Plug-In . SVG Version: 6.00 Build 0)  -->
<svg version="1.1" id="flat" xmlns="http://www.w3.org/2000/svg" xmlns:xlink="http://www.w3.org/1999/xlink" x="0px" y="0px"
	 viewBox="0 0 32 32" enable-background="new 0 0 32 32" xml:space="preserve">
<g>
	<g>
		<path fill="#767684" d="M16,29c-0.276,0-0.5-0.224-0.5-0.5v-2c0-0.276,0.224-0.5,0.5-0.5s0.5,0.224,0.5,0.5v2
			C16.5,28.776,16.276,29,16,29z"/>
		<path fill="#767684" d="M16,0c-1.103,0-2,0.897-2,2v0.5C14,2.776,14.224,3,14.5,3h3C17.776,3,18,2.776,18,2.5V2
			C18,0.897,17.103,0,16,0z"/>
		<path fill="#E4E5ED" d="M30.5,5h-29C1.224,5,1,5.224,1,5.5v21C1,26.776,1.224,27,1.5,27h29c0.276,0,0.5-0.224,0.5-0.5v-21
			C31,5.224,30.776,5,30.5,5z"/>
		<path fill="#444449" d="M29.5,2h-27C1.122,2,0,3.122,0,4.5v1C0,5.776,0.224,6,0.5,6h31C31.776,6,32,5.776,32,5.5v-1
			C32,3.122,30.878,2,29.5,2z"/>
		<circle fill="#444449" cx="16" cy="30" r="2"/>
	</g>
	<g>
		<path fill="#444449" d="M31.5,27h-31C0.224,27,0,26.776,0,26.5S0.224,26,0.5,26h31c0.276,0,0.5,0.224,0.5,0.5S31.776,27,31.5,27z"
			/>
	</g>
</g>
<g>
	<g>
		<g>
			<path fill="#009BE0" d="M18.5,19h-9C9.224,19,9,18.776,9,18.5v-9C9,9.224,9.224,9,9.5,9h9C18.776,9,19,9.224,19,9.5v9
				C19,18.776,18.776,19,18.5,19z M10,18h8v-8h-8V18z"/>
		</g>
		<g>
			<path fill="#444449" d="M18,23c-2.757,0-5-2.243-5-5s2.243-5,5-5s5,2.243,5,5S20.757,23,18,23z M18,14c-2.206,0-4,1.794-4,4
				s1.794,4,4,4s4-1.794,4-4S20.206,14,18,14z"/>
		</g>
	</g>
	<g>
		<path fill="#767684" d="M24.5,10C24.224,10,24,9.776,24,9.5V8h-1.5C22.224,8,22,7.776,22,7.5S22.224,7,22.5,7h2
			C24.776,7,25,7.224,25,7.5v2C25,9.776,24.776,10,24.5,10z"/>
	</g>
	<g>
		<path fill="#767684" d="M9.5,25h-2C7.224,25,7,24.776,7,24.5v-2C7,22.224,7.224,22,7.5,22S8,22.224,8,22.5V24h1.5
			c0.276,0,0.5,0.224,0.5,0.5S9.776,25,9.5,25z"/>
	</g>
	<g>
		<path fill="#767684" d="M7.5,10C7.224,10,7,9.776,7,9.5v-2C7,7.224,7.224,7,7.5,7h2C9.776,7,10,7.224,10,7.5S9.776,8,9.5,8H8v1.5
			C8,9.776,7.776,10,7.5,10z"/>
	</g>
	<g>
		<path fill="#767684" d="M24.5,25h-2c-0.276,0-0.5-0.224-0.5-0.5s0.224-0.5,0.5-0.5H24v-1.5c0-0.276,0.224-0.5,0.5-0.5
			s0.5,0.224,0.5,0.5v2C25,24.776,24.776,25,24.5,25z"/>
	</g>
</g>
</svg>
