<?xml version="1.0" encoding="UTF-8"?>
<svg id="Layer_1" data-name="Layer 1" xmlns="http://www.w3.org/2000/svg" viewBox="0 0 944.01 122.04">
  <defs>
    <style>
      .cls-1 {
        fill: #18add4;
        stroke-width: 0px;
      }
    </style>
  </defs>
  <path class="cls-1" d="M364.92,53.4h82.93s0,11.46,0,11.46h-82.93s0-11.46,0-11.46Z"/>
  <path class="cls-1" d="M766.97,53.4h82.93s0,11.46,0,11.46h-82.93s0-11.46,0-11.46Z"/>
  <g>
    <path class="cls-1" d="M19.49,64.67c-6.74,0-11.67-1.72-14.8-5.16-3.13-3.44-4.69-8.72-4.69-15.86v-22.64c0-7.13,1.56-12.42,4.69-15.86C7.81,1.72,12.75,0,19.49,0h58.08v10.6H21.87c-3.63,0-6.27.95-7.93,2.87-1.66,1.91-2.48,4.81-2.48,8.69v20.35c0,3.82.83,6.7,2.48,8.65,1.66,1.94,4.3,2.91,7.93,2.91h55.69v10.6H19.49Z"/>
    <path class="cls-1" d="M106.67,64.67c-6.74,0-11.69-1.72-14.84-5.16-3.15-3.44-4.72-8.72-4.72-15.86v-22.64c0-7.13,1.57-12.42,4.72-15.86,3.15-3.44,8.09-5.16,14.84-5.16h44.27c6.74,0,11.67,1.72,14.79,5.16,3.12,3.44,4.68,8.73,4.68,15.86v22.64c0,7.13-1.56,12.42-4.68,15.86-3.12,3.44-8.05,5.16-14.79,5.16h-44.27ZM158.94,22.16c0-3.88-.81-6.78-2.44-8.69-1.63-1.91-4.26-2.87-7.89-2.87h-39.61c-3.64,0-6.28.95-7.94,2.87-1.66,1.91-2.49,4.81-2.49,8.69v20.35c0,3.82.83,6.7,2.49,8.65,1.66,1.94,4.31,2.91,7.94,2.91h39.61c3.64,0,6.27-.97,7.89-2.91,1.63-1.94,2.44-4.82,2.44-8.65v-20.35Z"/>
    <path class="cls-1" d="M250.93,64.67V22.16c0-7.7-3.44-11.56-10.33-11.56h-48.41v54.06h-11.46V0h62.28c6.69,0,11.59,1.74,14.71,5.21,3.12,3.47,4.68,8.74,4.68,15.81v43.65h-11.46Z"/>
    <path class="cls-1" d="M343.2,64.67V22.16c0-7.7-3.44-11.56-10.33-11.56h-48.41v54.06h-11.46V0h62.28c6.69,0,11.59,1.74,14.71,5.21,3.12,3.47,4.68,8.74,4.68,15.81v43.65h-11.46Z"/>
    <path class="cls-1" d="M477.21,64.67c-6.74,0-11.67-1.72-14.8-5.16s-4.69-8.72-4.69-15.86v-22.64c0-7.13,1.56-12.42,4.69-15.86,3.13-3.44,8.06-5.16,14.8-5.16h58.08v10.6h-55.69c-3.63,0-6.27.95-7.93,2.87-1.66,1.91-2.48,4.81-2.48,8.69v20.35c0,3.82.83,6.7,2.48,8.65,1.66,1.94,4.3,2.91,7.93,2.91h55.69v10.6h-58.08Z"/>
    <path class="cls-1" d="M577.12,64.67V10.6h-34.67V0h80.91v10.6h-34.77v54.06h-11.46Z"/>
    <path class="cls-1" d="M631,64.67V0h11.46v64.67h-11.46Z"/>
    <path class="cls-1" d="M745.14,64.67V0h11.46v64.67h-11.46Z"/>
    <path class="cls-1" d="M860.72,64.67V0h61.54c7.25,0,12.69,2.09,16.31,6.26s5.44,9.79,5.44,16.86v19.01c0,6.88-1.8,12.35-5.39,16.43-3.59,4.08-9.05,6.11-16.36,6.11h-61.54ZM932.55,26.84c0-2.35-.19-4.54-.58-6.54-.38-2.01-1.05-3.72-2.01-5.16-.96-1.43-2.23-2.55-3.83-3.34-1.59-.8-3.6-1.19-6.03-1.19h-47.93v43.46h44.58c5.23,0,9.17-1,11.82-3.01,2.65-2.01,3.97-5.3,3.97-9.89v-14.33Z"/>
    <path class="cls-1" d="M364.92,26.82h82.93s0,11.46,0,11.46h-82.93s0-11.46,0-11.46Z"/>
    <path class="cls-1" d="M365.37.24h82.93s0,11.46,0,11.46h-82.93s0-11.46,0-11.46Z"/>
    <path class="cls-1" d="M651.38.24h83.36s0,11.46,0,11.46h-83.36s0-11.46,0-11.46Z"/>
    <path class="cls-1" d="M766.97,26.82h82.93s0,11.46,0,11.46h-82.93s0-11.46,0-11.46Z"/>
    <path class="cls-1" d="M767.43.24h82.93s0,11.46,0,11.46h-82.93s0-11.46,0-11.46Z"/>
    <polygon class="cls-1" points="651.38 26.8 651.38 64.67 662.84 64.67 662.84 60.9 662.84 37.4 734.74 37.4 734.74 26.8 651.38 26.8"/>
  </g>
</svg>